<?xml version="1.0" encoding="UTF-8"?>
<svg id="Layer_1" data-name="Layer 1" xmlns="http://www.w3.org/2000/svg" xmlns:xlink="http://www.w3.org/1999/xlink" viewBox="0 0 1080 1920">
  <defs>
    <pattern id="Pattern_2" data-name="Pattern 2" x="0" y="0" width="446.7" height="446.7" patternTransform="translate(320.34 2643.09) scale(1.11 1.09)" patternUnits="userSpaceOnUse" viewBox="0 0 446.7 446.7">
      <g>
        <rect width="446.7" height="446.7" fill="none"/>
        <g>
          <rect x="335.02" y="223.35" width="223.35" height="223.35" fill="#fffce5"/>
          <g opacity=".54">
            <path d="M470.88,331.82c-1.64-.5-3.18.56-4.97,1.79-1,.69-2.04,1.4-3.09,1.83-1.37.57-4.09-.06-6.49-.62-3.03-.7-5.9-1.37-8.03-.43h0c-2.13.93-3.59,3.49-5.13,6.19-1.22,2.14-2.6,4.56-3.95,5.18-1.03.47-2.25.75-3.44,1.02-2.11.48-3.94.9-4.68,2.44-.41.85-.36,1.81.14,2.86,1.21,2.53,6,3.99,10.08,4.51,3.27.42,9.68.72,15.84-1.97,6.16-2.69,10.28-7.61,12.19-10.3,2.39-3.36,4.57-7.87,3.53-10.47-.43-1.08-1.11-1.77-2.01-2.04ZM455.9,351.74c-3.74,1.64-8.52,2.3-13.25,1.84,1.26-.71,2.49-1.57,3.75-2.44,2.18-1.52,4.43-3.09,7.33-4.35h0c2.9-1.27,5.58-1.86,8.17-2.43,1.49-.33,2.95-.65,4.33-1.1-2.87,3.78-6.59,6.85-10.34,8.48ZM469.38,337.91c-1.93,1.99-4.68,2.6-8.16,3.36-2.61.58-5.58,1.23-8.76,2.62h0c-3.18,1.39-5.67,3.12-7.87,4.65-2.92,2.03-5.23,3.64-8.01,3.71-1.5-.57-2.34-1.17-2.51-1.53-.03-.06-.05-.11-.06-.15.45-.26,1.65-.53,2.47-.72,1.28-.29,2.73-.62,4.05-1.23,2.27-1.04,3.84-3.81,5.37-6.49,1.16-2.04,2.48-4.35,3.66-4.87h0c1.18-.51,3.77.09,6.06.62,3,.7,6.1,1.42,8.41.46,1.35-.56,2.58-1.4,3.66-2.14.69-.47,1.7-1.17,2.2-1.32.02.04.04.09.07.15.15.37.02,1.39-.58,2.88Z" fill="#f7e0c9"/>
            <path d="M436.62,345.78c3.68-.49,6.18-4.47,5.59-8.91-.59-4.43-4.04-7.63-7.72-7.15-3.68.49-6.18,4.47-5.59,8.91.02.15.05.31.07.46-.05.03-.11.05-.17.07-.67.29-1.48.31-2.04-.24-.04-.04-.12,0-.11.06.27,1.26,1.65,1.86,2.85,1.98,1.27,3.17,4.12,5.22,7.11,4.82ZM439.3,337.83c.31-.03.53.12.62.32.25.53-.08,1.2-.73,1.51-.34.16-.77.29-1.09.2-.27-.07-.36-.3-.39-.53-.01-.1,0-.22.07-.32.08-.13.22-.24.34-.35.12-.12.24-.24.36-.36.22-.23.47-.43.82-.47ZM436.09,333.14c.94-.24,1.97.6,2.28,1.87.32,1.27-.19,2.49-1.14,2.72-.94.24-1.97-.6-2.28-1.87-.32-1.27.19-2.49,1.14-2.72Z" fill="#f7e0c9"/>
            <path d="M463.88,308.01c-2.87-1.1-5.84-1.81-8.82-2.13-4.18-.45-8.42-.14-12.53.92-.84-.78-1.96-1.89-2.73-2.9-.47-.62-.46-1.47.02-2.08l2.47-3.12c.2-.25,0-.54-.3-.41l-2.73,1.15c-1.15.49-2.37.34-3.2-.37l-2.98-2.56c-.17-.21-.51-.04-.49.25l-.4,4.04c-.11,1.05-.76,1.94-1.68,2.33l-1.97.83c-.2.08-.16.37.06.42l2.2.51c.71.16,1.23.77,1.3,1.49.09.98.41,2.46,1.35,4.13-4.2,2.43-7.81,5.65-10.65,9.48-1.79,2.41-3.28,5.07-4.42,7.93-3.47,8.66-3.33,18.11.38,26.6,3.57,8.15,10.02,14.48,18.25,17.92.34.14.68.28,1.03.41.59.23,1.19.44,1.78.63,8.21,2.65,17.02,2.2,25.04-1.3,8.01-3.51,14.32-9.68,17.94-17.51.26-.57.51-1.15.75-1.74.14-.34.27-.69.4-1.03,3.05-8.38,2.79-17.41-.78-25.57-3.71-8.49-10.56-15-19.28-18.33ZM434.06,301.75c1.11-2.38,2.16.57,3.4,3.26.44.95,1.47,1.83,2.43,2.58.22.17.44.34.64.5h0c1.39,1.1,2.19,1.86-.29,2.09-1.13.11-2.2-.17-3.13-.7-.26-.14-.5-.31-.73-.49-2.23-1.72-3.4-4.92-2.31-7.25ZM463.5,369.1c-15.44,6.76-33.42-.28-40.18-15.72-6.76-15.43.28-33.42,15.72-40.18,15.44-6.76,33.43.28,40.18,15.72,6.76,15.44-.28,33.42-15.72,40.18Z" fill="#f7e0c9"/>
            <path d="M393.68,262.2l-5.56,9.75s0,.02-.01.02c-.27.51.32,1.05.8.72l14.54-9.85c.45-.31.23-1.02-.32-1.01l-8.98.08c-.2,0-.38.11-.48.28Z" fill="#f7e0c9"/>
            <path d="M386.85,266.97s0,.09.02.13c.08.3.14.59.2.88.1.5.77.6,1.02.16l14.66-25.72c.29-.51-.3-1.06-.79-.73l-15.37,10.23c-.16.11-.25.29-.25.48l.44,12.61c.05.67.06,1.33.06,1.96Z" fill="#f7e0c9"/>
            <path d="M365.01,277.45s-.03-.02-.05-.03l-9.32-6.2c-.16-.11-.37-.12-.55-.04l-8.06,3.95c-.49.24-.37.97.17,1.04l17.41,2.27c.57.07.86-.67.39-1Z" fill="#f7e0c9"/>
            <path d="M364.51,273.56c-.52-.91-1.01-1.89-1.46-2.96l-5.25-11.44c-.08-.17-.24-.29-.44-.32l-18.32-2.24c-.58-.07-.86.69-.37,1.01l25.06,16.68c.49.32,1.08-.23.79-.73Z" fill="#f7e0c9"/>
            <path d="M365.87,247.83l4.79,3.89c.28.23.7.13.85-.2l2.53-5.63c.07-.15.06-.32,0-.47l-7.52-15.39c-.26-.53-1.06-.34-1.05.25l.19,17.13c0,.16.08.32.2.42Z" fill="#f7e0c9"/>
            <path d="M364.8,269.83c.03.07.06.14.1.22-.06-2.7.7-5.64,2.29-8.92l3.04-6.75c.1-.23.04-.5-.16-.66l-18.38-14.93c-.45-.37-1.1.13-.85.66l13.96,30.38Z" fill="#f7e0c9"/>
            <path d="M367.08,272.18c.81,3.51,3.08,5.99,5.94,6.47.58.1,1.17.21,1.75.34,2.83.63,5.87-.81,7.95-3.75,1.73-2.45,2.46-5.87,2.17-10.15l-1.17-33.44c-.02-.58-.82-.74-1.06-.21l-13.73,30.49c-1.92,3.97-2.52,7.31-1.85,10.25Z" fill="#f7e0c9"/>
            <path d="M398.82,386.38c-4.59-4.45-10.03-8.14-16.13-10.16-3.08-1.01-6.28-1.68-9.55-1.45-4.31.36-8.28,2.65-11.25,5.84-2.48,2.03-4.47,4.63-6.11,7.37-.27.5-.66,1.16-.84,1.68-.9,2.3-1.64,4.66-1.71,7.14-.08,2.51.35,4.92.73,7.18.12.65.31,1.93.44,2.58.52,2.69,1.5,5.17,2.45,7.71.84,2.27,2.06,4.65,3.63,6.53,1.17,1.45,2.46,2.7,3.81,3.93,1.38,1.24,2.74,2.41,4.4,3.39,4.3,2.5,9.34,3.05,14.22,3.22,6.1.13,12.14-2.51,16.41-6.8,2.52-2.48,4.81-5.23,6.45-8.39,1.67-3.14,2.56-6.68,2.65-10.23.07-.9.06-1.82-.03-2.8-.59-6.68-4.9-12.25-9.56-16.74ZM400.55,420.9c-3.75,4.17-8.6,7.14-14.28,7.52-2.19.17-4.35-.13-6.52-.51-3.14-.55-6.47-1.4-9.09-3.06-1.76-1.11-3.41-2.73-4.96-4.17-1.58-1.53-3-3.11-4-4.9-1.05-1.87-1.85-4.06-2.68-6.07-.88-2.1-1.39-4.18-1.84-6.38-.53-2.25-1.04-4.4-1.1-6.52-.06-1.57.18-3.16.55-4.69-.11,1.33-.09,2.68.05,4.01.87,8.23,5.71,15.37,10.84,21.58,3.37,4.11,7.36,7.22,12.75,8.11,8.5,1.58,17.09-2.65,22.69-8.85.87-.92,1.65-1.85,2.33-2.8-1.2,2.48-2.84,4.74-4.74,6.74ZM403.49,411.33c-5.11,6.88-13.77,12.24-22.55,10.66-6.21-.98-9.91-5.54-13.66-10.18-3.73-4.74-7.04-10-8-16.01-.45-2.93-.28-5.96.78-8.7,2.13-5.43,7.25-10.25,13.19-10.91,9.25-.59,18.11,5.01,24.31,11.45,3.19,3.31,6.05,6.96,7.45,11.34,1.33,4.09,1.04,8.82-1.53,12.35Z" fill="#f7e0c9"/>
            <path d="M397.97,394.98c.23-1.05-.07-2.91-2.24-6.15-2.82-4.19-5.39-6.3-7.65-6.28-1.39.01-2.26.82-2.67,1.33-1.76-3.7-6.71-3.82-10.85-3.92h-.21c-1.24-.04-1.75.62-1.94,1.01-.12.25-.22.55-.22.97-.09-.02-.19-.04-.28-.05-1.83-.23-3.86,1.11-4.76,1.94l-.14.12c-1.16,1.05-3.87,3.5-4.14,9.72-.05,1.1.35,2.05,1.19,2.83.8.75,1.97,1.28,3.34,1.65-.25.18-.49.39-.69.64-.99,1.19-1.18,2.9-.59,5.24,1.48,5.88,3.99,7.24,7.48,9.13,1.32.71,2.82,1.52,4.5,2.71.99.69,1.83.86,2.49.78.38-.04.71-.16.97-.3.47-.25.87-.66,1.23-1.18.14,1.67.76,3.12,2.61,3.68,1.61.5,3.08.61,4.41.46,4.07-.45,6.82-3.32,8.34-4.9,1.41-1.47,1.87-3.63,1.17-5.51-.2-.53-.49-1.11-.93-1.69.62.09,1,.13,1.02.13.16.01.42.03.73,0,.47-.05,1.06-.23,1.53-.76.87-.97,1.04-2.72.53-5.52-.71-3.92-2.86-5.49-4.22-6.11ZM385.88,394.48c.25-3.94.6-8.62.8-9.44.2-.28.65-.77,1.42-.77.92,0,2.96.7,6.21,5.52,2.22,3.29,2.05,4.58,1.94,4.9l-7.77,2.53c-.83.2-1.44.3-1.7.24,0,0,.06.01.13.07l-.09.12c-.22-.55-.59-1.04-1.05-1.41.01-.17.06-.72.11-1.75ZM373.94,381.73s.08-.06.36-.05h.21c5.98.15,9.9.62,9.84,5.68-.04,3.32-.12,5.59-.18,6.99-.02.35-.04.73-.07,1.11-.39-.11-.77-.19-1.19-.25-.39-.06-.74-.05-1.05.02-.76-.97-2.7-3.49-4.47-6.16-4.13-6.21-3.45-7.33-3.45-7.34ZM365.21,395.26c-.47-.43-.67-.91-.65-1.5.24-5.5,2.49-7.54,3.58-8.52l.15-.13c.72-.66,2.27-1.65,3.39-1.51.41.05.71.25.97.64l.05-.03c.54,1.38,1.58,3.31,3.43,6.06,1.91,2.85,3.96,5.48,4.56,6.23-.01.15,0,.32.02.49-1.5.14-3.65.27-5.9.25-.18-.01-.37-.02-.56-.03-.82-.05-1.7-.1-2.57-.1-2.76-.22-5.27-.76-6.46-1.86ZM383.11,406.82c-.32,3.81-1.07,7.32-2.39,8.03-.16.08-.63.34-1.65-.38-1.77-1.24-3.31-2.07-4.67-2.81-3.44-1.86-5.34-2.89-6.63-8.03-.44-1.75-.35-3,.25-3.73.5-.6,1.39-.89,2.42-1,.32-.04.66-.05,1.01-.06,1.24.11,2.49.14,3.69.14.47.02.92.04,1.33.02,2.41-.07,3.87-.21,4.63-.3.35.59,1.02,1.49,2.17,2.3-.08,2.84-.12,4.66-.15,5.82ZM382.29,397.13c-.11-.22-.17-.45-.17-.52,0,0,0,0,0-.01,0,0,.01,0,.02,0,.53-.14,1.29.04,1.85.18.83.16,1.37.74,1.42,1.46h-.03s.03.11.03.11c0,.19-.04.39-.11.59-.15.54-.51.53-.97.34-.9-.4-1.61-1.24-2.03-2.14ZM396.9,413.24c-2.65,2.76-5.9,5.57-11.01,3.98-1.64-.5-1.56-2.43-1.25-5.33.12-1.12.23-2.17.16-3.11,0-.13.01-.68.03-1.46.21-2.34.22-4.57.2-5.91.12,0,.23-.02.33-.03.06.08.12.16.2.25.38.47.83.91,1.32,1.31,1.25,1.05,3.23,2.26,6.19,3.08.38.12.76.23,1.13.33,1.79.61,2.97,1.68,3.52,3.16.47,1.26.15,2.72-.8,3.72ZM400.38,405.46c-.16.18-.39.23-.86.2-.69-.05-2.63-.33-4.85-.94-.25-.08-.51-.16-.78-.23-.08-.02-.15-.04-.23-.06-1.93-.6-3.96-1.46-5.47-2.61-.71-.57-1.17-1.08-1.44-1.42.18-.29.36-.62.46-.95l1.81-.59c1.58-.36,4-1.1,7.72-2.5.69.19,3.05,1.14,3.76,5.04.53,2.96.09,3.83-.12,4.07Z" fill="#f7e0c9"/>
            <path d="M469.68,413.43c-.76-.07-18.57-1.8-19.59-19.75,0-.09,0-.14,0-.17-.03-.49-.45-.85-.94-.83-.49.03-.86.44-.83.93,0,.03,0,.05,0,.08.04.85.3,9.58-4.93,15.22-2.98,3.22-7.24,4.87-12.64,4.92-.48,0-.87.39-.88.87-.01.48.36.88.84.91.76.04,18.62,1.21,19.29,20.77.02.48.41.86.89.86.01,0,.02,0,.03,0,.49-.02.87-.43.86-.92h0c-.03-.86-.45-20.25,17.88-21.13.47-.02.84-.4.84-.87,0-.47-.35-.86-.81-.9ZM450.78,429.7c-2.58-9.22-9.61-13.1-14.6-14.72,3.42-.83,6.26-2.45,8.5-4.87,2.8-3.02,4.16-6.74,4.82-9.9,2.9,8.67,10.26,12.38,15.2,13.92-9.13,2.37-12.6,9.91-13.92,15.56Z" fill="#f7e0c9"/>
            <path d="M377.98,348.07c.13.36.47.6.84.6.08,0,.16-.01.24-.03.45-.12.73-.58.63-1.03-.15-.75-3.55-18.31,13.37-24.4.08-.03.13-.05.16-.06.46-.17.69-.68.53-1.13-.17-.46-.67-.7-1.13-.53-.03,0-.05.02-.07.03-.79.28-9.1,3.01-16-.4-3.93-1.95-6.73-5.55-8.31-10.72-.14-.46-.62-.72-1.08-.6-.46.13-.74.6-.63,1.06.18.74,4.09,18.21-14.43,24.4-.46.16-.72.66-.56,1.12.15.46.66.72,1.12.56.79-.26,19.29-6.17,25.34,11.14Z" fill="#f7e0c9"/>
            <path d="M436.43,259.5c.7.06,17.13,1.64,18.14,18.65,0,.08,0,.14,0,.16.03.5.45.89.95.89.02,0,.04,0,.06,0,.52-.03.92-.48.9-1.01,0-.03,0-.05,0-.08-.04-.81-.32-9.24,4.63-14.6,2.73-2.96,6.59-4.49,11.48-4.55.52,0,.93-.42.94-.94,0-.52-.39-.95-.91-.97-.7-.03-17.17-1.08-17.86-19.62-.02-.53-.45-.91-.99-.92-.53.02-.94.46-.92.99h0c.03.85.47,19.19-16.4,20.09-.5.03-.9.44-.9.94s.37.92.88.97ZM453.94,244.33c2.48,8.26,8.65,11.88,13.21,13.45-2.97.81-5.46,2.3-7.45,4.46-2.56,2.78-3.86,6.21-4.51,9.19-2.77-7.77-9.22-11.22-13.75-12.72,8.02-2.33,11.22-9.1,12.5-14.38Z" fill="#f7e0c9"/>
          </g>
        </g>
        <g>
          <rect x="111.67" y="335.03" width="223.35" height="223.35" fill="#fffce5"/>
          <g opacity=".54">
            <path d="M247.53,443.5c-1.64-.5-3.18.56-4.97,1.79-1,.69-2.04,1.4-3.09,1.83-1.37.57-4.09-.06-6.49-.62-3.03-.7-5.9-1.37-8.03-.43h0c-2.13.93-3.59,3.49-5.13,6.19-1.22,2.14-2.6,4.56-3.95,5.18-1.03.47-2.25.75-3.44,1.02-2.11.48-3.94.9-4.68,2.44-.41.85-.36,1.81.14,2.86,1.21,2.53,6,3.99,10.08,4.51,3.27.42,9.68.72,15.84-1.97,6.16-2.69,10.28-7.61,12.19-10.3,2.39-3.36,4.57-7.87,3.53-10.47-.43-1.08-1.11-1.77-2.01-2.04ZM232.55,463.42c-3.74,1.64-8.52,2.3-13.25,1.84,1.26-.71,2.49-1.57,3.75-2.44,2.18-1.52,4.43-3.09,7.33-4.35h0c2.9-1.27,5.58-1.86,8.17-2.43,1.49-.33,2.95-.65,4.33-1.1-2.87,3.78-6.59,6.85-10.34,8.48ZM246.03,449.59c-1.93,1.99-4.68,2.6-8.16,3.36-2.61.58-5.58,1.23-8.76,2.62h0c-3.18,1.39-5.67,3.12-7.87,4.65-2.92,2.03-5.23,3.64-8.01,3.71-1.5-.57-2.34-1.17-2.51-1.53-.03-.06-.05-.11-.06-.15.45-.26,1.65-.53,2.47-.72,1.28-.29,2.73-.62,4.05-1.23,2.27-1.04,3.84-3.81,5.37-6.49,1.16-2.04,2.48-4.35,3.66-4.87h0c1.18-.51,3.77.09,6.06.62,3,.7,6.1,1.42,8.41.46,1.35-.56,2.58-1.4,3.66-2.14.69-.47,1.7-1.17,2.2-1.32.02.04.04.09.07.15.15.37.02,1.39-.58,2.88Z" fill="#f7e0c9"/>
            <path d="M213.27,457.45c3.68-.49,6.18-4.47,5.59-8.91-.59-4.43-4.04-7.63-7.72-7.15-3.68.49-6.18,4.47-5.59,8.91.02.15.05.31.07.46-.05.03-.11.05-.17.07-.67.29-1.48.31-2.04-.24-.04-.04-.12,0-.11.06.27,1.26,1.65,1.86,2.85,1.98,1.27,3.17,4.12,5.22,7.11,4.82ZM215.95,449.5c.31-.03.53.12.62.32.25.53-.08,1.2-.73,1.51-.34.16-.77.29-1.09.2-.27-.07-.36-.3-.39-.53-.01-.1,0-.22.07-.32.08-.13.22-.24.34-.35.12-.12.24-.24.36-.36.22-.23.47-.43.82-.47ZM212.74,444.82c.94-.24,1.97.6,2.28,1.87.32,1.27-.19,2.49-1.14,2.72-.94.24-1.97-.6-2.28-1.87-.32-1.27.19-2.49,1.14-2.72Z" fill="#f7e0c9"/>
            <path d="M241.25,445.21c2.32-1.93,2.75-5.41,1.28-8.5.73-.96,1.22-2.38.48-3.43-.03-.05-.12-.02-.12.04.02.79-.54,1.37-1.2,1.67-.05.02-.11.05-.17.07-.09-.12-.19-.25-.29-.37-2.86-3.44-7.49-4.31-10.34-1.93-2.85,2.37-2.85,7.08.01,10.52,2.86,3.44,7.49,4.31,10.34,1.93ZM239.09,439.66c.03-.18.15-.34.24-.51.09-.17.17-.35.25-.53.16-.34.35-.64.74-.76.35-.1.66.03.85.27.51.6.42,1.52-.19,2.03-.32.27-.76.52-1.16.49-.34-.03-.55-.3-.67-.58-.06-.13-.09-.27-.06-.42ZM235.63,434.91c.74-.63,2-.37,2.8.58.8.95.85,2.23.1,2.86-.74.63-2,.37-2.8-.59-.8-.95-.85-2.23-.1-2.86Z" fill="#f7e0c9"/>
            <path d="M240.53,419.69c-2.87-1.1-5.84-1.81-8.82-2.13-4.18-.45-8.42-.14-12.53.92-.84-.78-1.96-1.89-2.73-2.9-.47-.62-.46-1.47.02-2.08l2.47-3.12c.2-.25,0-.54-.3-.41l-2.73,1.15c-1.15.49-2.37.34-3.2-.37l-2.98-2.56c-.17-.21-.51-.04-.49.25l-.4,4.04c-.11,1.05-.76,1.94-1.68,2.33l-1.97.83c-.2.08-.16.37.06.42l2.2.51c.71.16,1.23.77,1.3,1.49.09.98.41,2.46,1.35,4.13-4.2,2.43-7.81,5.65-10.65,9.48-1.79,2.41-3.28,5.07-4.42,7.93-3.47,8.66-3.33,18.11.38,26.6,3.57,8.15,10.02,14.48,18.25,17.92.34.14.68.28,1.03.41.59.23,1.19.44,1.78.63,8.21,2.65,17.02,2.2,25.04-1.3,8.01-3.51,14.32-9.68,17.94-17.51.26-.57.51-1.15.75-1.74.14-.34.27-.69.4-1.03,3.05-8.38,2.79-17.41-.78-25.57-3.71-8.49-10.56-15-19.28-18.33ZM210.71,413.42c1.11-2.38,2.16.57,3.4,3.26.44.95,1.47,1.83,2.43,2.58.22.17.44.34.64.5h0c1.39,1.1,2.19,1.86-.29,2.09-1.13.11-2.2-.17-3.13-.7-.26-.14-.5-.31-.73-.49-2.23-1.72-3.4-4.92-2.31-7.25ZM240.15,480.77c-15.44,6.76-33.42-.28-40.18-15.72-6.76-15.43.28-33.42,15.72-40.18,15.44-6.76,33.43.28,40.18,15.72,6.76,15.44-.28,33.42-15.72,40.18Z" fill="#f7e0c9"/>
            <path d="M170.33,373.87l-5.56,9.75s0,.02-.01.02c-.27.51.32,1.05.8.72l14.54-9.85c.45-.31.23-1.02-.32-1.01l-8.98.08c-.2,0-.38.11-.48.28Z" fill="#f7e0c9"/>
            <path d="M163.5,378.64s0,.09.02.13c.08.3.14.59.2.88.1.5.77.6,1.02.16l14.66-25.72c.29-.51-.3-1.06-.79-.73l-15.37,10.23c-.16.11-.25.29-.25.48l.44,12.61c.05.67.06,1.33.06,1.96Z" fill="#f7e0c9"/>
            <path d="M141.66,389.12s-.03-.02-.05-.03l-9.32-6.2c-.16-.11-.37-.12-.55-.04l-8.06,3.95c-.49.24-.37.97.17,1.04l17.41,2.27c.57.07.86-.67.39-1Z" fill="#f7e0c9"/>
            <path d="M141.16,385.23c-.52-.91-1.01-1.89-1.46-2.96l-5.25-11.44c-.08-.17-.24-.29-.44-.32l-18.32-2.24c-.58-.07-.86.69-.37,1.01l25.06,16.68c.49.32,1.08-.23.79-.73Z" fill="#f7e0c9"/>
            <path d="M142.52,359.51l4.79,3.89c.28.23.7.13.85-.2l2.53-5.63c.07-.15.06-.32,0-.47l-7.52-15.39c-.26-.53-1.06-.34-1.05.25l.19,17.13c0,.16.08.32.2.42Z" fill="#f7e0c9"/>
            <path d="M141.45,381.5c.03.07.06.14.1.22-.06-2.7.7-5.64,2.29-8.92l3.04-6.75c.1-.23.04-.5-.16-.66l-18.38-14.93c-.45-.37-1.1.13-.85.66l13.96,30.38Z" fill="#f7e0c9"/>
            <path d="M143.73,383.86c.81,3.51,3.08,5.99,5.94,6.47.58.1,1.17.21,1.75.34,2.83.63,5.87-.81,7.95-3.75,1.73-2.45,2.46-5.87,2.17-10.15l-1.17-33.44c-.02-.58-.82-.74-1.06-.21l-13.73,30.49c-1.92,3.97-2.52,7.31-1.85,10.25Z" fill="#f7e0c9"/>
            <path d="M317.15,391.2c.29.14.63.09.87-.12h0s6.28-3.03,6.28-3.03c3.63-1.75,6.19-5.16,6.85-9.1,1.85-11.14-5.51-16.97-10.45-19.57-.67-.38-1.39-.75-2.16-1.11-12.26-5.53-26.71-6.31-37.83,2.2-2.83,2.16-5.33,4.76-7.27,7.75-.05.08-.25.4-.29.47,0,0,0,0,0,0-.3.42-.11,1.01.35,1.24,12.88,6.32,30.89,15.21,43.52,21.2l.13.06ZM329.13,372.58c.36,1.88.37,3.89.01,6.03-.55,3.29-2.69,6.13-5.73,7.6l-1.05.51c3.87-4.46,6.52-9.41,6.76-14.14ZM316.14,388.46c-4.74-2.27-10.13-4.83-15.66-7.43.88.04,1.76.09,2.62.14,2.74.16,5.57.33,8.47.03.55-.06.99-.53.96-1.07-.03-.59-.55-1.02-1.12-.96-2.74.29-5.51.13-8.18-.03-1.41-.08-2.85-.16-4.3-.19,2.61-.95,5.15-1.92,7.62-2.87,4.47-1.71,8.7-3.33,13.22-4.82.51-.17.85-.68.73-1.2-.13-.6-.75-.93-1.31-.75-4.59,1.51-8.85,3.14-13.37,4.87-3.1,1.18-6.3,2.41-9.59,3.58-.13.02-.28.02-.44.01,0-.02,0-.04,0-.06l7.85-7.65c.4-.39.41-1.04.02-1.44-.39-.4-1.04-.41-1.44-.02l-8.42,8.21,2.58-8.23c.17-.54-.13-1.11-.67-1.28-.55-.18-1.11.13-1.28.67l-2.66,8.49-2.79-7.65c-.18-.5-.71-.82-1.22-.69-.59.15-.91.77-.71,1.34l2.32,6.36c-4.85-2.27-9.53-4.45-13.7-6.39-.22-.1-.29-.38-.14-.57,2.3-3.08,5.22-5.71,8.5-7.71l1.51,4.15c.12.32.38.55.68.63.2.06.43.05.64-.03.53-.2.77-.82.57-1.36l-1.61-4.41c.28-.14.55-.28.83-.42,3.56-1.73,7.38-2.62,11.27-2.84l-2.05,6.54c-.17.54.13,1.11.67,1.28.01,0,.02,0,.03,0,.53.15,1.08-.15,1.25-.68l2.26-7.2c4.11.02,8.24.76,12.14,2.04l-6.36,6.2c-.4.39-.41,1.04-.02,1.44.13.13.29.22.45.27.34.09.72.01.99-.25l7.1-6.92c4.27,1.54,8.41,3.62,10.83,7.51,0,0,0,0,0,0-.6.21-1.19.43-1.79.64-.49.18-.81.68-.69,1.19.09.39.38.67.72.76.2.06.41.05.62-.02.65-.24,1.31-.47,1.97-.7,1.1,3.38.26,6.98-1.46,10.36l-8.53-.11c-.55,0-1.05.4-1.09.95-.03.5.29.92.74,1.05.08.02.17.04.26.04l7.48.1c-1.55,2.5-3.48,4.82-5.31,6.75-.51.54-1.31.68-1.98.36Z" fill="#f7e0c9"/>
            <path d="M154.63,459.75c.13.36.47.6.84.6.08,0,.16-.01.24-.03.45-.12.73-.58.63-1.03-.15-.75-3.55-18.31,13.37-24.4.08-.03.13-.05.16-.06.46-.17.69-.68.53-1.13-.17-.46-.67-.7-1.13-.53-.03,0-.05.02-.07.03-.79.28-9.1,3.01-16-.4-3.93-1.95-6.73-5.55-8.31-10.72-.14-.46-.62-.72-1.08-.6-.46.13-.74.6-.63,1.06.18.74,4.09,18.21-14.43,24.4-.46.16-.72.66-.56,1.12.15.46.66.72,1.12.56.79-.26,19.29-6.17,25.34,11.14Z" fill="#f7e0c9"/>
            <path d="M296.07,462.01c.31.35.84.4,1.21.11.15-.12,14.84-11.29,27.79,1.23.06.06.1.1.12.12.17.16.39.24.61.24.23,0,.47-.09.64-.27.34-.35.33-.91-.02-1.25-.02-.02-.04-.04-.06-.05-.6-.59-6.72-6.84-6.7-14.54.01-4.39,2.01-8.49,5.95-12.19.35-.33.37-.87.06-1.23-.31-.36-.86-.4-1.23-.1-.59.48-14.54,11.7-28.26-2.19,0,0,0,0,0,0h0c-.34-.35-.9-.35-1.26,0-.35.34-.35.91,0,1.26,0,0,0,0,0,0,0,0,0,0,0,0,.61.62,14.05,14.58,1.18,27.65-.33.33-.34.86-.03,1.21Z" fill="#f7e0c9"/>
            <path d="M213.08,371.18c.7.06,17.13,1.64,18.14,18.65,0,.08,0,.14,0,.16.03.5.45.89.95.89.02,0,.04,0,.06,0,.52-.03.92-.48.9-1.01,0-.03,0-.05,0-.08-.04-.81-.32-9.24,4.63-14.6,2.73-2.96,6.59-4.49,11.48-4.55.52,0,.93-.42.94-.94,0-.52-.39-.95-.91-.97-.7-.03-17.17-1.08-17.86-19.62-.02-.53-.45-.91-.99-.92-.53.02-.94.46-.92.99h0c.03.85.47,19.19-16.4,20.09-.5.03-.9.44-.9.94s.37.92.88.97ZM230.59,356c2.48,8.26,8.65,11.88,13.21,13.45-2.97.81-5.46,2.3-7.45,4.46-2.56,2.78-3.86,6.21-4.51,9.19-2.77-7.77-9.22-11.22-13.75-12.72,8.02-2.33,11.22-9.1,12.5-14.38Z" fill="#f7e0c9"/>
          </g>
        </g>
        <g>
          <rect x="-111.67" y="223.35" width="223.35" height="223.35" fill="#fffce5"/>
          <g opacity=".54">
            <path d="M24.18,331.82c-1.64-.5-3.18.56-4.97,1.79-1,.69-2.04,1.4-3.09,1.83-1.37.57-4.09-.06-6.49-.62-3.03-.7-5.9-1.37-8.03-.43h0c-2.13.93-3.59,3.49-5.13,6.19-1.22,2.14-2.6,4.56-3.95,5.18-1.03.47-2.25.75-3.44,1.02-2.11.48-3.94.9-4.68,2.44-.41.85-.36,1.81.14,2.86,1.21,2.53,6,3.99,10.08,4.51,3.27.42,9.68.72,15.84-1.97,6.16-2.69,10.28-7.61,12.19-10.3,2.39-3.36,4.57-7.87,3.53-10.47-.43-1.08-1.11-1.77-2.01-2.04ZM9.2,351.74c-3.74,1.64-8.52,2.3-13.25,1.84,1.26-.71,2.49-1.57,3.75-2.44,2.18-1.52,4.43-3.09,7.33-4.35h0c2.9-1.27,5.58-1.86,8.17-2.43,1.49-.33,2.95-.65,4.33-1.1-2.87,3.78-6.59,6.85-10.34,8.48ZM22.68,337.91c-1.93,1.99-4.68,2.6-8.16,3.36-2.61.58-5.58,1.23-8.76,2.62h0c-3.18,1.39-5.67,3.12-7.87,4.65-2.92,2.03-5.23,3.64-8.01,3.71-1.5-.57-2.34-1.17-2.51-1.53-.03-.06-.05-.11-.06-.15.45-.26,1.65-.53,2.47-.72,1.28-.29,2.73-.62,4.05-1.23,2.27-1.04,3.84-3.81,5.37-6.49,1.16-2.04,2.48-4.35,3.66-4.87h0c1.18-.51,3.77.09,6.06.62,3,.7,6.1,1.42,8.41.46,1.35-.56,2.58-1.4,3.66-2.14.69-.47,1.7-1.17,2.2-1.32.02.04.04.09.07.15.15.37.02,1.39-.58,2.88Z" fill="#f7e0c9"/>
            <path d="M17.9,333.53c2.32-1.93,2.75-5.41,1.28-8.5.73-.96,1.22-2.38.48-3.43-.03-.05-.12-.02-.12.04.02.79-.54,1.37-1.2,1.67-.05.02-.11.05-.17.07-.09-.12-.19-.25-.29-.37-2.86-3.44-7.49-4.31-10.34-1.93-2.85,2.37-2.85,7.08.01,10.52,2.86,3.44,7.49,4.31,10.34,1.93ZM15.74,327.99c.03-.18.15-.34.24-.51.09-.17.17-.35.25-.53.16-.34.35-.64.74-.76.35-.1.66.03.85.27.51.6.42,1.52-.19,2.03-.32.27-.76.52-1.16.49-.34-.03-.55-.3-.67-.58-.06-.13-.09-.27-.06-.42ZM12.28,323.24c.74-.63,2-.37,2.8.58.8.95.85,2.23.1,2.86-.74.63-2,.37-2.8-.59-.8-.95-.85-2.23-.1-2.86Z" fill="#f7e0c9"/>
            <path d="M17.18,308.01c-2.87-1.1-5.84-1.81-8.82-2.13-4.18-.45-8.42-.14-12.53.92-.84-.78-1.96-1.89-2.73-2.9-.47-.62-.46-1.47.02-2.08l2.47-3.12c.2-.25,0-.54-.3-.41l-2.73,1.15c-1.15.49-2.37.34-3.2-.37l-2.98-2.56c-.17-.21-.51-.04-.49.25l-.4,4.04c-.11,1.05-.76,1.94-1.68,2.33l-1.97.83c-.2.08-.16.37.06.42l2.2.51c.71.16,1.23.77,1.3,1.49.09.98.41,2.46,1.35,4.13-4.2,2.43-7.81,5.65-10.65,9.48-1.79,2.41-3.28,5.07-4.42,7.93-3.47,8.66-3.33,18.11.38,26.6,3.57,8.15,10.02,14.48,18.25,17.92.34.14.68.28,1.03.41.59.23,1.19.44,1.78.63,8.21,2.65,17.02,2.2,25.04-1.3,8.01-3.51,14.32-9.68,17.94-17.51.26-.57.51-1.15.75-1.74.14-.34.27-.69.4-1.03,3.05-8.38,2.79-17.41-.78-25.57-3.71-8.49-10.56-15-19.28-18.33ZM-12.64,301.75c1.11-2.38,2.16.57,3.4,3.26.44.95,1.47,1.83,2.43,2.58.22.17.44.34.64.5h0c1.39,1.1,2.19,1.86-.29,2.09-1.13.11-2.2-.17-3.13-.7-.26-.14-.5-.31-.73-.49-2.23-1.72-3.4-4.92-2.31-7.25ZM16.8,369.1c-15.44,6.76-33.42-.28-40.18-15.72-6.76-15.43.28-33.42,15.72-40.18,15.44-6.76,33.43.28,40.18,15.72,6.76,15.44-.28,33.42-15.72,40.18Z" fill="#f7e0c9"/>
            <path d="M93.8,279.52c.29.14.63.09.87-.12h0s6.28-3.03,6.28-3.03c3.63-1.75,6.19-5.16,6.85-9.1,1.85-11.14-5.51-16.97-10.45-19.57-.67-.38-1.39-.75-2.16-1.11-12.26-5.53-26.71-6.31-37.83,2.2-2.83,2.16-5.33,4.76-7.27,7.75-.05.08-.25.4-.29.47,0,0,0,0,0,0-.3.42-.11,1.01.35,1.24,12.88,6.32,30.89,15.21,43.52,21.2l.13.06ZM105.78,260.91c.36,1.88.37,3.89.01,6.03-.55,3.29-2.69,6.13-5.73,7.6l-1.05.51c3.87-4.46,6.52-9.41,6.76-14.14ZM92.79,276.78c-4.74-2.27-10.13-4.83-15.66-7.43.88.04,1.76.09,2.62.14,2.74.16,5.57.33,8.47.03.55-.06.99-.53.96-1.07-.03-.59-.55-1.02-1.12-.96-2.74.29-5.51.13-8.18-.03-1.41-.08-2.85-.16-4.3-.19,2.61-.95,5.15-1.92,7.62-2.87,4.47-1.71,8.7-3.33,13.22-4.82.51-.17.85-.68.73-1.2-.13-.6-.75-.93-1.31-.75-4.59,1.51-8.85,3.14-13.37,4.87-3.1,1.18-6.3,2.41-9.59,3.58-.13.02-.28.02-.44.01,0-.02,0-.04,0-.06l7.85-7.65c.4-.39.41-1.04.02-1.44-.39-.4-1.04-.41-1.44-.02l-8.42,8.21,2.58-8.23c.17-.54-.13-1.11-.67-1.28-.55-.18-1.11.13-1.28.67l-2.66,8.49-2.79-7.65c-.18-.5-.71-.82-1.22-.69-.59.15-.91.77-.71,1.34l2.32,6.36c-4.85-2.27-9.53-4.45-13.7-6.39-.22-.1-.29-.38-.14-.57,2.3-3.08,5.22-5.71,8.5-7.71l1.51,4.15c.12.32.38.55.68.63.2.06.43.05.64-.03.53-.2.77-.82.57-1.36l-1.61-4.41c.28-.14.55-.28.83-.42,3.56-1.73,7.38-2.62,11.27-2.84l-2.05,6.54c-.17.54.13,1.11.67,1.28.01,0,.02,0,.03,0,.53.15,1.08-.15,1.25-.68l2.26-7.2c4.11.02,8.24.76,12.14,2.04l-6.36,6.2c-.4.39-.41,1.04-.02,1.44.13.13.29.22.45.27.34.09.72.01.99-.25l7.1-6.92c4.27,1.54,8.41,3.62,10.83,7.51,0,0,0,0,0,0-.6.21-1.19.43-1.79.64-.49.18-.81.68-.69,1.19.09.39.38.67.72.76.2.06.41.05.62-.02.65-.24,1.31-.47,1.97-.7,1.1,3.38.26,6.98-1.46,10.36l-8.53-.11c-.55,0-1.05.4-1.09.95-.03.5.29.92.74,1.05.08.02.17.04.26.04l7.48.1c-1.55,2.5-3.48,4.82-5.31,6.75-.51.54-1.31.68-1.98.36Z" fill="#f7e0c9"/>
            <path d="M108.15,399.63c-.15-.98-.47-1.9-.72-2.86-.27-1.01-.39-2.05-.52-3.08-.14-1.09-.28-2.18-.61-3.24-.14-.45-.27-.9-.38-1.36-.38-1.49-.74-2.98-1.21-4.44-.25-.77-.53-1.54-.89-2.27-.14-.29-.3-.58-.49-.85-.15-.42-.44-.77-.92-.89-.59-.14-1.3.02-1.91-.01-1.22-.06-2.36-.29-3.66-.66-2.89-.82-5.56-2.08-8.2-3.53-2.49-1.37-4.9-2.91-7.2-4.59-.45-.33-.9-.78-1.45-.94-.47-.14-.99-.09-1.44.08-1.09.41-1.98,1.23-2.82,2-.44.41-.87.82-1.31,1.23-.2.19-.4.37-.61.55-.09.08-.18.16-.28.24-.04.04-.09.07-.14.11-.01,0-.02.01-.02.02,0,0-.01,0-.02.02-.18.12-.35.23-.53.34-.03.02-.07.03-.1.05-.23.07-.46.18-.67.3-.79.43-1.49,1.1-2.14,1.71-1.28,1.2-2.31,2.62-3.38,4.01-.83,1.08-1.73,2.08-2.7,3.04-.96.96-1.94,1.91-2.79,2.98-.79.99-1.6,2.1-1.82,3.38-.07.38-.08.77-.03,1.15-.39,2.32.31,4.57.87,6.81.26,1.06.46,1.98.47,3.03.02,1.35.19,2.7.45,4.02.5,2.56,1.39,5.03,2.32,7.46.24.62.48,1.24.72,1.86.23.6.43,1.23.81,1.76.8,1.11,2.23,1.52,3.43,2.04,2.56,1.11,5.12,2.22,7.67,3.34,1.11.49,2.22,1.01,3.17,1.79.98.81,1.91,1.58,3.15,1.96,1.21.37,2.52.39,3.78.37.67-.01,1.35-.05,1.97-.23,1.66-.08,3.07-1.13,4.24-2.23,1.25-1.18,2.32-2.53,3.45-3.82,1.33-1.51,2.76-2.91,4.08-4.44,1.41-1.63,2.75-3.34,3.8-5.22.49-.87.87-1.79,1.27-2.7.18-.42.39-.84.66-1.21.31-.42.7-.78,1.04-1.16.73-.8,1.31-1.69,1.57-2.75.25-1.05.21-2.11.04-3.17ZM61.31,391.51c0,.07.04-.23.06-.3.03-.12.07-.23.11-.35,0-.01.01-.04.02-.06.02-.04.04-.08.06-.12.13-.26.27-.51.43-.75.64-1,1.49-1.9,2.4-2.82.81-.82,1.65-1.6,2.41-2.47,1.08-1.24,2.01-2.6,3.06-3.86.53-.63,1.09-1.24,1.69-1.8.55-.5,1.11-1.06,1.79-1.37.97-.44,1.75-1.07,2.53-1.79.81-.75,1.58-1.54,2.45-2.22.04-.03.16-.12.19-.14.09-.06.18-.13.28-.19.09-.06.18-.11.27-.16.04-.02.08-.04.12-.06.08-.02.16-.04.23-.07,0,0,0,0,0,0,0,0,0,0,0,0,0,0,0,0,.02.01.91.77,1.94,1.44,2.93,2.11,1.16.79,2.35,1.54,3.55,2.25,2.56,1.51,5.22,2.86,8,3.91,2.33.88,4.87,1.58,7.38,1.52,0,.03,0,.07-.01.1-.02.14-.04.27-.07.4-.05.31-.1.61-.14.92,0,0,0,0,0,0-.06.09-.13.18-.19.27-.03.04-.05.07-.08.11-.02.02-.04.05-.05.07-.3.39-.65.76-.92,1.18-.38.58-.65,1.24-1,1.84-.4.68-.84,1.34-1.3,1.99-.92,1.3-1.93,2.52-2.99,3.71-2.17,2.44-4.51,4.71-6.75,7.07-.38.41-.76.82-1.14,1.23-3.72-1.49-7.37-3.19-10.92-5.06-1.84-.97-3.61-2.04-5.42-3.06-1.29-.73-2.82-1.03-4.27-1.22-1.52-.21-3.1-.31-4.62-.07,0-.02,0-.03-.01-.05-.04-.1-.06-.21-.09-.31,0,0,0,0,0-.01,0-.04,0-.07,0-.11,0-.09,0-.17,0-.26ZM88.26,423.23c-.02.07-.04.15-.06.22,0,0-.07.18-.08.2-.04.08-.09.17-.14.25-.12.19-.06.08-.03.05-.24.29-.5.41-.97.46-1.05.1-2.22.1-3.27-.06-1.14-.18-1.99-.69-2.86-1.42-.92-.77-1.88-1.41-2.97-1.92-2.33-1.1-4.72-2.08-7.09-3.1-1.15-.5-2.33-.97-3.46-1.51-.46-.22-.73-.43-.95-.9-.25-.54-.44-1.12-.65-1.68-.88-2.28-1.75-4.57-2.35-6.94-.33-1.29-.57-2.6-.66-3.92-.08-1.23-.1-2.41-.36-3.62-.34-1.58-.97-3.28-1.13-4.92.1,0,.21,0,.31-.02.04,0,.3-.05.31-.06.1-.01.21-.02.31-.03.36-.03.71-.04,1.07-.04.76,0,1.53.05,2.28.14.57.07,1.37.21,2.03.38.32.08.63.17.94.28.05.02.27.11.3.11.12.05.24.11.36.18,1.8.98,3.54,2.06,5.35,3.02,1.83.97,3.69,1.9,5.57,2.77,2.01.94,4.05,1.81,6.12,2.63.02.08.05.17.08.25.87,1.97,1.42,4.15,1.48,6.3.03,1.13-.12,2.19-.39,3.29-.3,1.2-.63,2.45-.52,3.7.1,1.2.58,2.26,1,3.36.18.47.36.96.44,1.46,0,.03.02.23.02.23,0,.08,0,.16,0,.23,0,.32-.01.41-.07.64ZM105.61,403.3c-.52.85-1.34,1.49-1.92,2.29-.58.8-.87,1.75-1.28,2.63-1.67,3.62-4.47,6.57-7.18,9.43-1.27,1.34-2.41,2.78-3.67,4.12-.35.37-.73.75-1.11,1.09,0-.13,0-.26,0-.39-.03-1.2-.52-2.28-.95-3.38-.22-.57-.45-1.17-.52-1.79-.07-.65.02-1.31.16-1.95.31-1.44.71-2.83.75-4.31.07-2.72-.62-5.45-1.7-7.93,4.43-4.85,9.59-9.21,12.82-15,.19-.33.36-.67.53-1.01.04-.08.08-.15.13-.22,0-.01.01-.02.02-.03,0,0,.02-.02.05-.06.34-.42.68-.84.99-1.28.34,1.09.63,2.21.91,3.32.3,1.19.7,2.37.93,3.57.19.99.28,2,.42,3,.15,1.03.4,2.01.69,3.02.45,1.59.83,3.4-.07,4.89Z" fill="#f7e0c9"/>
            <path d="M22.98,413.43c-.76-.07-18.57-1.8-19.59-19.75,0-.09,0-.14,0-.17-.03-.49-.45-.85-.94-.83-.49.03-.86.44-.83.93,0,.03,0,.05,0,.08.04.85.3,9.58-4.93,15.22-2.98,3.22-7.24,4.87-12.64,4.92-.48,0-.87.39-.88.87-.01.48.36.88.84.91.76.04,18.62,1.21,19.29,20.77.02.48.41.86.89.86.01,0,.02,0,.03,0,.49-.02.87-.43.86-.92h0c-.03-.86-.45-20.25,17.88-21.13.47-.02.84-.4.84-.87,0-.47-.35-.86-.81-.9ZM4.08,429.7c-2.58-9.22-9.61-13.1-14.6-14.72,3.42-.83,6.26-2.45,8.5-4.87,2.8-3.02,4.16-6.74,4.82-9.9,2.9,8.67,10.26,12.38,15.2,13.92-9.13,2.37-12.6,9.91-13.92,15.56Z" fill="#f7e0c9"/>
            <path d="M72.72,350.33c.31.35.84.4,1.21.11.15-.12,14.84-11.29,27.79,1.23.06.06.1.1.12.12.17.16.39.24.61.24.23,0,.47-.09.64-.27.34-.35.33-.91-.02-1.25-.02-.02-.04-.04-.06-.05-.6-.59-6.72-6.84-6.7-14.54.01-4.39,2.01-8.49,5.95-12.19.35-.33.37-.87.06-1.23-.31-.36-.86-.4-1.23-.1-.59.48-14.54,11.7-28.26-2.19,0,0,0,0,0,0h0c-.34-.35-.9-.35-1.26,0-.35.34-.35.91,0,1.26,0,0,0,0,0,0,0,0,0,0,0,0,.61.62,14.05,14.58,1.18,27.65-.33.33-.34.86-.03,1.21Z" fill="#f7e0c9"/>
            <path d="M-10.27,259.5c.7.06,17.13,1.64,18.14,18.65,0,.08,0,.14,0,.16.03.5.45.89.95.89.02,0,.04,0,.06,0,.52-.03.92-.48.9-1.01,0-.03,0-.05,0-.08-.04-.81-.32-9.24,4.63-14.6,2.73-2.96,6.59-4.49,11.48-4.55.52,0,.93-.42.94-.94,0-.52-.39-.95-.91-.97-.7-.03-17.17-1.08-17.86-19.62-.02-.53-.45-.91-.99-.92-.53.02-.94.46-.92.99h0c.03.85.47,19.19-16.4,20.09-.5.03-.9.44-.9.94s.37.92.88.97ZM7.24,244.33c2.48,8.26,8.65,11.88,13.21,13.45-2.97.81-5.46,2.3-7.45,4.46-2.56,2.78-3.86,6.21-4.51,9.19-2.77-7.77-9.22-11.22-13.75-12.72,8.02-2.33,11.22-9.1,12.5-14.38Z" fill="#f7e0c9"/>
          </g>
        </g>
        <g>
          <rect x="335.02" y="0" width="223.35" height="223.35" fill="#fffce5"/>
          <g opacity=".54">
            <path d="M470.88,108.47c-1.64-.5-3.18.56-4.97,1.79-1,.69-2.04,1.4-3.09,1.83-1.37.57-4.09-.06-6.49-.62-3.03-.7-5.9-1.37-8.03-.43h0c-2.13.93-3.59,3.49-5.13,6.19-1.22,2.14-2.6,4.56-3.95,5.18-1.03.47-2.25.75-3.44,1.02-2.11.48-3.94.9-4.68,2.44-.41.85-.36,1.81.14,2.86,1.21,2.53,6,3.99,10.08,4.51,3.27.42,9.68.72,15.84-1.97,6.16-2.69,10.28-7.61,12.19-10.3,2.39-3.36,4.57-7.87,3.53-10.47-.43-1.08-1.11-1.77-2.01-2.04ZM455.9,128.39c-3.74,1.64-8.52,2.3-13.25,1.84,1.26-.71,2.49-1.57,3.75-2.44,2.18-1.52,4.43-3.09,7.33-4.35h0c2.9-1.27,5.58-1.86,8.17-2.43,1.49-.33,2.95-.65,4.33-1.1-2.87,3.78-6.59,6.85-10.34,8.48ZM469.38,114.56c-1.93,1.99-4.68,2.6-8.16,3.36-2.61.58-5.58,1.23-8.76,2.62h0c-3.18,1.39-5.67,3.12-7.87,4.65-2.92,2.03-5.23,3.64-8.01,3.71-1.5-.57-2.34-1.17-2.51-1.53-.03-.06-.05-.11-.06-.15.45-.26,1.65-.53,2.47-.72,1.28-.29,2.73-.62,4.05-1.23,2.27-1.04,3.84-3.81,5.37-6.49,1.16-2.04,2.48-4.35,3.66-4.87h0c1.18-.51,3.77.09,6.06.62,3,.7,6.1,1.42,8.41.46,1.35-.56,2.58-1.4,3.66-2.14.69-.47,1.7-1.17,2.2-1.32.02.04.04.09.07.15.15.37.02,1.39-.58,2.88Z" fill="#f7e0c9"/>
            <path d="M436.62,122.43c3.68-.49,6.18-4.47,5.59-8.91-.59-4.43-4.04-7.63-7.72-7.15-3.68.49-6.18,4.47-5.59,8.91.02.15.05.31.07.46-.05.03-.11.05-.17.07-.67.29-1.48.31-2.04-.24-.04-.04-.12,0-.11.06.27,1.26,1.65,1.86,2.85,1.98,1.27,3.17,4.12,5.22,7.11,4.82ZM439.3,114.48c.31-.03.53.12.62.32.25.53-.08,1.2-.73,1.51-.34.16-.77.29-1.09.2-.27-.07-.36-.3-.39-.53-.01-.1,0-.22.07-.32.08-.13.22-.24.34-.35.12-.12.24-.24.36-.36.22-.23.47-.43.82-.47ZM436.09,109.79c.94-.24,1.97.6,2.28,1.87.32,1.27-.19,2.49-1.14,2.72-.94.24-1.97-.6-2.28-1.87-.32-1.27.19-2.49,1.14-2.72Z" fill="#f7e0c9"/>
            <path d="M463.88,84.66c-2.87-1.1-5.84-1.81-8.82-2.13-4.18-.45-8.42-.14-12.53.92-.84-.78-1.96-1.89-2.73-2.9-.47-.62-.46-1.47.02-2.08l2.47-3.12c.2-.25,0-.54-.3-.41l-2.73,1.15c-1.15.49-2.37.34-3.2-.37l-2.98-2.56c-.17-.21-.51-.04-.49.25l-.4,4.04c-.11,1.05-.76,1.94-1.68,2.33l-1.97.83c-.2.08-.16.37.06.42l2.2.51c.71.16,1.23.77,1.3,1.49.09.98.41,2.46,1.35,4.13-4.2,2.43-7.81,5.65-10.65,9.48-1.79,2.41-3.28,5.07-4.42,7.93-3.47,8.66-3.33,18.11.38,26.6,3.57,8.15,10.02,14.48,18.25,17.92.34.14.68.28,1.03.41.59.23,1.19.44,1.78.63,8.21,2.65,17.02,2.2,25.04-1.3,8.01-3.51,14.32-9.68,17.94-17.51.26-.57.51-1.15.75-1.74.14-.34.27-.69.4-1.03,3.05-8.38,2.79-17.41-.78-25.57-3.71-8.49-10.56-15-19.28-18.33ZM434.06,78.4c1.11-2.38,2.16.57,3.4,3.26.44.95,1.47,1.83,2.43,2.58.22.17.44.34.64.5h0c1.39,1.1,2.19,1.86-.29,2.09-1.13.11-2.2-.17-3.13-.7-.26-.14-.5-.31-.73-.49-2.23-1.72-3.4-4.92-2.31-7.25ZM463.5,145.75c-15.44,6.76-33.42-.28-40.18-15.72-6.76-15.43.28-33.42,15.72-40.18,15.44-6.76,33.43.28,40.18,15.72,6.76,15.44-.28,33.42-15.72,40.18Z" fill="#f7e0c9"/>
            <path d="M393.68,38.85l-5.56,9.75s0,.02-.01.02c-.27.51.32,1.05.8.72l14.54-9.85c.45-.31.23-1.02-.32-1.01l-8.98.08c-.2,0-.38.11-.48.28Z" fill="#f7e0c9"/>
            <path d="M386.85,43.62s0,.09.02.13c.08.3.14.59.2.88.1.5.77.6,1.02.16l14.66-25.72c.29-.51-.3-1.06-.79-.73l-15.37,10.23c-.16.11-.25.29-.25.48l.44,12.61c.05.67.06,1.33.06,1.96Z" fill="#f7e0c9"/>
            <path d="M365.01,54.1s-.03-.02-.05-.03l-9.32-6.2c-.16-.11-.37-.12-.55-.04l-8.06,3.95c-.49.24-.37.97.17,1.04l17.41,2.27c.57.07.86-.67.39-1Z" fill="#f7e0c9"/>
            <path d="M364.51,50.21c-.52-.91-1.01-1.89-1.46-2.96l-5.25-11.44c-.08-.17-.24-.29-.44-.32l-18.32-2.24c-.58-.07-.86.69-.37,1.01l25.06,16.68c.49.32,1.08-.23.79-.73Z" fill="#f7e0c9"/>
            <path d="M365.87,24.48l4.79,3.89c.28.23.7.13.85-.2l2.53-5.63c.07-.15.06-.32,0-.47l-7.52-15.39c-.26-.53-1.06-.34-1.05.25l.19,17.13c0,.16.08.32.2.42Z" fill="#f7e0c9"/>
            <path d="M364.8,46.48c.03.07.06.14.1.22-.06-2.7.7-5.64,2.29-8.92l3.04-6.75c.1-.23.04-.5-.16-.66l-18.38-14.93c-.45-.37-1.1.13-.85.66l13.96,30.38Z" fill="#f7e0c9"/>
            <path d="M367.08,48.83c.81,3.51,3.08,5.99,5.94,6.47.58.1,1.17.21,1.75.34,2.83.63,5.87-.81,7.95-3.75,1.73-2.45,2.46-5.87,2.17-10.15l-1.17-33.44c-.02-.58-.82-.74-1.06-.21l-13.73,30.49c-1.92,3.97-2.52,7.31-1.85,10.25Z" fill="#f7e0c9"/>
            <path d="M398.82,163.03c-4.59-4.45-10.03-8.14-16.13-10.16-3.08-1.01-6.28-1.68-9.55-1.45-4.31.36-8.28,2.65-11.25,5.84-2.48,2.03-4.47,4.63-6.11,7.37-.27.5-.66,1.16-.84,1.68-.9,2.3-1.64,4.66-1.71,7.14-.08,2.51.35,4.92.73,7.18.12.65.31,1.93.44,2.58.52,2.69,1.5,5.17,2.45,7.71.84,2.27,2.06,4.65,3.63,6.53,1.17,1.45,2.46,2.7,3.81,3.93,1.38,1.24,2.74,2.41,4.4,3.39,4.3,2.5,9.34,3.05,14.22,3.22,6.1.13,12.14-2.51,16.41-6.8,2.52-2.48,4.81-5.23,6.45-8.39,1.67-3.14,2.56-6.68,2.65-10.23.07-.9.06-1.82-.03-2.8-.59-6.68-4.9-12.25-9.56-16.74ZM400.55,197.55c-3.75,4.17-8.6,7.14-14.28,7.52-2.19.17-4.35-.13-6.52-.51-3.14-.55-6.47-1.4-9.09-3.06-1.76-1.11-3.41-2.73-4.96-4.17-1.58-1.53-3-3.11-4-4.9-1.05-1.87-1.85-4.06-2.68-6.07-.88-2.1-1.39-4.18-1.84-6.38-.53-2.25-1.04-4.4-1.1-6.52-.06-1.57.18-3.16.55-4.69-.11,1.33-.09,2.68.05,4.01.87,8.23,5.71,15.37,10.84,21.58,3.37,4.11,7.36,7.22,12.75,8.11,8.5,1.58,17.09-2.65,22.69-8.85.87-.92,1.65-1.85,2.33-2.8-1.2,2.48-2.84,4.74-4.74,6.74ZM403.49,187.98c-5.11,6.88-13.77,12.24-22.55,10.66-6.21-.98-9.91-5.54-13.66-10.18-3.73-4.74-7.04-10-8-16.01-.45-2.93-.28-5.96.78-8.7,2.13-5.43,7.25-10.25,13.19-10.91,9.25-.59,18.11,5.01,24.31,11.45,3.19,3.31,6.05,6.96,7.45,11.34,1.33,4.09,1.04,8.82-1.53,12.35Z" fill="#f7e0c9"/>
            <path d="M397.97,171.63c.23-1.05-.07-2.91-2.24-6.15-2.82-4.19-5.39-6.3-7.65-6.28-1.39.01-2.26.82-2.67,1.33-1.76-3.7-6.71-3.82-10.85-3.92h-.21c-1.24-.04-1.75.62-1.94,1.01-.12.25-.22.55-.22.97-.09-.02-.19-.04-.28-.05-1.83-.23-3.86,1.11-4.76,1.94l-.14.12c-1.16,1.05-3.87,3.5-4.14,9.72-.05,1.1.35,2.05,1.19,2.83.8.75,1.97,1.28,3.34,1.65-.25.18-.49.39-.69.64-.99,1.19-1.18,2.9-.59,5.24,1.48,5.88,3.99,7.24,7.48,9.13,1.32.71,2.82,1.52,4.5,2.71.99.69,1.83.86,2.49.78.38-.04.71-.16.97-.3.47-.25.87-.66,1.23-1.18.14,1.67.76,3.12,2.61,3.68,1.61.5,3.08.61,4.41.46,4.07-.45,6.82-3.32,8.34-4.9,1.41-1.47,1.87-3.63,1.17-5.51-.2-.53-.49-1.11-.93-1.69.62.09,1,.13,1.02.13.16.01.42.03.73,0,.47-.05,1.06-.23,1.53-.76.87-.97,1.04-2.72.53-5.52-.71-3.92-2.86-5.49-4.22-6.11ZM385.88,171.13c.25-3.94.6-8.62.8-9.44.2-.28.65-.77,1.42-.77.92,0,2.96.7,6.21,5.52,2.22,3.29,2.05,4.58,1.94,4.9l-7.77,2.53c-.83.2-1.44.3-1.7.24,0,0,.06.01.13.07l-.09.12c-.22-.55-.59-1.04-1.05-1.41.01-.17.06-.72.11-1.75ZM373.94,158.38s.08-.06.36-.05h.21c5.98.15,9.9.62,9.84,5.68-.04,3.32-.12,5.59-.18,6.99-.02.35-.04.73-.07,1.11-.39-.11-.77-.19-1.19-.25-.39-.06-.74-.05-1.05.02-.76-.97-2.7-3.49-4.47-6.16-4.13-6.21-3.45-7.33-3.45-7.34ZM365.21,171.91c-.47-.43-.67-.91-.65-1.5.24-5.5,2.49-7.54,3.58-8.52l.15-.13c.72-.66,2.27-1.65,3.39-1.51.41.05.71.25.97.64l.05-.03c.54,1.38,1.58,3.31,3.43,6.06,1.91,2.85,3.96,5.48,4.56,6.23-.01.15,0,.32.02.49-1.5.14-3.65.27-5.9.25-.18-.01-.37-.02-.56-.03-.82-.05-1.7-.1-2.57-.1-2.76-.22-5.27-.76-6.46-1.86ZM383.11,183.47c-.32,3.81-1.07,7.32-2.39,8.03-.16.08-.63.34-1.65-.38-1.77-1.24-3.31-2.07-4.67-2.81-3.44-1.86-5.34-2.89-6.63-8.03-.44-1.75-.35-3,.25-3.73.5-.6,1.39-.89,2.42-1,.32-.04.66-.05,1.01-.06,1.24.11,2.49.14,3.69.14.47.02.92.04,1.33.02,2.41-.07,3.87-.21,4.63-.3.35.59,1.02,1.49,2.17,2.3-.08,2.84-.12,4.66-.15,5.82ZM382.29,173.78c-.11-.22-.17-.45-.17-.52,0,0,0,0,0-.01,0,0,.01,0,.02,0,.53-.14,1.29.04,1.85.18.83.16,1.37.74,1.42,1.46h-.03s.03.11.03.11c0,.19-.04.39-.11.59-.15.54-.51.53-.97.34-.9-.4-1.61-1.24-2.03-2.14ZM396.9,189.89c-2.65,2.76-5.9,5.57-11.01,3.98-1.64-.5-1.56-2.43-1.25-5.33.12-1.12.23-2.17.16-3.11,0-.13.01-.68.03-1.46.21-2.34.22-4.57.2-5.91.12,0,.23-.02.33-.03.06.08.12.16.2.25.38.47.83.91,1.32,1.31,1.25,1.05,3.23,2.26,6.19,3.08.38.12.76.23,1.13.33,1.79.61,2.97,1.68,3.52,3.16.47,1.26.15,2.72-.8,3.72ZM400.38,182.11c-.16.18-.39.23-.86.2-.69-.05-2.63-.33-4.85-.94-.25-.08-.51-.16-.78-.23-.08-.02-.15-.04-.23-.06-1.93-.6-3.96-1.46-5.47-2.61-.71-.57-1.17-1.08-1.44-1.42.18-.29.36-.62.46-.95l1.81-.59c1.58-.36,4-1.1,7.72-2.5.69.19,3.05,1.14,3.76,5.04.53,2.96.09,3.83-.12,4.07Z" fill="#f7e0c9"/>
            <path d="M469.68,190.08c-.76-.07-18.57-1.8-19.59-19.75,0-.09,0-.14,0-.17-.03-.49-.45-.85-.94-.83-.49.03-.86.44-.83.93,0,.03,0,.05,0,.08.04.85.3,9.58-4.93,15.22-2.98,3.22-7.24,4.87-12.64,4.92-.48,0-.87.39-.88.87-.01.48.36.88.84.91.76.04,18.62,1.21,19.29,20.77.02.48.41.86.89.86.01,0,.02,0,.03,0,.49-.02.87-.43.86-.92h0c-.03-.86-.45-20.25,17.88-21.13.47-.02.84-.4.84-.87,0-.47-.35-.86-.81-.9ZM450.78,206.35c-2.58-9.22-9.61-13.1-14.6-14.72,3.42-.83,6.26-2.45,8.5-4.87,2.8-3.02,4.16-6.74,4.82-9.9,2.9,8.67,10.26,12.38,15.2,13.92-9.13,2.37-12.6,9.91-13.92,15.56Z" fill="#f7e0c9"/>
            <path d="M377.98,124.72c.13.36.47.6.84.6.08,0,.16-.01.24-.03.45-.12.73-.58.63-1.03-.15-.75-3.55-18.31,13.37-24.4.08-.03.13-.05.16-.06.46-.17.69-.68.53-1.13-.17-.46-.67-.7-1.13-.53-.03,0-.05.02-.07.03-.79.28-9.1,3.01-16-.4-3.93-1.95-6.73-5.55-8.31-10.72-.14-.46-.62-.72-1.08-.6-.46.13-.74.6-.63,1.06.18.74,4.09,18.21-14.43,24.4-.46.16-.72.66-.56,1.12.15.46.66.72,1.12.56.79-.26,19.29-6.17,25.34,11.14Z" fill="#f7e0c9"/>
            <path d="M436.43,36.15c.7.06,17.13,1.64,18.14,18.65,0,.08,0,.14,0,.16.03.5.45.89.95.89.02,0,.04,0,.06,0,.52-.03.92-.48.9-1.01,0-.03,0-.05,0-.08-.04-.81-.32-9.24,4.63-14.6,2.73-2.96,6.59-4.49,11.48-4.55.52,0,.93-.42.94-.94,0-.52-.39-.95-.91-.97-.7-.03-17.17-1.08-17.86-19.62-.02-.53-.45-.91-.99-.92-.53.02-.94.46-.92.99h0c.03.85.47,19.19-16.4,20.09-.5.03-.9.44-.9.94s.37.92.88.97ZM453.94,20.98c2.48,8.26,8.65,11.88,13.21,13.45-2.97.81-5.46,2.3-7.45,4.46-2.56,2.78-3.86,6.21-4.51,9.19-2.77-7.77-9.22-11.22-13.75-12.72,8.02-2.33,11.22-9.1,12.5-14.38Z" fill="#f7e0c9"/>
          </g>
        </g>
        <g>
          <rect x="111.67" y="111.68" width="223.35" height="223.35" fill="#fffce5"/>
          <g opacity=".54">
            <path d="M247.53,220.15c-1.64-.5-3.18.56-4.97,1.79-1,.69-2.04,1.4-3.09,1.83-1.37.57-4.09-.06-6.49-.62-3.03-.7-5.9-1.37-8.03-.43h0c-2.13.93-3.59,3.49-5.13,6.19-1.22,2.14-2.6,4.56-3.95,5.18-1.03.47-2.25.75-3.44,1.02-2.11.48-3.94.9-4.68,2.44-.41.85-.36,1.81.14,2.86,1.21,2.53,6,3.99,10.08,4.51,3.27.42,9.68.72,15.84-1.97,6.16-2.69,10.28-7.61,12.19-10.3,2.39-3.36,4.57-7.87,3.53-10.47-.43-1.08-1.11-1.77-2.01-2.04ZM232.55,240.07c-3.74,1.64-8.52,2.3-13.25,1.84,1.26-.71,2.49-1.57,3.75-2.44,2.18-1.52,4.43-3.09,7.33-4.35h0c2.9-1.27,5.58-1.86,8.17-2.43,1.49-.33,2.95-.65,4.33-1.1-2.87,3.78-6.59,6.85-10.34,8.48ZM246.03,226.24c-1.93,1.99-4.68,2.6-8.16,3.36-2.61.58-5.58,1.23-8.76,2.62h0c-3.18,1.39-5.67,3.12-7.87,4.65-2.92,2.03-5.23,3.64-8.01,3.71-1.5-.57-2.34-1.17-2.51-1.53-.03-.06-.05-.11-.06-.15.45-.26,1.65-.53,2.47-.72,1.28-.29,2.73-.62,4.05-1.23,2.27-1.04,3.84-3.81,5.37-6.49,1.16-2.04,2.48-4.35,3.66-4.87h0c1.18-.51,3.77.09,6.06.62,3,.7,6.1,1.42,8.41.46,1.35-.56,2.58-1.4,3.66-2.14.69-.47,1.7-1.17,2.2-1.32.02.04.04.09.07.15.15.37.02,1.39-.58,2.88Z" fill="#f7e0c9"/>
            <path d="M213.27,234.1c3.68-.49,6.18-4.47,5.59-8.91-.59-4.43-4.04-7.63-7.72-7.15-3.68.49-6.18,4.47-5.59,8.91.02.15.05.31.07.46-.05.03-.11.05-.17.07-.67.29-1.48.31-2.04-.24-.04-.04-.12,0-.11.06.27,1.26,1.65,1.86,2.85,1.98,1.27,3.17,4.12,5.22,7.11,4.82ZM215.95,226.15c.31-.03.53.12.62.32.25.53-.08,1.2-.73,1.51-.34.16-.77.29-1.09.2-.27-.07-.36-.3-.39-.53-.01-.1,0-.22.07-.32.08-.13.22-.24.34-.35.12-.12.24-.24.36-.36.22-.23.47-.43.82-.47ZM212.74,221.47c.94-.24,1.97.6,2.28,1.87.32,1.27-.19,2.49-1.14,2.72-.94.24-1.97-.6-2.28-1.87-.32-1.27.19-2.49,1.14-2.72Z" fill="#f7e0c9"/>
            <path d="M241.25,221.86c2.32-1.93,2.75-5.41,1.28-8.5.73-.96,1.22-2.38.48-3.43-.03-.05-.12-.02-.12.04.02.79-.54,1.37-1.2,1.67-.05.02-.11.05-.17.07-.09-.12-.19-.25-.29-.37-2.86-3.44-7.49-4.31-10.34-1.93-2.85,2.37-2.85,7.08.01,10.52,2.86,3.44,7.49,4.31,10.34,1.93ZM239.09,216.31c.03-.18.15-.34.24-.51.09-.17.17-.35.25-.53.16-.34.35-.64.74-.76.35-.1.66.03.85.27.51.6.42,1.52-.19,2.03-.32.27-.76.52-1.16.49-.34-.03-.55-.3-.67-.58-.06-.13-.09-.27-.06-.42ZM235.63,211.56c.74-.63,2-.37,2.8.58.8.95.85,2.23.1,2.86-.74.63-2,.37-2.8-.59-.8-.95-.85-2.23-.1-2.86Z" fill="#f7e0c9"/>
            <path d="M240.53,196.34c-2.87-1.1-5.84-1.81-8.82-2.13-4.18-.45-8.42-.14-12.53.92-.84-.78-1.96-1.89-2.73-2.9-.47-.62-.46-1.47.02-2.08l2.47-3.12c.2-.25,0-.54-.3-.41l-2.73,1.15c-1.15.49-2.37.34-3.2-.37l-2.98-2.56c-.17-.21-.51-.04-.49.25l-.4,4.04c-.11,1.05-.76,1.94-1.68,2.33l-1.97.83c-.2.08-.16.37.06.42l2.2.51c.71.16,1.23.77,1.3,1.49.09.98.41,2.46,1.35,4.13-4.2,2.43-7.81,5.65-10.65,9.48-1.79,2.41-3.28,5.07-4.42,7.93-3.47,8.66-3.33,18.11.38,26.6,3.57,8.15,10.02,14.48,18.25,17.92.34.14.68.28,1.03.41.59.23,1.19.44,1.78.63,8.21,2.65,17.02,2.2,25.04-1.3,8.01-3.51,14.32-9.68,17.94-17.51.26-.57.51-1.15.75-1.74.14-.34.27-.69.4-1.03,3.05-8.38,2.79-17.41-.78-25.57-3.71-8.49-10.56-15-19.28-18.33ZM210.71,190.07c1.11-2.38,2.16.57,3.4,3.26.44.95,1.47,1.83,2.43,2.58.22.17.44.34.64.5h0c1.39,1.1,2.19,1.86-.29,2.09-1.13.11-2.2-.17-3.13-.7-.26-.14-.5-.31-.73-.49-2.23-1.72-3.4-4.92-2.31-7.25ZM240.15,257.42c-15.44,6.76-33.42-.28-40.18-15.72-6.76-15.43.28-33.42,15.72-40.18,15.44-6.76,33.43.28,40.18,15.72,6.76,15.44-.28,33.42-15.72,40.18Z" fill="#f7e0c9"/>
            <path d="M170.33,150.52l-5.56,9.75s0,.02-.01.02c-.27.51.32,1.05.8.72l14.54-9.85c.45-.31.23-1.02-.32-1.01l-8.98.08c-.2,0-.38.11-.48.28Z" fill="#f7e0c9"/>
            <path d="M163.5,155.29s0,.09.02.13c.08.3.14.59.2.88.1.5.77.6,1.02.16l14.66-25.72c.29-.51-.3-1.06-.79-.73l-15.37,10.23c-.16.11-.25.29-.25.48l.44,12.61c.05.67.06,1.33.06,1.96Z" fill="#f7e0c9"/>
            <path d="M141.66,165.77s-.03-.02-.05-.03l-9.32-6.2c-.16-.11-.37-.12-.55-.04l-8.06,3.95c-.49.24-.37.97.17,1.04l17.41,2.27c.57.07.86-.67.39-1Z" fill="#f7e0c9"/>
            <path d="M141.16,161.88c-.52-.91-1.01-1.89-1.46-2.96l-5.25-11.44c-.08-.17-.24-.29-.44-.32l-18.32-2.24c-.58-.07-.86.69-.37,1.01l25.06,16.68c.49.32,1.08-.23.79-.73Z" fill="#f7e0c9"/>
            <path d="M142.52,136.16l4.79,3.89c.28.23.7.13.85-.2l2.53-5.63c.07-.15.06-.32,0-.47l-7.52-15.39c-.26-.53-1.06-.34-1.05.25l.19,17.13c0,.16.08.32.2.42Z" fill="#f7e0c9"/>
            <path d="M141.45,158.15c.03.07.06.14.1.22-.06-2.7.7-5.64,2.29-8.92l3.04-6.75c.1-.23.04-.5-.16-.66l-18.38-14.93c-.45-.37-1.1.13-.85.66l13.96,30.38Z" fill="#f7e0c9"/>
            <path d="M143.73,160.51c.81,3.51,3.08,5.99,5.94,6.47.58.1,1.17.21,1.75.34,2.83.63,5.87-.81,7.95-3.75,1.73-2.45,2.46-5.87,2.17-10.15l-1.17-33.44c-.02-.58-.82-.74-1.06-.21l-13.73,30.49c-1.92,3.97-2.52,7.31-1.85,10.25Z" fill="#f7e0c9"/>
            <path d="M317.15,167.85c.29.14.63.09.87-.12h0s6.28-3.03,6.28-3.03c3.63-1.75,6.19-5.16,6.85-9.1,1.85-11.14-5.51-16.97-10.45-19.57-.67-.38-1.39-.75-2.16-1.11-12.26-5.53-26.71-6.31-37.83,2.2-2.83,2.16-5.33,4.76-7.27,7.75-.05.08-.25.4-.29.47,0,0,0,0,0,0-.3.42-.11,1.01.35,1.24,12.88,6.32,30.89,15.21,43.52,21.2l.13.06ZM329.13,149.23c.36,1.88.37,3.89.01,6.03-.55,3.29-2.69,6.13-5.73,7.6l-1.05.51c3.87-4.46,6.52-9.41,6.76-14.14ZM316.14,165.11c-4.74-2.27-10.13-4.83-15.66-7.43.88.04,1.76.09,2.62.14,2.74.16,5.57.33,8.47.03.55-.06.99-.53.96-1.07-.03-.59-.55-1.02-1.12-.96-2.74.29-5.51.13-8.18-.03-1.41-.08-2.85-.16-4.3-.19,2.61-.95,5.15-1.92,7.62-2.87,4.47-1.71,8.7-3.33,13.22-4.82.51-.17.85-.68.73-1.2-.13-.6-.75-.93-1.31-.75-4.59,1.51-8.85,3.14-13.37,4.87-3.1,1.18-6.3,2.41-9.59,3.58-.13.02-.28.02-.44.01,0-.02,0-.04,0-.06l7.85-7.65c.4-.39.41-1.04.02-1.44-.39-.4-1.04-.41-1.44-.02l-8.42,8.21,2.58-8.23c.17-.54-.13-1.11-.67-1.28-.55-.18-1.11.13-1.28.67l-2.66,8.49-2.79-7.65c-.18-.5-.71-.82-1.22-.69-.59.15-.91.77-.71,1.34l2.32,6.36c-4.85-2.27-9.53-4.45-13.7-6.39-.22-.1-.29-.38-.14-.57,2.3-3.08,5.22-5.71,8.5-7.71l1.51,4.15c.12.32.38.55.68.63.2.06.43.05.64-.03.53-.2.77-.82.57-1.36l-1.61-4.41c.28-.14.55-.28.83-.42,3.56-1.73,7.38-2.62,11.27-2.84l-2.05,6.54c-.17.54.13,1.11.67,1.28.01,0,.02,0,.03,0,.53.15,1.08-.15,1.25-.68l2.26-7.2c4.11.02,8.24.76,12.14,2.04l-6.36,6.2c-.4.39-.41,1.04-.02,1.44.13.13.29.22.45.27.34.09.72.01.99-.25l7.1-6.92c4.27,1.54,8.41,3.62,10.83,7.51,0,0,0,0,0,0-.6.21-1.19.43-1.79.64-.49.18-.81.68-.69,1.19.09.39.38.67.72.76.2.06.41.05.62-.02.65-.24,1.31-.47,1.97-.7,1.1,3.38.26,6.98-1.46,10.36l-8.53-.11c-.55,0-1.05.4-1.09.95-.03.5.29.92.74,1.05.08.02.17.04.26.04l7.48.1c-1.55,2.5-3.48,4.82-5.31,6.75-.51.54-1.31.68-1.98.36Z" fill="#f7e0c9"/>
            <path d="M175.47,274.7c-4.59-4.45-10.03-8.14-16.13-10.16-3.08-1.01-6.28-1.68-9.55-1.45-4.31.36-8.28,2.65-11.25,5.84-2.48,2.03-4.47,4.63-6.11,7.37-.27.5-.66,1.16-.84,1.68-.9,2.3-1.64,4.66-1.71,7.14-.08,2.51.35,4.92.73,7.18.12.65.31,1.93.44,2.58.52,2.69,1.5,5.17,2.45,7.71.84,2.27,2.06,4.65,3.63,6.53,1.17,1.45,2.46,2.7,3.81,3.93,1.38,1.24,2.74,2.41,4.4,3.39,4.3,2.5,9.34,3.05,14.22,3.22,6.1.13,12.14-2.51,16.41-6.8,2.52-2.48,4.81-5.23,6.45-8.39,1.67-3.14,2.56-6.68,2.65-10.23.07-.9.06-1.82-.03-2.8-.59-6.68-4.9-12.25-9.56-16.74ZM177.2,309.22c-3.75,4.17-8.6,7.14-14.28,7.52-2.19.17-4.35-.13-6.52-.51-3.14-.55-6.47-1.4-9.09-3.06-1.76-1.11-3.41-2.73-4.96-4.17-1.58-1.53-3-3.11-4-4.9-1.05-1.87-1.85-4.06-2.68-6.07-.88-2.1-1.39-4.18-1.84-6.38-.53-2.25-1.04-4.4-1.1-6.52-.06-1.57.18-3.16.55-4.69-.11,1.33-.09,2.68.05,4.01.87,8.23,5.71,15.37,10.84,21.58,3.37,4.11,7.36,7.22,12.75,8.11,8.5,1.58,17.09-2.65,22.69-8.85.87-.92,1.65-1.85,2.33-2.8-1.2,2.48-2.84,4.74-4.74,6.74ZM180.14,299.65c-5.11,6.88-13.77,12.24-22.55,10.66-6.21-.98-9.91-5.54-13.66-10.18-3.73-4.74-7.04-10-8-16.01-.45-2.93-.28-5.96.78-8.7,2.13-5.43,7.25-10.25,13.19-10.91,9.25-.59,18.11,5.01,24.31,11.45,3.19,3.31,6.05,6.96,7.45,11.34,1.33,4.09,1.04,8.82-1.53,12.35Z" fill="#f7e0c9"/>
            <path d="M174.62,283.3c.23-1.05-.07-2.91-2.24-6.15-2.82-4.19-5.39-6.3-7.65-6.28-1.39.01-2.26.82-2.67,1.33-1.76-3.7-6.71-3.82-10.85-3.92h-.21c-1.24-.04-1.75.62-1.94,1.01-.12.25-.22.55-.22.97-.09-.02-.19-.04-.28-.05-1.83-.23-3.86,1.11-4.76,1.94l-.14.12c-1.16,1.05-3.87,3.5-4.14,9.72-.05,1.1.35,2.05,1.19,2.83.8.75,1.97,1.28,3.34,1.65-.25.18-.49.39-.69.64-.99,1.19-1.18,2.9-.59,5.24,1.48,5.88,3.99,7.24,7.48,9.13,1.32.71,2.82,1.52,4.5,2.71.99.69,1.83.86,2.49.78.38-.04.71-.16.97-.3.47-.25.87-.66,1.23-1.18.14,1.67.76,3.12,2.61,3.68,1.61.5,3.08.61,4.41.46,4.07-.45,6.82-3.32,8.34-4.9,1.41-1.47,1.87-3.63,1.17-5.51-.2-.53-.49-1.11-.93-1.69.62.09,1,.13,1.02.13.16.01.42.03.73,0,.47-.05,1.06-.23,1.53-.76.87-.97,1.04-2.72.53-5.52-.71-3.92-2.86-5.49-4.22-6.11ZM162.53,282.81c.25-3.94.6-8.62.8-9.44.2-.28.65-.77,1.42-.77.92,0,2.96.7,6.21,5.52,2.22,3.29,2.05,4.58,1.94,4.9l-7.77,2.53c-.83.2-1.44.3-1.7.24,0,0,.06.01.13.07l-.09.12c-.22-.55-.59-1.04-1.05-1.41.01-.17.06-.72.11-1.75ZM150.59,270.05s.08-.06.36-.05h.21c5.98.15,9.9.62,9.84,5.68-.04,3.32-.12,5.59-.18,6.99-.02.35-.04.73-.07,1.11-.39-.11-.77-.19-1.19-.25-.39-.06-.74-.05-1.05.02-.76-.97-2.7-3.49-4.47-6.16-4.13-6.21-3.45-7.33-3.45-7.34ZM141.86,283.58c-.47-.43-.67-.91-.65-1.5.24-5.5,2.49-7.54,3.58-8.52l.15-.13c.72-.66,2.27-1.65,3.39-1.51.41.05.71.25.97.64l.05-.03c.54,1.38,1.58,3.31,3.43,6.06,1.91,2.85,3.96,5.48,4.56,6.23-.01.15,0,.32.02.49-1.5.14-3.65.27-5.9.25-.18-.01-.37-.02-.56-.03-.82-.05-1.7-.1-2.57-.1-2.76-.22-5.27-.76-6.46-1.86ZM159.76,295.15c-.32,3.81-1.07,7.32-2.39,8.03-.16.08-.63.34-1.65-.38-1.77-1.24-3.31-2.07-4.67-2.81-3.44-1.86-5.34-2.89-6.63-8.03-.44-1.75-.35-3,.25-3.73.5-.6,1.39-.89,2.42-1,.32-.04.66-.05,1.01-.06,1.24.11,2.49.14,3.69.14.47.02.92.04,1.33.02,2.41-.07,3.87-.21,4.63-.3.35.59,1.02,1.49,2.17,2.3-.08,2.84-.12,4.66-.15,5.82ZM158.94,285.45c-.11-.22-.17-.45-.17-.52,0,0,0,0,0-.01,0,0,.01,0,.02,0,.53-.14,1.29.04,1.85.18.83.16,1.37.74,1.42,1.46h-.03s.03.11.03.11c0,.19-.04.39-.11.59-.15.54-.51.53-.97.34-.9-.4-1.61-1.24-2.03-2.14ZM173.55,301.57c-2.65,2.76-5.9,5.57-11.01,3.98-1.64-.5-1.56-2.43-1.25-5.33.12-1.12.23-2.17.16-3.11,0-.13.01-.68.03-1.46.21-2.34.22-4.57.2-5.91.12,0,.23-.02.33-.03.06.08.12.16.2.25.38.47.83.91,1.32,1.31,1.25,1.05,3.23,2.26,6.19,3.08.38.12.76.23,1.13.33,1.79.61,2.97,1.68,3.52,3.16.47,1.26.15,2.72-.8,3.72ZM177.03,293.79c-.16.18-.39.23-.86.2-.69-.05-2.63-.33-4.85-.94-.25-.08-.51-.16-.78-.23-.08-.02-.15-.04-.23-.06-1.93-.6-3.96-1.46-5.47-2.61-.71-.57-1.17-1.08-1.44-1.42.18-.29.36-.62.46-.95l1.81-.59c1.58-.36,4-1.1,7.72-2.5.69.19,3.05,1.14,3.76,5.04.53,2.96.09,3.83-.12,4.07Z" fill="#f7e0c9"/>
            <path d="M331.5,287.96c-.15-.98-.47-1.9-.72-2.86-.27-1.01-.39-2.05-.52-3.08-.14-1.09-.28-2.18-.61-3.24-.14-.45-.27-.9-.38-1.36-.38-1.49-.74-2.98-1.21-4.44-.25-.77-.53-1.54-.89-2.27-.14-.29-.3-.58-.49-.85-.15-.42-.44-.77-.92-.89-.59-.14-1.3.02-1.91-.01-1.22-.06-2.36-.29-3.66-.66-2.89-.82-5.56-2.08-8.2-3.53-2.49-1.37-4.9-2.91-7.2-4.59-.45-.33-.9-.78-1.45-.94-.47-.14-.99-.09-1.44.08-1.09.41-1.98,1.23-2.82,2-.44.41-.87.82-1.31,1.23-.2.19-.4.37-.61.55-.09.08-.18.16-.28.24-.04.04-.09.07-.14.11-.01,0-.02.01-.02.02,0,0-.01,0-.02.02-.18.12-.35.23-.53.34-.03.02-.07.03-.1.05-.23.07-.46.18-.67.3-.79.43-1.49,1.1-2.14,1.71-1.28,1.2-2.31,2.62-3.38,4.01-.83,1.08-1.73,2.08-2.7,3.04-.96.96-1.94,1.91-2.79,2.98-.79.99-1.6,2.1-1.82,3.38-.07.38-.08.77-.03,1.15-.39,2.32.31,4.57.87,6.81.26,1.06.46,1.98.47,3.03.02,1.35.19,2.7.45,4.02.5,2.56,1.39,5.03,2.32,7.46.24.62.48,1.24.72,1.86.23.6.43,1.23.81,1.76.8,1.11,2.23,1.52,3.43,2.04,2.56,1.11,5.12,2.22,7.67,3.34,1.11.49,2.22,1.01,3.17,1.79.98.81,1.91,1.58,3.15,1.96,1.21.37,2.52.39,3.78.37.67-.01,1.35-.05,1.97-.23,1.66-.08,3.07-1.13,4.24-2.23,1.25-1.18,2.32-2.53,3.45-3.82,1.33-1.51,2.76-2.91,4.08-4.44,1.41-1.63,2.75-3.34,3.8-5.22.49-.87.87-1.79,1.27-2.7.18-.42.39-.84.66-1.21.31-.42.7-.78,1.04-1.16.73-.8,1.31-1.69,1.57-2.75.25-1.05.21-2.11.04-3.17ZM284.66,279.83c0,.07.04-.23.06-.3.03-.12.07-.23.11-.35,0-.01.01-.04.02-.06.02-.04.04-.08.06-.12.13-.26.27-.51.43-.75.64-1,1.49-1.9,2.4-2.82.81-.82,1.65-1.6,2.41-2.47,1.08-1.24,2.01-2.6,3.06-3.86.53-.63,1.09-1.24,1.69-1.8.55-.5,1.11-1.06,1.79-1.37.97-.44,1.75-1.07,2.53-1.79.81-.75,1.58-1.54,2.45-2.22.04-.03.16-.12.19-.14.09-.06.18-.13.28-.19.09-.06.18-.11.27-.16.04-.02.08-.04.12-.06.08-.02.16-.04.23-.07,0,0,0,0,0,0,0,0,0,0,0,0,0,0,0,0,.02.01.91.77,1.94,1.44,2.93,2.11,1.16.79,2.35,1.54,3.55,2.25,2.56,1.51,5.22,2.86,8,3.91,2.33.88,4.87,1.58,7.38,1.52,0,.03,0,.07-.01.1-.02.14-.04.27-.07.4-.05.31-.1.61-.14.92,0,0,0,0,0,0-.06.09-.13.18-.19.27-.03.04-.05.07-.08.11-.02.02-.04.05-.05.07-.3.39-.65.76-.92,1.18-.38.58-.65,1.24-1,1.84-.4.68-.84,1.34-1.3,1.99-.92,1.3-1.93,2.52-2.99,3.71-2.17,2.44-4.51,4.71-6.75,7.07-.38.41-.76.82-1.14,1.23-3.72-1.49-7.37-3.19-10.92-5.06-1.84-.97-3.61-2.04-5.42-3.06-1.29-.73-2.82-1.03-4.27-1.22-1.52-.21-3.1-.31-4.62-.07,0-.02,0-.03-.01-.05-.04-.1-.06-.21-.09-.31,0,0,0,0,0-.01,0-.04,0-.07,0-.11,0-.09,0-.17,0-.26ZM311.61,311.56c-.02.07-.04.15-.06.22,0,0-.07.18-.08.2-.04.08-.09.17-.14.25-.12.19-.06.08-.03.05-.24.29-.5.41-.97.46-1.05.1-2.22.1-3.27-.06-1.14-.18-1.99-.69-2.86-1.42-.92-.77-1.88-1.41-2.97-1.92-2.33-1.1-4.72-2.08-7.09-3.1-1.15-.5-2.33-.97-3.46-1.51-.46-.22-.73-.43-.95-.9-.25-.54-.44-1.12-.65-1.68-.88-2.28-1.75-4.57-2.35-6.94-.33-1.29-.57-2.6-.66-3.92-.08-1.23-.1-2.41-.36-3.62-.34-1.58-.97-3.28-1.13-4.92.1,0,.21,0,.31-.02.04,0,.3-.05.31-.06.1-.01.21-.02.31-.03.36-.03.71-.04,1.07-.04.76,0,1.53.05,2.28.14.57.07,1.37.21,2.03.38.32.08.63.17.94.28.05.02.27.11.3.11.12.05.24.11.36.18,1.8.98,3.54,2.06,5.35,3.02,1.83.97,3.69,1.9,5.57,2.77,2.01.94,4.05,1.81,6.12,2.63.02.08.05.17.08.25.87,1.97,1.42,4.15,1.48,6.3.03,1.13-.12,2.19-.39,3.29-.3,1.2-.63,2.45-.52,3.7.1,1.2.58,2.26,1,3.36.18.47.36.96.44,1.46,0,.03.02.23.02.23,0,.08,0,.16,0,.23,0,.32-.01.41-.07.64ZM328.96,291.63c-.52.85-1.34,1.49-1.92,2.29-.58.8-.87,1.75-1.28,2.63-1.67,3.62-4.47,6.57-7.18,9.43-1.27,1.34-2.41,2.78-3.67,4.12-.35.37-.73.75-1.11,1.09,0-.13,0-.26,0-.39-.03-1.2-.52-2.28-.95-3.38-.22-.57-.45-1.17-.52-1.79-.07-.65.02-1.31.16-1.95.31-1.44.71-2.83.75-4.31.07-2.72-.62-5.45-1.7-7.93,4.43-4.85,9.59-9.21,12.82-15,.19-.33.36-.67.53-1.01.04-.08.08-.15.13-.22,0-.01.01-.02.02-.03,0,0,.02-.02.05-.06.34-.42.68-.84.99-1.28.34,1.09.63,2.21.91,3.32.3,1.19.7,2.37.93,3.57.19.99.28,2,.42,3,.15,1.03.4,2.01.69,3.02.45,1.59.83,3.4-.07,4.89Z" fill="#f7e0c9"/>
            <path d="M246.33,301.75c-.76-.07-18.57-1.8-19.59-19.75,0-.09,0-.14,0-.17-.03-.49-.45-.85-.94-.83-.49.03-.86.44-.83.93,0,.03,0,.05,0,.08.04.85.3,9.58-4.93,15.22-2.98,3.22-7.24,4.87-12.64,4.92-.48,0-.87.39-.88.87-.01.48.36.88.84.91.76.04,18.62,1.21,19.29,20.77.02.48.41.86.89.86.01,0,.02,0,.03,0,.49-.02.87-.43.86-.92h0c-.03-.86-.45-20.25,17.88-21.13.47-.02.84-.4.84-.87,0-.47-.35-.86-.81-.9ZM227.43,318.03c-2.58-9.22-9.61-13.1-14.6-14.72,3.42-.83,6.26-2.45,8.5-4.87,2.8-3.02,4.16-6.74,4.82-9.9,2.9,8.67,10.26,12.38,15.2,13.92-9.13,2.37-12.6,9.91-13.92,15.56Z" fill="#f7e0c9"/>
            <path d="M154.63,236.4c.13.36.47.6.84.6.08,0,.16-.01.24-.03.45-.12.73-.58.63-1.03-.15-.75-3.55-18.31,13.37-24.4.08-.03.13-.05.16-.06.46-.17.69-.68.53-1.13-.17-.46-.67-.7-1.13-.53-.03,0-.05.02-.07.03-.79.28-9.1,3.01-16-.4-3.93-1.95-6.73-5.55-8.31-10.72-.14-.46-.62-.72-1.08-.6-.46.13-.74.6-.63,1.06.18.74,4.09,18.21-14.43,24.4-.46.16-.72.66-.56,1.12.15.46.66.72,1.12.56.79-.26,19.29-6.17,25.34,11.14Z" fill="#f7e0c9"/>
            <path d="M296.07,238.66c.31.35.84.4,1.21.11.15-.12,14.84-11.29,27.79,1.23.06.06.1.1.12.12.17.16.39.24.61.24.23,0,.47-.09.64-.27.34-.35.33-.91-.02-1.25-.02-.02-.04-.04-.06-.05-.6-.59-6.72-6.84-6.7-14.54.01-4.39,2.01-8.49,5.95-12.19.35-.33.37-.87.06-1.23-.31-.36-.86-.4-1.23-.1-.59.48-14.54,11.7-28.26-2.19,0,0,0,0,0,0h0c-.34-.35-.9-.35-1.26,0-.35.34-.35.91,0,1.26,0,0,0,0,0,0,0,0,0,0,0,0,.61.62,14.05,14.58,1.18,27.65-.33.33-.34.86-.03,1.21Z" fill="#f7e0c9"/>
            <path d="M213.08,147.83c.7.06,17.13,1.64,18.14,18.65,0,.08,0,.14,0,.16.03.5.45.89.95.89.02,0,.04,0,.06,0,.52-.03.92-.48.9-1.01,0-.03,0-.05,0-.08-.04-.81-.32-9.24,4.63-14.6,2.73-2.96,6.59-4.49,11.48-4.55.52,0,.93-.42.94-.94,0-.52-.39-.95-.91-.97-.7-.03-17.17-1.08-17.86-19.62-.02-.53-.45-.91-.99-.92-.53.02-.94.46-.92.99h0c.03.85.47,19.19-16.4,20.09-.5.03-.9.44-.9.94s.37.92.88.97ZM230.59,132.65c2.48,8.26,8.65,11.88,13.21,13.45-2.97.81-5.46,2.3-7.45,4.46-2.56,2.78-3.86,6.21-4.51,9.19-2.77-7.77-9.22-11.22-13.75-12.72,8.02-2.33,11.22-9.1,12.5-14.38Z" fill="#f7e0c9"/>
          </g>
        </g>
        <g>
          <rect x="-111.67" y="0" width="223.35" height="223.35" fill="#fffce5"/>
          <g opacity=".54">
            <path d="M24.18,108.47c-1.64-.5-3.18.56-4.97,1.79-1,.69-2.04,1.4-3.09,1.83-1.37.57-4.09-.06-6.49-.62-3.03-.7-5.9-1.37-8.03-.43h0c-2.13.93-3.59,3.49-5.13,6.19-1.22,2.14-2.6,4.56-3.95,5.18-1.03.47-2.25.75-3.44,1.02-2.11.48-3.94.9-4.68,2.44-.41.85-.36,1.81.14,2.86,1.21,2.53,6,3.99,10.08,4.51,3.27.42,9.68.72,15.84-1.97,6.16-2.69,10.28-7.61,12.19-10.3,2.39-3.36,4.57-7.87,3.53-10.47-.43-1.08-1.11-1.77-2.01-2.04ZM9.2,128.39c-3.74,1.64-8.52,2.3-13.25,1.84,1.26-.71,2.49-1.57,3.75-2.44,2.18-1.52,4.43-3.09,7.33-4.35h0c2.9-1.27,5.58-1.86,8.17-2.43,1.49-.33,2.95-.65,4.33-1.1-2.87,3.78-6.59,6.85-10.34,8.48ZM22.68,114.56c-1.93,1.99-4.68,2.6-8.16,3.36-2.61.58-5.58,1.23-8.76,2.62h0c-3.18,1.39-5.67,3.12-7.87,4.65-2.92,2.03-5.23,3.64-8.01,3.71-1.5-.57-2.34-1.17-2.51-1.53-.03-.06-.05-.11-.06-.15.45-.26,1.65-.53,2.47-.72,1.28-.29,2.73-.62,4.05-1.23,2.27-1.04,3.84-3.81,5.37-6.49,1.16-2.04,2.48-4.35,3.66-4.87h0c1.18-.51,3.77.09,6.06.62,3,.7,6.1,1.42,8.41.46,1.35-.56,2.58-1.4,3.66-2.14.69-.47,1.7-1.17,2.2-1.32.02.04.04.09.07.15.15.37.02,1.39-.58,2.88Z" fill="#f7e0c9"/>
            <path d="M17.9,110.18c2.32-1.93,2.75-5.41,1.28-8.5.73-.96,1.22-2.38.48-3.43-.03-.05-.12-.02-.12.04.02.79-.54,1.37-1.2,1.67-.05.02-.11.05-.17.07-.09-.12-.19-.25-.29-.37-2.86-3.44-7.49-4.31-10.34-1.93-2.85,2.37-2.85,7.08.01,10.52,2.86,3.44,7.49,4.31,10.34,1.93ZM15.74,104.64c.03-.18.15-.34.24-.51.09-.17.17-.35.25-.53.16-.34.35-.64.74-.76.35-.1.66.03.85.27.51.6.42,1.52-.19,2.03-.32.27-.76.52-1.16.49-.34-.03-.55-.3-.67-.58-.06-.13-.09-.27-.06-.42ZM12.28,99.89c.74-.63,2-.37,2.8.58.8.95.85,2.23.1,2.86-.74.63-2,.37-2.8-.59-.8-.95-.85-2.23-.1-2.86Z" fill="#f7e0c9"/>
            <path d="M17.18,84.66c-2.87-1.1-5.84-1.81-8.82-2.13-4.18-.45-8.42-.14-12.53.92-.84-.78-1.96-1.89-2.73-2.9-.47-.62-.46-1.47.02-2.08l2.47-3.12c.2-.25,0-.54-.3-.41l-2.73,1.15c-1.15.49-2.37.34-3.2-.37l-2.98-2.56c-.17-.21-.51-.04-.49.25l-.4,4.04c-.11,1.05-.76,1.94-1.68,2.33l-1.97.83c-.2.08-.16.37.06.42l2.2.51c.71.16,1.23.77,1.3,1.49.09.98.41,2.46,1.35,4.13-4.2,2.43-7.81,5.65-10.65,9.48-1.79,2.41-3.28,5.07-4.42,7.93-3.47,8.66-3.33,18.11.38,26.6,3.57,8.15,10.02,14.48,18.25,17.92.34.14.68.28,1.03.41.59.23,1.19.44,1.78.63,8.21,2.65,17.02,2.2,25.04-1.3,8.01-3.51,14.32-9.68,17.94-17.51.26-.57.51-1.15.75-1.74.14-.34.27-.69.4-1.03,3.05-8.38,2.79-17.41-.78-25.57-3.71-8.49-10.56-15-19.28-18.33ZM-12.64,78.4c1.11-2.38,2.16.57,3.4,3.26.44.95,1.47,1.83,2.43,2.58.22.17.44.34.64.5h0c1.39,1.1,2.19,1.86-.29,2.09-1.13.11-2.2-.17-3.13-.7-.26-.14-.5-.31-.73-.49-2.23-1.72-3.4-4.92-2.31-7.25ZM16.8,145.75c-15.44,6.76-33.42-.28-40.18-15.72-6.76-15.43.28-33.42,15.72-40.18,15.44-6.76,33.43.28,40.18,15.72,6.76,15.44-.28,33.42-15.72,40.18Z" fill="#f7e0c9"/>
            <path d="M93.8,56.17c.29.14.63.09.87-.12h0s6.28-3.03,6.28-3.03c3.63-1.75,6.19-5.16,6.85-9.1,1.85-11.14-5.51-16.97-10.45-19.57-.67-.38-1.39-.75-2.16-1.11-12.26-5.53-26.71-6.31-37.83,2.2-2.83,2.16-5.33,4.76-7.27,7.75-.05.08-.25.4-.29.47,0,0,0,0,0,0-.3.42-.11,1.01.35,1.24,12.88,6.32,30.89,15.21,43.52,21.2l.13.06ZM105.78,37.56c.36,1.88.37,3.89.01,6.03-.55,3.29-2.69,6.13-5.73,7.6l-1.05.51c3.87-4.46,6.52-9.41,6.76-14.14ZM92.79,53.43c-4.74-2.27-10.13-4.83-15.66-7.43.88.04,1.76.09,2.62.14,2.74.16,5.57.33,8.47.03.55-.06.99-.53.96-1.07-.03-.59-.55-1.02-1.12-.96-2.74.29-5.51.13-8.18-.03-1.41-.08-2.85-.16-4.3-.19,2.61-.95,5.15-1.92,7.62-2.87,4.47-1.71,8.7-3.33,13.22-4.82.51-.17.85-.68.73-1.2-.13-.6-.75-.93-1.31-.75-4.59,1.51-8.85,3.14-13.37,4.87-3.1,1.18-6.3,2.41-9.59,3.58-.13.02-.28.02-.44.01,0-.02,0-.04,0-.06l7.85-7.65c.4-.39.41-1.04.02-1.44-.39-.4-1.04-.41-1.44-.02l-8.42,8.21,2.58-8.23c.17-.54-.13-1.11-.67-1.28-.55-.18-1.11.13-1.28.67l-2.66,8.49-2.79-7.65c-.18-.5-.71-.82-1.22-.69-.59.15-.91.77-.71,1.34l2.32,6.36c-4.85-2.27-9.53-4.45-13.7-6.39-.22-.1-.29-.38-.14-.57,2.3-3.08,5.22-5.71,8.5-7.71l1.51,4.15c.12.32.38.55.68.63.2.06.43.05.64-.03.53-.2.77-.82.57-1.36l-1.61-4.41c.28-.14.55-.28.83-.42,3.56-1.73,7.38-2.62,11.27-2.84l-2.05,6.54c-.17.54.13,1.11.67,1.28.01,0,.02,0,.03,0,.53.15,1.08-.15,1.25-.68l2.26-7.2c4.11.02,8.24.76,12.14,2.04l-6.36,6.2c-.4.39-.41,1.04-.02,1.44.13.13.29.22.45.27.34.09.72.01.99-.25l7.1-6.92c4.27,1.54,8.41,3.62,10.83,7.51,0,0,0,0,0,0-.6.21-1.19.43-1.79.64-.49.18-.81.68-.69,1.19.09.39.38.67.72.76.2.06.41.05.62-.02.65-.24,1.31-.47,1.97-.7,1.1,3.38.26,6.98-1.46,10.36l-8.53-.11c-.55,0-1.05.4-1.09.95-.03.5.29.92.74,1.05.08.02.17.04.26.04l7.48.1c-1.55,2.5-3.48,4.82-5.31,6.75-.51.54-1.31.68-1.98.36Z" fill="#f7e0c9"/>
            <path d="M108.15,176.28c-.15-.98-.47-1.9-.72-2.86-.27-1.01-.39-2.05-.52-3.08-.14-1.09-.28-2.18-.61-3.24-.14-.45-.27-.9-.38-1.36-.38-1.49-.74-2.98-1.21-4.44-.25-.77-.53-1.54-.89-2.27-.14-.29-.3-.58-.49-.85-.15-.42-.44-.77-.92-.89-.59-.14-1.3.02-1.91-.01-1.22-.06-2.36-.29-3.66-.66-2.89-.82-5.56-2.08-8.2-3.53-2.49-1.37-4.9-2.91-7.2-4.59-.45-.33-.9-.78-1.45-.94-.47-.14-.99-.09-1.44.08-1.09.41-1.98,1.23-2.82,2-.44.41-.87.82-1.31,1.23-.2.19-.4.37-.61.55-.09.08-.18.16-.28.24-.04.04-.09.07-.14.11-.01,0-.02.01-.02.02,0,0-.01,0-.02.02-.18.12-.35.23-.53.34-.03.02-.07.03-.1.05-.23.07-.46.18-.67.3-.79.43-1.49,1.1-2.14,1.71-1.28,1.2-2.31,2.62-3.38,4.01-.83,1.08-1.73,2.08-2.7,3.04-.96.96-1.94,1.91-2.79,2.98-.79.99-1.6,2.1-1.82,3.38-.07.38-.08.77-.03,1.15-.39,2.32.31,4.57.87,6.81.26,1.06.46,1.98.47,3.03.02,1.35.19,2.7.45,4.02.5,2.56,1.39,5.03,2.32,7.46.24.62.48,1.24.72,1.86.23.6.43,1.23.81,1.76.8,1.11,2.23,1.52,3.43,2.04,2.56,1.11,5.12,2.22,7.67,3.34,1.11.49,2.22,1.01,3.17,1.79.98.81,1.91,1.58,3.15,1.96,1.21.37,2.52.39,3.78.37.67-.01,1.35-.05,1.97-.23,1.66-.08,3.07-1.13,4.24-2.23,1.25-1.18,2.32-2.53,3.45-3.82,1.33-1.51,2.76-2.91,4.08-4.44,1.41-1.63,2.75-3.34,3.8-5.22.49-.87.87-1.79,1.27-2.7.18-.42.39-.84.66-1.21.31-.42.7-.78,1.04-1.16.73-.8,1.31-1.69,1.57-2.75.25-1.05.21-2.11.04-3.17ZM61.31,168.16c0,.07.04-.23.06-.3.03-.12.07-.23.11-.35,0-.01.01-.04.02-.06.02-.04.04-.08.06-.12.13-.26.27-.51.43-.75.64-1,1.49-1.9,2.4-2.82.81-.82,1.65-1.6,2.41-2.47,1.08-1.24,2.01-2.6,3.06-3.86.53-.63,1.09-1.24,1.69-1.8.55-.5,1.11-1.06,1.79-1.37.97-.44,1.75-1.07,2.53-1.79.81-.75,1.58-1.54,2.45-2.22.04-.03.16-.12.19-.14.09-.06.18-.13.28-.19.09-.06.18-.11.27-.16.04-.02.08-.04.12-.06.08-.02.16-.04.23-.07,0,0,0,0,0,0,0,0,0,0,0,0,0,0,0,0,.02.01.91.77,1.94,1.44,2.93,2.11,1.16.79,2.35,1.54,3.55,2.25,2.56,1.51,5.22,2.86,8,3.91,2.33.88,4.87,1.58,7.38,1.52,0,.03,0,.07-.01.1-.02.14-.04.27-.07.4-.05.31-.1.61-.14.92,0,0,0,0,0,0-.06.09-.13.18-.19.27-.03.04-.05.07-.08.11-.02.02-.04.05-.05.07-.3.39-.65.76-.92,1.18-.38.58-.65,1.24-1,1.84-.4.68-.84,1.34-1.3,1.99-.92,1.3-1.93,2.52-2.99,3.71-2.17,2.44-4.51,4.71-6.75,7.07-.38.41-.76.82-1.14,1.23-3.72-1.49-7.37-3.19-10.92-5.06-1.84-.97-3.61-2.04-5.42-3.06-1.29-.73-2.82-1.03-4.27-1.22-1.52-.21-3.1-.31-4.62-.07,0-.02,0-.03-.01-.05-.04-.1-.06-.21-.09-.31,0,0,0,0,0-.01,0-.04,0-.07,0-.11,0-.09,0-.17,0-.26ZM88.26,199.88c-.02.07-.04.15-.06.22,0,0-.07.18-.08.2-.04.08-.09.17-.14.25-.12.19-.06.08-.03.05-.24.29-.5.41-.97.46-1.05.1-2.22.1-3.27-.06-1.14-.18-1.99-.69-2.86-1.42-.92-.77-1.88-1.41-2.97-1.92-2.33-1.1-4.72-2.08-7.09-3.1-1.15-.5-2.33-.97-3.46-1.51-.46-.22-.73-.43-.95-.9-.25-.54-.44-1.12-.65-1.68-.88-2.28-1.75-4.57-2.35-6.94-.33-1.29-.57-2.6-.66-3.92-.08-1.23-.1-2.41-.36-3.62-.34-1.58-.97-3.28-1.13-4.92.1,0,.21,0,.31-.02.04,0,.3-.05.31-.06.1-.01.21-.02.31-.03.36-.03.71-.04,1.07-.04.76,0,1.53.05,2.28.14.57.07,1.37.21,2.03.38.32.08.63.17.94.28.05.02.27.11.3.11.12.05.24.11.36.18,1.8.98,3.54,2.06,5.35,3.02,1.83.97,3.69,1.9,5.57,2.77,2.01.94,4.05,1.81,6.12,2.63.02.08.05.17.08.25.87,1.97,1.42,4.15,1.48,6.3.03,1.13-.12,2.19-.39,3.29-.3,1.2-.63,2.45-.52,3.7.1,1.2.58,2.26,1,3.36.18.47.36.96.44,1.46,0,.03.02.23.02.23,0,.08,0,.16,0,.23,0,.32-.01.41-.07.64ZM105.61,179.95c-.52.85-1.34,1.49-1.92,2.29-.58.8-.87,1.75-1.28,2.63-1.67,3.62-4.47,6.57-7.18,9.43-1.27,1.34-2.41,2.78-3.67,4.12-.35.37-.73.75-1.11,1.09,0-.13,0-.26,0-.39-.03-1.2-.52-2.28-.95-3.38-.22-.57-.45-1.17-.52-1.79-.07-.65.02-1.31.16-1.95.31-1.44.71-2.83.75-4.31.07-2.72-.62-5.45-1.7-7.93,4.43-4.85,9.59-9.21,12.82-15,.19-.33.36-.67.53-1.01.04-.08.08-.15.13-.22,0-.01.01-.02.02-.03,0,0,.02-.02.05-.06.34-.42.68-.84.99-1.28.34,1.09.63,2.21.91,3.32.3,1.19.7,2.37.93,3.57.19.99.28,2,.42,3,.15,1.03.4,2.01.69,3.02.45,1.59.83,3.4-.07,4.89Z" fill="#f7e0c9"/>
            <path d="M22.98,190.08c-.76-.07-18.57-1.8-19.59-19.75,0-.09,0-.14,0-.17-.03-.49-.45-.85-.94-.83-.49.03-.86.44-.83.93,0,.03,0,.05,0,.08.04.85.3,9.58-4.93,15.22-2.98,3.22-7.24,4.87-12.64,4.92-.48,0-.87.39-.88.87-.01.48.36.88.84.91.76.04,18.62,1.21,19.29,20.77.02.48.41.86.89.86.01,0,.02,0,.03,0,.49-.02.87-.43.86-.92h0c-.03-.86-.45-20.25,17.88-21.13.47-.02.84-.4.84-.87,0-.47-.35-.86-.81-.9ZM4.08,206.35c-2.58-9.22-9.61-13.1-14.6-14.72,3.42-.83,6.26-2.45,8.5-4.87,2.8-3.02,4.16-6.74,4.82-9.9,2.9,8.67,10.26,12.38,15.2,13.92-9.13,2.37-12.6,9.91-13.92,15.56Z" fill="#f7e0c9"/>
            <path d="M72.72,126.98c.31.35.84.4,1.21.11.15-.12,14.84-11.29,27.79,1.23.06.06.1.1.12.12.17.16.39.24.61.24.23,0,.47-.09.64-.27.34-.35.33-.91-.02-1.25-.02-.02-.04-.04-.06-.05-.6-.59-6.72-6.84-6.7-14.54.01-4.39,2.01-8.49,5.95-12.19.35-.33.37-.87.06-1.23-.31-.36-.86-.4-1.23-.1-.59.48-14.54,11.7-28.26-2.19,0,0,0,0,0,0h0c-.34-.35-.9-.35-1.26,0-.35.34-.35.91,0,1.26,0,0,0,0,0,0,0,0,0,0,0,0,.61.62,14.05,14.58,1.18,27.65-.33.33-.34.86-.03,1.21Z" fill="#f7e0c9"/>
            <path d="M-10.27,36.15c.7.06,17.13,1.64,18.14,18.65,0,.08,0,.14,0,.16.03.5.45.89.95.89.02,0,.04,0,.06,0,.52-.03.92-.48.9-1.01,0-.03,0-.05,0-.08-.04-.81-.32-9.24,4.63-14.6,2.73-2.96,6.59-4.49,11.48-4.55.52,0,.93-.42.94-.94,0-.52-.39-.95-.91-.97-.7-.03-17.17-1.08-17.86-19.62-.02-.53-.45-.91-.99-.92-.53.02-.94.46-.92.99h0c.03.85.47,19.19-16.4,20.09-.5.03-.9.44-.9.94s.37.92.88.97ZM7.24,20.98c2.48,8.26,8.65,11.88,13.21,13.45-2.97.81-5.46,2.3-7.45,4.46-2.56,2.78-3.86,6.21-4.51,9.19-2.77-7.77-9.22-11.22-13.75-12.72,8.02-2.33,11.22-9.1,12.5-14.38Z" fill="#f7e0c9"/>
          </g>
        </g>
        <g>
          <rect x="111.67" y="-111.67" width="223.35" height="223.35" fill="#fffce5"/>
          <g opacity=".54">
            <path d="M247.53-3.2c-1.64-.5-3.18.56-4.97,1.79-1,.69-2.04,1.4-3.09,1.83-1.37.57-4.09-.06-6.49-.62-3.03-.7-5.9-1.37-8.03-.43h0c-2.13.93-3.59,3.49-5.13,6.19-1.22,2.14-2.6,4.56-3.95,5.18-1.03.47-2.25.75-3.44,1.02-2.11.48-3.94.9-4.68,2.44-.41.85-.36,1.81.14,2.86,1.21,2.53,6,3.99,10.08,4.51,3.27.42,9.68.72,15.84-1.97,6.16-2.69,10.28-7.61,12.19-10.3,2.39-3.36,4.57-7.87,3.53-10.47-.43-1.08-1.11-1.77-2.01-2.04ZM232.55,16.72c-3.74,1.64-8.52,2.3-13.25,1.84,1.26-.71,2.49-1.57,3.75-2.44,2.18-1.52,4.43-3.09,7.33-4.35h0c2.9-1.27,5.58-1.86,8.17-2.43,1.49-.33,2.95-.65,4.33-1.1-2.87,3.78-6.59,6.85-10.34,8.48ZM246.03,2.89c-1.93,1.99-4.68,2.6-8.16,3.36-2.61.58-5.58,1.23-8.76,2.62h0c-3.18,1.39-5.67,3.12-7.87,4.65-2.92,2.03-5.23,3.64-8.01,3.71-1.5-.57-2.34-1.17-2.51-1.53-.03-.06-.05-.11-.06-.15.45-.26,1.65-.53,2.47-.72,1.28-.29,2.73-.62,4.05-1.23,2.27-1.04,3.84-3.81,5.37-6.49,1.16-2.04,2.48-4.35,3.66-4.87h0c1.18-.51,3.77.09,6.06.62,3,.7,6.1,1.42,8.41.46,1.35-.56,2.58-1.4,3.66-2.14.69-.47,1.7-1.17,2.2-1.32.02.04.04.09.07.15.15.37.02,1.39-.58,2.88Z" fill="#f7e0c9"/>
            <path d="M213.27,10.75c3.68-.49,6.18-4.47,5.59-8.91-.59-4.43-4.04-7.63-7.72-7.15-3.68.49-6.18,4.47-5.59,8.91.02.15.05.31.07.46-.05.03-.11.05-.17.07-.67.29-1.48.31-2.04-.24-.04-.04-.12,0-.11.06.27,1.26,1.65,1.86,2.85,1.98,1.27,3.17,4.12,5.22,7.11,4.82ZM215.95,2.8c.31-.03.53.12.62.32.25.53-.08,1.2-.73,1.51-.34.16-.77.29-1.09.2-.27-.07-.36-.3-.39-.53-.01-.1,0-.22.07-.32.08-.13.22-.24.34-.35.12-.12.24-.24.36-.36.22-.23.47-.43.82-.47ZM212.74-1.88c.94-.24,1.97.6,2.28,1.87.32,1.27-.19,2.49-1.14,2.72-.94.24-1.97-.6-2.28-1.87-.32-1.27.19-2.49,1.14-2.72Z" fill="#f7e0c9"/>
            <path d="M240.53-27.01c-2.87-1.1-5.84-1.81-8.82-2.13-4.18-.45-8.42-.14-12.53.92-.84-.78-1.96-1.89-2.73-2.9-.47-.62-.46-1.47.02-2.08l2.47-3.12c.2-.25,0-.54-.3-.41l-2.73,1.15c-1.15.49-2.37.34-3.2-.37l-2.98-2.56c-.17-.21-.51-.04-.49.25l-.4,4.04c-.11,1.05-.76,1.94-1.68,2.33l-1.97.83c-.2.08-.16.37.06.42l2.2.51c.71.16,1.23.77,1.3,1.49.09.98.41,2.46,1.35,4.13-4.2,2.43-7.81,5.65-10.65,9.48-1.79,2.41-3.28,5.07-4.42,7.93-3.47,8.66-3.33,18.11.38,26.6,3.57,8.15,10.02,14.48,18.25,17.92.34.14.68.28,1.03.41.59.23,1.19.44,1.78.63,8.21,2.65,17.02,2.2,25.04-1.3,8.01-3.51,14.32-9.68,17.94-17.51.26-.57.51-1.15.75-1.74.14-.34.27-.69.4-1.03,3.05-8.38,2.79-17.41-.78-25.57-3.71-8.49-10.56-15-19.28-18.33ZM210.71-33.27c1.11-2.38,2.16.57,3.4,3.26.44.95,1.47,1.83,2.43,2.58.22.17.44.34.64.5h0c1.39,1.1,2.19,1.86-.29,2.09-1.13.11-2.2-.17-3.13-.7-.26-.14-.5-.31-.73-.49-2.23-1.72-3.4-4.92-2.31-7.25ZM240.15,34.07c-15.44,6.76-33.42-.28-40.18-15.72-6.76-15.43.28-33.42,15.72-40.18,15.44-6.76,33.43.28,40.18,15.72,6.76,15.44-.28,33.42-15.72,40.18Z" fill="#f7e0c9"/>
            <path d="M175.47,51.35c-4.59-4.45-10.03-8.14-16.13-10.16-3.08-1.01-6.28-1.68-9.55-1.45-4.31.36-8.28,2.65-11.25,5.84-2.48,2.03-4.47,4.63-6.11,7.37-.27.5-.66,1.16-.84,1.68-.9,2.3-1.64,4.66-1.71,7.14-.08,2.51.35,4.92.73,7.18.12.65.31,1.93.44,2.58.52,2.69,1.5,5.17,2.45,7.71.84,2.27,2.06,4.65,3.63,6.53,1.17,1.45,2.46,2.7,3.81,3.93,1.38,1.24,2.74,2.41,4.4,3.39,4.3,2.5,9.34,3.05,14.22,3.22,6.1.13,12.14-2.51,16.41-6.8,2.52-2.48,4.81-5.23,6.45-8.39,1.67-3.14,2.56-6.68,2.65-10.23.07-.9.06-1.82-.03-2.8-.59-6.68-4.9-12.25-9.56-16.74ZM177.2,85.87c-3.75,4.17-8.6,7.14-14.28,7.52-2.19.17-4.35-.13-6.52-.51-3.14-.55-6.47-1.4-9.09-3.06-1.76-1.11-3.41-2.73-4.96-4.17-1.58-1.53-3-3.11-4-4.9-1.05-1.87-1.85-4.06-2.68-6.07-.88-2.1-1.39-4.18-1.84-6.38-.53-2.25-1.04-4.4-1.1-6.52-.06-1.57.18-3.16.55-4.69-.11,1.33-.09,2.68.05,4.01.87,8.23,5.71,15.37,10.84,21.58,3.37,4.11,7.36,7.22,12.75,8.11,8.5,1.58,17.09-2.65,22.69-8.85.87-.92,1.65-1.85,2.33-2.8-1.2,2.48-2.84,4.74-4.74,6.74ZM180.14,76.3c-5.11,6.88-13.77,12.24-22.55,10.66-6.21-.98-9.91-5.54-13.66-10.18-3.73-4.74-7.04-10-8-16.01-.45-2.93-.28-5.96.78-8.7,2.13-5.43,7.25-10.25,13.19-10.91,9.25-.59,18.11,5.01,24.31,11.45,3.19,3.31,6.05,6.96,7.45,11.34,1.33,4.09,1.04,8.82-1.53,12.35Z" fill="#f7e0c9"/>
            <path d="M174.62,59.95c.23-1.05-.07-2.91-2.24-6.15-2.82-4.19-5.39-6.3-7.65-6.28-1.39.01-2.26.82-2.67,1.33-1.76-3.7-6.71-3.82-10.85-3.92h-.21c-1.24-.04-1.75.62-1.94,1.01-.12.25-.22.55-.22.97-.09-.02-.19-.04-.28-.05-1.83-.23-3.86,1.11-4.76,1.94l-.14.12c-1.16,1.05-3.87,3.5-4.14,9.72-.05,1.1.35,2.05,1.19,2.83.8.75,1.97,1.28,3.34,1.65-.25.18-.49.39-.69.64-.99,1.19-1.18,2.9-.59,5.24,1.48,5.88,3.99,7.24,7.48,9.13,1.32.71,2.82,1.52,4.5,2.71.99.69,1.83.86,2.49.78.38-.04.71-.16.97-.3.47-.25.87-.66,1.23-1.18.14,1.67.76,3.12,2.61,3.68,1.61.5,3.08.61,4.41.46,4.07-.45,6.82-3.32,8.34-4.9,1.41-1.47,1.87-3.63,1.17-5.51-.2-.53-.49-1.11-.93-1.69.62.09,1,.13,1.02.13.16.01.42.03.73,0,.47-.05,1.06-.23,1.53-.76.87-.97,1.04-2.72.53-5.52-.71-3.92-2.86-5.49-4.22-6.11ZM162.53,59.46c.25-3.94.6-8.62.8-9.44.2-.28.65-.77,1.42-.77.92,0,2.96.7,6.21,5.52,2.22,3.29,2.05,4.58,1.94,4.9l-7.77,2.53c-.83.2-1.44.3-1.7.24,0,0,.06.01.13.07l-.09.12c-.22-.55-.59-1.04-1.05-1.41.01-.17.06-.72.11-1.75ZM150.59,46.71s.08-.06.36-.05h.21c5.98.15,9.9.62,9.84,5.68-.04,3.32-.12,5.59-.18,6.99-.02.35-.04.73-.07,1.11-.39-.11-.77-.19-1.19-.25-.39-.06-.74-.05-1.05.02-.76-.97-2.7-3.49-4.47-6.16-4.13-6.21-3.45-7.33-3.45-7.34ZM141.86,60.23c-.47-.43-.67-.91-.65-1.5.24-5.5,2.49-7.54,3.58-8.52l.15-.13c.72-.66,2.27-1.65,3.39-1.51.41.05.71.25.97.64l.05-.03c.54,1.38,1.58,3.31,3.43,6.06,1.91,2.85,3.96,5.48,4.56,6.23-.01.15,0,.32.02.49-1.5.14-3.65.27-5.9.25-.18-.01-.37-.02-.56-.03-.82-.05-1.7-.1-2.57-.1-2.76-.22-5.27-.76-6.46-1.86ZM159.76,71.8c-.32,3.81-1.07,7.32-2.39,8.03-.16.08-.63.34-1.65-.38-1.77-1.24-3.31-2.07-4.67-2.81-3.44-1.86-5.34-2.89-6.63-8.03-.44-1.75-.35-3,.25-3.73.5-.6,1.39-.89,2.42-1,.32-.04.66-.05,1.01-.06,1.24.11,2.49.14,3.69.14.47.02.92.04,1.33.02,2.41-.07,3.87-.21,4.63-.3.35.59,1.02,1.49,2.17,2.3-.08,2.84-.12,4.66-.15,5.82ZM158.94,62.1c-.11-.22-.17-.45-.17-.52,0,0,0,0,0-.01,0,0,.01,0,.02,0,.53-.14,1.29.04,1.85.18.83.16,1.37.74,1.42,1.46h-.03s.03.11.03.11c0,.19-.04.39-.11.59-.15.54-.51.53-.97.34-.9-.4-1.61-1.24-2.03-2.14ZM173.55,78.22c-2.65,2.76-5.9,5.57-11.01,3.98-1.64-.5-1.56-2.43-1.25-5.33.12-1.12.23-2.17.16-3.11,0-.13.01-.68.03-1.46.21-2.34.22-4.57.2-5.91.12,0,.23-.02.33-.03.06.08.12.16.2.25.38.47.83.91,1.32,1.31,1.25,1.05,3.23,2.26,6.19,3.08.38.12.76.23,1.13.33,1.79.61,2.97,1.68,3.52,3.16.47,1.26.15,2.72-.8,3.72ZM177.03,70.44c-.16.18-.39.23-.86.2-.69-.05-2.63-.33-4.85-.94-.25-.08-.51-.16-.78-.23-.08-.02-.15-.04-.23-.06-1.93-.6-3.96-1.46-5.47-2.61-.71-.57-1.17-1.08-1.44-1.42.18-.29.36-.62.46-.95l1.81-.59c1.58-.36,4-1.1,7.72-2.5.69.19,3.05,1.14,3.76,5.04.53,2.96.09,3.83-.12,4.07Z" fill="#f7e0c9"/>
            <path d="M331.5,64.61c-.15-.98-.47-1.9-.72-2.86-.27-1.01-.39-2.05-.52-3.08-.14-1.09-.28-2.18-.61-3.24-.14-.45-.27-.9-.38-1.36-.38-1.49-.74-2.98-1.21-4.44-.25-.77-.53-1.54-.89-2.27-.14-.29-.3-.58-.49-.85-.15-.42-.44-.77-.92-.89-.59-.14-1.3.02-1.91-.01-1.22-.06-2.36-.29-3.66-.66-2.89-.82-5.56-2.08-8.2-3.53-2.49-1.37-4.9-2.91-7.2-4.59-.45-.33-.9-.78-1.45-.94-.47-.14-.99-.09-1.44.08-1.09.41-1.98,1.23-2.82,2-.44.41-.87.82-1.31,1.23-.2.19-.4.37-.61.55-.09.08-.18.16-.28.24-.04.04-.09.07-.14.11-.01,0-.02.01-.02.02,0,0-.01,0-.02.02-.18.12-.35.23-.53.34-.03.02-.07.03-.1.05-.23.07-.46.18-.67.3-.79.43-1.49,1.1-2.14,1.71-1.28,1.2-2.31,2.62-3.38,4.01-.83,1.08-1.73,2.08-2.7,3.04-.96.96-1.94,1.91-2.79,2.98-.79.99-1.6,2.1-1.82,3.38-.07.38-.08.77-.03,1.15-.39,2.32.31,4.57.87,6.81.26,1.06.46,1.98.47,3.03.02,1.35.19,2.7.45,4.02.5,2.56,1.39,5.03,2.32,7.46.24.62.48,1.24.72,1.86.23.6.43,1.23.81,1.76.8,1.11,2.23,1.52,3.43,2.04,2.56,1.11,5.12,2.22,7.67,3.34,1.11.49,2.22,1.01,3.17,1.79.98.81,1.91,1.58,3.15,1.96,1.21.37,2.52.39,3.78.37.67-.01,1.35-.05,1.97-.23,1.66-.08,3.07-1.13,4.24-2.23,1.25-1.18,2.32-2.53,3.45-3.82,1.33-1.51,2.76-2.91,4.08-4.44,1.41-1.63,2.75-3.34,3.8-5.22.49-.87.87-1.79,1.27-2.7.18-.42.39-.84.66-1.21.31-.42.7-.78,1.04-1.16.73-.8,1.31-1.69,1.57-2.75.25-1.05.21-2.11.04-3.17ZM284.66,56.48c0,.07.04-.23.06-.3.03-.12.07-.23.11-.35,0-.01.01-.04.02-.06.02-.04.04-.08.06-.12.13-.26.27-.51.43-.75.64-1,1.49-1.9,2.4-2.82.81-.82,1.65-1.6,2.41-2.47,1.08-1.24,2.01-2.6,3.06-3.86.53-.63,1.09-1.24,1.69-1.8.55-.5,1.11-1.06,1.79-1.37.97-.44,1.75-1.07,2.53-1.79.81-.75,1.58-1.54,2.45-2.22.04-.03.16-.12.19-.14.09-.06.18-.13.28-.19.09-.06.18-.11.27-.16.04-.02.08-.04.12-.06.08-.02.16-.04.23-.07,0,0,0,0,0,0,0,0,0,0,0,0,0,0,0,0,.02.01.91.77,1.94,1.44,2.93,2.11,1.16.79,2.35,1.54,3.55,2.25,2.56,1.51,5.22,2.86,8,3.91,2.33.88,4.87,1.58,7.38,1.52,0,.03,0,.07-.01.1-.02.14-.04.27-.07.4-.05.31-.1.61-.14.92,0,0,0,0,0,0-.06.09-.13.18-.19.27-.03.04-.05.07-.08.11-.02.02-.04.05-.05.07-.3.39-.65.76-.92,1.18-.38.58-.65,1.24-1,1.84-.4.68-.84,1.34-1.3,1.99-.92,1.3-1.93,2.52-2.99,3.71-2.17,2.44-4.51,4.71-6.75,7.07-.38.41-.76.82-1.14,1.23-3.72-1.49-7.37-3.19-10.92-5.06-1.84-.97-3.61-2.04-5.42-3.06-1.29-.73-2.82-1.03-4.27-1.22-1.52-.21-3.1-.31-4.62-.07,0-.02,0-.03-.01-.05-.04-.1-.06-.21-.09-.31,0,0,0,0,0-.01,0-.04,0-.07,0-.11,0-.09,0-.17,0-.26ZM311.61,88.21c-.02.07-.04.15-.06.22,0,0-.07.18-.08.2-.04.08-.09.17-.14.25-.12.19-.06.08-.03.05-.24.29-.5.41-.97.46-1.05.1-2.22.1-3.27-.06-1.14-.18-1.99-.69-2.86-1.42-.92-.77-1.88-1.41-2.97-1.92-2.33-1.1-4.72-2.08-7.09-3.1-1.15-.5-2.33-.97-3.46-1.51-.46-.22-.73-.43-.95-.9-.25-.54-.44-1.12-.65-1.68-.88-2.28-1.75-4.57-2.35-6.94-.33-1.29-.57-2.6-.66-3.92-.08-1.23-.1-2.41-.36-3.62-.34-1.58-.97-3.28-1.13-4.92.1,0,.21,0,.31-.02.04,0,.3-.05.31-.06.1-.01.21-.02.31-.03.36-.03.71-.04,1.07-.04.76,0,1.53.05,2.28.14.57.07,1.37.21,2.03.38.32.08.63.17.94.28.05.02.27.11.3.11.12.05.24.11.36.18,1.8.98,3.54,2.06,5.35,3.02,1.83.97,3.69,1.9,5.57,2.77,2.01.94,4.05,1.81,6.12,2.63.02.08.05.17.08.25.87,1.97,1.42,4.15,1.48,6.3.03,1.13-.12,2.19-.39,3.29-.3,1.2-.63,2.45-.52,3.7.1,1.2.58,2.26,1,3.36.18.47.36.96.44,1.46,0,.03.02.23.02.23,0,.08,0,.16,0,.23,0,.32-.01.41-.07.64ZM328.96,68.28c-.52.85-1.34,1.49-1.92,2.29-.58.8-.87,1.75-1.28,2.63-1.67,3.62-4.47,6.57-7.18,9.43-1.27,1.34-2.41,2.78-3.67,4.12-.35.37-.73.75-1.11,1.09,0-.13,0-.26,0-.39-.03-1.2-.52-2.28-.95-3.38-.22-.57-.45-1.17-.52-1.79-.07-.65.02-1.31.16-1.95.31-1.44.71-2.83.75-4.31.07-2.72-.62-5.45-1.7-7.93,4.43-4.85,9.59-9.21,12.82-15,.19-.33.36-.67.53-1.01.04-.08.08-.15.13-.22,0-.01.01-.02.02-.03,0,0,.02-.02.05-.06.34-.42.68-.84.99-1.28.34,1.09.63,2.21.91,3.32.3,1.19.7,2.37.93,3.57.19.99.28,2,.42,3,.15,1.03.4,2.01.69,3.02.45,1.59.83,3.4-.07,4.89Z" fill="#f7e0c9"/>
            <path d="M246.33,78.4c-.76-.07-18.57-1.8-19.59-19.75,0-.09,0-.14,0-.17-.03-.49-.45-.85-.94-.83-.49.03-.86.44-.83.93,0,.03,0,.05,0,.08.04.85.3,9.58-4.93,15.22-2.98,3.22-7.24,4.87-12.64,4.92-.48,0-.87.39-.88.87-.01.48.36.88.84.91.76.04,18.62,1.21,19.29,20.77.02.48.41.86.89.86.01,0,.02,0,.03,0,.49-.02.87-.43.86-.92h0c-.03-.86-.45-20.25,17.88-21.13.47-.02.84-.4.84-.87,0-.47-.35-.86-.81-.9ZM227.43,94.68c-2.58-9.22-9.61-13.1-14.6-14.72,3.42-.83,6.26-2.45,8.5-4.87,2.8-3.02,4.16-6.74,4.82-9.9,2.9,8.67,10.26,12.38,15.2,13.92-9.13,2.37-12.6,9.91-13.92,15.56Z" fill="#f7e0c9"/>
            <path d="M154.63,13.05c.13.36.47.6.84.6.08,0,.16-.01.24-.03.45-.12.73-.58.63-1.03-.15-.75-3.55-18.31,13.37-24.4.08-.03.13-.05.16-.06.46-.17.69-.68.53-1.13-.17-.46-.67-.7-1.13-.53-.03,0-.05.02-.07.03-.79.28-9.1,3.01-16-.4-3.93-1.95-6.73-5.55-8.31-10.72-.14-.46-.62-.72-1.08-.6-.46.13-.74.6-.63,1.06.18.74,4.09,18.21-14.43,24.4-.46.16-.72.66-.56,1.12.15.46.66.72,1.12.56.79-.26,19.29-6.17,25.34,11.14Z" fill="#f7e0c9"/>
            <path d="M296.07,15.31c.31.35.84.4,1.21.11.15-.12,14.84-11.29,27.79,1.23.06.06.1.1.12.12.17.16.39.24.61.24.23,0,.47-.09.64-.27.34-.35.33-.91-.02-1.25-.02-.02-.04-.04-.06-.05-.6-.59-6.72-6.84-6.7-14.54.01-4.39,2.01-8.49,5.95-12.19.35-.33.37-.87.06-1.23-.31-.36-.86-.4-1.23-.1-.59.48-14.54,11.7-28.26-2.19,0,0,0,0,0,0h0c-.34-.35-.9-.35-1.26,0-.35.34-.35.91,0,1.26,0,0,0,0,0,0,0,0,0,0,0,0,.61.62,14.05,14.58,1.18,27.65-.33.33-.34.86-.03,1.21Z" fill="#f7e0c9"/>
          </g>
        </g>
      </g>
    </pattern>
  </defs>
  <rect x="3.14" y="-1327.82" width="1082.59" height="4570.55" fill="url(#Pattern_2)"/>
</svg>