<?xml version="1.0" encoding="UTF-8"?>
<svg id="Layer_1" data-name="Layer 1" xmlns="http://www.w3.org/2000/svg" xmlns:xlink="http://www.w3.org/1999/xlink" viewBox="0 0 1365.596 5765.36">
  <defs>
    <style>
      .cls-1 {
        fill: none;
      }

      .cls-2 {
        fill: #f7e0c9;
      }

      .cls-3 {
        opacity: .54;
      }

      .cls-4 {
        fill: #fffce5;
      }

      .cls-5 {
        fill: url(#Pattern_2);
      }
    </style>
    <pattern id="Pattern_2" data-name="Pattern 2" x="0" y="0" width="446.7" height="446.7" patternTransform="translate(464.002 4568.309) scale(1.113 1.09)" patternUnits="userSpaceOnUse" viewBox="0 0 446.7 446.7">
      <g>
        <rect class="cls-1" width="446.7" height="446.7"/>
        <g>
          <rect class="cls-4" x="335.025" y="223.35" width="223.35" height="223.35"/>
          <g class="cls-3">
            <path class="cls-2" d="M470.883,331.824c-1.637-.497-3.182.56-4.971,1.785-1.002.686-2.039,1.395-3.086,1.831-1.369.569-4.087-.062-6.486-.619-3.033-.703-5.898-1.367-8.032-.433h0c-2.134.934-3.59,3.489-5.131,6.195-1.219,2.14-2.601,4.565-3.947,5.184-1.031.473-2.254.754-3.439,1.024-2.114.483-3.939.9-4.684,2.441-.409.846-.363,1.808.139,2.858,1.206,2.528,6,3.988,10.085,4.513,3.272.42,9.681.722,15.837-1.972,6.156-2.694,10.282-7.608,12.194-10.296,2.386-3.357,4.567-7.869,3.528-10.471-.432-1.08-1.107-1.767-2.006-2.041ZM455.903,351.743c-3.743,1.638-8.523,2.295-13.246,1.837,1.264-.712,2.492-1.566,3.747-2.44,2.18-1.517,4.434-3.087,7.329-4.354h0c2.896-1.267,5.578-1.858,8.171-2.429,1.494-.33,2.954-.651,4.335-1.098-2.867,3.78-6.593,6.846-10.337,8.484ZM469.384,337.912c-1.931,1.993-4.68,2.599-8.157,3.365-2.615.577-5.578,1.23-8.757,2.621h0c-3.179,1.391-5.67,3.125-7.867,4.654-2.922,2.034-5.232,3.642-8.006,3.709-1.497-.572-2.336-1.172-2.506-1.528-.028-.058-.048-.107-.063-.147.453-.26,1.646-.533,2.466-.72,1.279-.292,2.728-.622,4.055-1.234,2.266-1.043,3.843-3.811,5.368-6.487,1.163-2.04,2.48-4.352,3.656-4.867h0c1.176-.515,3.769.086,6.056.616,3.001.696,6.104,1.416,8.407.459,1.347-.559,2.575-1.401,3.658-2.142.694-.474,1.704-1.165,2.202-1.322.02.039.042.086.066.147.146.366.019,1.389-.578,2.877Z"/>
            <path class="cls-2" d="M436.623,345.779c3.676-.486,6.181-4.474,5.594-8.907-.587-4.433-4.041-7.633-7.718-7.146-3.676.486-6.18,4.474-5.594,8.907.021.155.046.308.073.46-.055.025-.11.05-.165.073-.673.286-1.479.307-2.042-.245-.041-.045-.122,0-.106.058.267,1.259,1.647,1.858,2.845,1.976,1.27,3.17,4.118,5.219,7.112,4.823ZM439.299,337.828c.314-.03.527.118.624.323.247.529-.079,1.203-.728,1.507-.34.159-.766.287-1.086.201-.271-.072-.364-.301-.389-.53-.011-.103.005-.217.069-.324.078-.131.216-.236.336-.348.124-.116.241-.239.356-.36.225-.235.469-.435.817-.468ZM436.09,333.145c.944-.236,1.965.601,2.282,1.869.317,1.268-.192,2.486-1.136,2.722-.944.235-1.966-.601-2.282-1.868-.316-1.268.192-2.486,1.136-2.722Z"/>
            <path class="cls-2" d="M463.88,308.015c-2.872-1.098-5.836-1.808-8.825-2.13-4.184-.451-8.42-.143-12.534.919-.839-.78-1.961-1.889-2.729-2.902-.466-.616-.46-1.47.019-2.077l2.469-3.117c.201-.252-.004-.539-.297-.414l-2.726,1.149c-1.155.488-2.373.344-3.2-.366l-2.983-2.56c-.169-.21-.505-.04-.488.246l-.399,4.042c-.105,1.053-.759,1.941-1.682,2.33l-1.974.833c-.197.084-.156.369.059.418l2.2.512c.71.165,1.233.766,1.302,1.493.092.976.406,2.464,1.352,4.131-4.196,2.426-7.805,5.648-10.651,9.483-1.792,2.415-3.282,5.073-4.423,7.928-3.468,8.664-3.332,18.112.383,26.6,3.567,8.152,10.024,14.48,18.252,17.919.341.142.682.279,1.028.411.591.226,1.186.436,1.784.629,8.206,2.648,17.025,2.202,25.035-1.303,8.009-3.505,14.321-9.681,17.944-17.506.264-.57.513-1.15.748-1.737.137-.344.269-.687.395-1.034,3.055-8.376,2.789-17.414-.779-25.566-3.715-8.489-10.563-14.998-19.28-18.33ZM434.063,301.75c1.111-2.382,2.159.569,3.399,3.258.44.955,1.473,1.831,2.426,2.584.22.175.437.342.641.503h.001c1.393,1.098,2.192,1.857-.292,2.093-1.134.108-2.2-.17-3.13-.699-.256-.145-.5-.308-.732-.489-2.226-1.721-3.398-4.922-2.313-7.25ZM463.499,369.098c-15.436,6.755-33.425-.282-40.18-15.717-6.755-15.435.281-33.425,15.717-40.18,15.435-6.755,33.425.282,40.18,15.717,6.755,15.435-.282,33.425-15.717,40.18Z"/>
            <path class="cls-2" d="M393.68,262.196l-5.559,9.751c-.004.008-.008.015-.012.023-.27.512.317,1.045.796.721l14.542-9.846c.454-.307.233-1.016-.315-1.011l-8.977.084c-.197.002-.378.108-.475.279Z"/>
            <path class="cls-2" d="M386.849,266.966c0,.044.006.088.017.13.077.297.144.592.201.884.097.5.768.604,1.02.161l14.664-25.722c.289-.506-.301-1.057-.787-.734l-15.369,10.226c-.16.106-.253.288-.246.48l.439,12.611c.045.674.064,1.327.062,1.964Z"/>
            <path class="cls-2" d="M365.007,277.446c-.016-.011-.031-.022-.047-.034l-9.317-6.2c-.164-.109-.373-.123-.55-.036l-8.06,3.954c-.492.241-.371.974.172,1.045l17.415,2.272c.574.075.86-.666.388-1.001Z"/>
            <path class="cls-2" d="M364.508,273.557c-.524-.906-1.011-1.893-1.46-2.96l-5.255-11.438c-.08-.174-.245-.295-.435-.318l-18.324-2.239c-.579-.071-.859.686-.373,1.009l25.061,16.678c.485.323,1.078-.227.786-.732Z"/>
            <path class="cls-2" d="M365.871,247.834l4.789,3.891c.282.229.704.129.853-.202l2.533-5.627c.067-.15.065-.322-.007-.47l-7.516-15.394c-.259-.53-1.056-.341-1.05.249l.194,17.13c.002.164.077.319.204.423Z"/>
            <path class="cls-2" d="M364.802,269.826c.031.074.064.145.095.218-.056-2.699.703-5.642,2.294-8.921l3.039-6.75c.103-.229.039-.498-.156-.656l-18.377-14.931c-.454-.369-1.095.128-.851.66l13.956,30.381Z"/>
            <path class="cls-2" d="M367.078,272.181c.806,3.506,3.081,5.986,5.936,6.474.582.099,1.17.215,1.745.343,2.828.63,5.872-.805,7.945-3.745,1.728-2.451,2.458-5.867,2.17-10.153l-1.166-33.445c-.02-.585-.817-.741-1.057-.208l-13.725,30.487c-1.923,3.965-2.524,7.309-1.848,10.247Z"/>
            <path class="cls-2" d="M398.824,386.379c-4.591-4.448-10.03-8.137-16.131-10.162-3.077-1.01-6.283-1.684-9.549-1.453-4.308.36-8.276,2.654-11.254,5.841-2.483,2.027-4.468,4.627-6.111,7.371-.269.496-.657,1.155-.839,1.676-.897,2.303-1.639,4.656-1.712,7.14-.079,2.51.345,4.918.725,7.182.121.651.314,1.927.442,2.581.521,2.694,1.502,5.166,2.447,7.706.84,2.27,2.055,4.651,3.632,6.532,1.172,1.45,2.455,2.701,3.811,3.926,1.379,1.244,2.737,2.411,4.402,3.388,4.298,2.497,9.344,3.055,14.217,3.225,6.1.126,12.144-2.508,16.415-6.805,2.515-2.483,4.808-5.228,6.446-8.387,1.668-3.143,2.564-6.678,2.65-10.228.066-.895.062-1.824-.027-2.796-.588-6.677-4.902-12.255-9.562-16.737ZM400.553,420.895c-3.749,4.168-8.603,7.143-14.276,7.52-2.189.173-4.346-.126-6.524-.511-3.14-.547-6.468-1.397-9.087-3.057-1.763-1.115-3.41-2.73-4.96-4.174-1.584-1.534-3.003-3.109-3.996-4.896-1.054-1.867-1.853-4.057-2.678-6.074-.877-2.097-1.388-4.185-1.841-6.38-.532-2.252-1.036-4.401-1.103-6.519-.061-1.571.182-3.156.554-4.694-.109,1.335-.09,2.681.046,4.009.872,8.234,5.708,15.369,10.836,21.585,3.367,4.113,7.364,7.222,12.751,8.108,8.503,1.579,17.09-2.65,22.689-8.854.868-.917,1.646-1.848,2.331-2.805-1.197,2.476-2.84,4.74-4.74,6.741ZM403.494,411.329c-5.108,6.877-13.774,12.239-22.549,10.657-6.213-.982-9.914-5.54-13.658-10.177-3.726-4.742-7.044-9.996-8.005-16.014-.451-2.926-.276-5.958.783-8.701,2.13-5.426,7.248-10.249,13.195-10.91,9.246-.591,18.107,5.007,24.314,11.45,3.194,3.312,6.05,6.96,7.446,11.342,1.33,4.092,1.044,8.822-1.526,12.353Z"/>
            <path class="cls-2" d="M397.969,394.979c.226-1.045-.065-2.908-2.244-6.146-2.817-4.188-5.39-6.3-7.647-6.278-1.39.013-2.263.824-2.675,1.334-1.765-3.704-6.714-3.824-10.852-3.924l-.21-.005c-1.238-.03-1.749.624-1.944,1.017-.123.248-.216.554-.223.971-.092-.02-.185-.038-.281-.05-1.835-.23-3.856,1.113-4.762,1.942l-.137.125c-1.158,1.047-3.871,3.497-4.142,9.717-.048,1.097.353,2.05,1.19,2.831.8.745,1.974,1.277,3.341,1.653-.254.183-.486.395-.691.642-.986,1.187-1.18,2.902-.592,5.242,1.475,5.877,3.995,7.24,7.482,9.125,1.32.713,2.815,1.522,4.503,2.705.991.695,1.828.856,2.489.783.382-.042.706-.163.967-.304.469-.254.875-.659,1.227-1.177.136,1.667.755,3.12,2.614,3.685,1.614.5,3.083.611,4.413.464,4.067-.451,6.822-3.32,8.34-4.902,1.409-1.467,1.869-3.628,1.174-5.505-.196-.527-.493-1.111-.933-1.687.619.092.998.13,1.017.131.159.011.422.03.73-.004.475-.053,1.056-.231,1.528-.757.87-.968,1.039-2.723.533-5.524-.707-3.917-2.858-5.49-4.218-6.105ZM385.881,394.481c.248-3.94.6-8.624.798-9.438.196-.276.655-.765,1.415-.772.925-.009,2.961.696,6.206,5.519,2.215,3.293,2.049,4.58,1.944,4.899l-7.767,2.529c-.832.2-1.441.295-1.698.239,0,0,.059.013.135.068l-.089.123c-.219-.545-.591-1.036-1.049-1.414.014-.171.056-.724.105-1.755ZM373.941,381.73s.081-.06.358-.053l.21.005c5.982.145,9.899.618,9.842,5.671-.038,3.323-.117,5.592-.183,6.992-.022.355-.044.727-.067,1.107-.385-.106-.768-.189-1.194-.249-.394-.06-.744-.046-1.047.023-.761-.972-2.701-3.492-4.473-6.157-4.128-6.208-3.454-7.33-3.446-7.339ZM365.212,395.257c-.466-.434-.671-.911-.645-1.5.239-5.502,2.494-7.539,3.578-8.518l.146-.132c.717-.656,2.271-1.646,3.391-1.505.408.051.715.253.967.637l.048-.031c.544,1.381,1.583,3.308,3.432,6.064,1.91,2.847,3.963,5.481,4.557,6.235-.015.154-.009.319.017.493-1.501.141-3.653.267-5.901.251-.183-.01-.369-.022-.558-.033-.818-.05-1.698-.103-2.572-.096-2.761-.221-5.272-.758-6.458-1.864ZM383.114,406.821c-.323,3.81-1.073,7.316-2.389,8.029-.155.084-.63.342-1.653-.375-1.77-1.24-3.311-2.074-4.672-2.809-3.445-1.863-5.343-2.889-6.634-8.033-.439-1.747-.355-3.001.248-3.727.502-.605,1.39-.886,2.425-1.001.324-.036.662-.054,1.008-.062,1.237.106,2.494.145,3.687.144.471.023.92.036,1.33.024,2.407-.072,3.871-.211,4.629-.302.349.589,1.02,1.491,2.174,2.297-.077,2.844-.124,4.659-.152,5.816ZM382.29,397.126c-.109-.22-.17-.446-.169-.525,0-.007,0-.01-.001-.013.007-.003.012-.006.02-.009.526-.141,1.291.036,1.85.181.833.159,1.374.738,1.416,1.459l-.026.009.029.105c-.003.19-.038.388-.113.59-.15.542-.506.526-.975.34-.897-.4-1.615-1.242-2.031-2.137ZM396.898,413.24c-2.647,2.758-5.898,5.568-11.011,3.985-1.64-.498-1.561-2.433-1.254-5.33.118-1.116.23-2.171.156-3.109,0-.131.011-.678.03-1.463.208-2.343.219-4.569.198-5.909.12-.007.23-.017.331-.029.058.077.125.16.197.247.383.473.826.909,1.315,1.311,1.254,1.054,3.227,2.264,6.192,3.084.382.119.759.229,1.127.33,1.786.614,2.97,1.675,3.522,3.163.468,1.264.153,2.724-.803,3.72ZM400.376,405.461c-.158.176-.392.228-.859.195-.688-.049-2.635-.333-4.853-.944-.25-.084-.508-.164-.783-.235-.078-.02-.152-.041-.228-.062-1.935-.604-3.956-1.456-5.467-2.611-.712-.566-1.173-1.078-1.437-1.416.184-.287.36-.617.46-.952l1.814-.591c1.584-.361,4.001-1.097,7.717-2.5.689.195,3.052,1.14,3.756,5.043.534,2.959.094,3.833-.12,4.072Z"/>
            <path class="cls-2" d="M469.676,413.428c-.76-.066-18.565-1.802-19.59-19.749-.003-.087-.008-.144-.009-.168-.033-.486-.449-.846-.939-.827-.487.028-.859.445-.835.932.002.027.003.052.004.079.039.846.299,9.584-4.933,15.224-2.985,3.216-7.236,4.873-12.637,4.924-.48.004-.869.389-.879.869-.011.479.362.88.84.906.76.04,18.622,1.211,19.29,20.772.016.48.41.858.886.858.011,0,.021-.001.031-.001.491-.016.874-.427.858-.917v-.002c-.028-.86-.446-20.247,17.88-21.127.467-.022.836-.403.845-.87.009-.468-.346-.862-.812-.902ZM450.784,429.702c-2.579-9.216-9.605-13.098-14.598-14.719,3.417-.826,6.263-2.454,8.498-4.866,2.797-3.018,4.163-6.743,4.823-9.9,2.904,8.67,10.257,12.377,15.197,13.923-9.132,2.372-12.604,9.912-13.92,15.562Z"/>
            <path class="cls-2" d="M377.981,348.073c.127.364.469.595.838.595.078,0,.158-.01.237-.032.451-.125.728-.577.634-1.035-.154-.747-3.552-18.313,13.366-24.396.081-.028.134-.048.157-.056.457-.17.692-.677.526-1.135-.166-.459-.672-.697-1.131-.535-.025.009-.049.017-.074.026-.794.277-9.1,3.013-15.998-.403-3.932-1.947-6.729-5.552-8.313-10.715-.14-.457-.617-.722-1.082-.596-.463.126-.742.596-.631,1.062.176.741,4.095,18.212-14.431,24.398-.464.156-.716.658-.561,1.123.155.464.657.718,1.122.562.785-.26,19.291-6.171,25.341,11.137Z"/>
            <path class="cls-2" d="M436.432,259.502c.702.059,17.132,1.644,18.142,18.651.004.082.008.136.01.16.035.504.454.89.952.89.02,0,.039,0,.06-.002.523-.032.923-.481.895-1.005-.001-.026-.002-.05-.004-.075-.038-.807-.317-9.239,4.626-14.599,2.726-2.955,6.588-4.487,11.482-4.554.516-.007.933-.422.942-.938.01-.516-.391-.946-.907-.972-.701-.035-17.173-1.08-17.86-19.623-.02-.527-.449-.909-.99-.92-.528.02-.939.462-.92.99v.004c.031.842.473,19.19-16.398,20.087-.502.026-.897.437-.905.939s.375.925.875.967ZM453.938,244.329c2.482,8.26,8.651,11.877,13.207,13.449-2.968.811-5.461,2.301-7.446,4.457-2.562,2.783-3.86,6.213-4.511,9.191-2.769-7.774-9.222-11.221-13.745-12.721,8.02-2.334,11.222-9.096,12.496-14.376Z"/>
          </g>
        </g>
        <g>
          <rect class="cls-4" x="111.675" y="335.025" width="223.35" height="223.35"/>
          <g class="cls-3">
            <path class="cls-2" d="M247.533,443.499c-1.637-.497-3.182.56-4.971,1.785-1.002.686-2.039,1.395-3.086,1.831-1.369.569-4.087-.062-6.486-.619-3.033-.703-5.898-1.367-8.032-.433h0c-2.134.934-3.59,3.489-5.131,6.195-1.219,2.14-2.601,4.565-3.947,5.184-1.031.473-2.254.754-3.439,1.024-2.114.483-3.939.9-4.684,2.441-.409.846-.363,1.808.139,2.858,1.206,2.528,6,3.988,10.085,4.513,3.272.42,9.681.722,15.837-1.972,6.156-2.694,10.282-7.608,12.194-10.296,2.386-3.357,4.567-7.869,3.528-10.471-.432-1.08-1.107-1.767-2.006-2.041ZM232.553,463.418c-3.743,1.638-8.523,2.295-13.246,1.837,1.264-.712,2.492-1.566,3.747-2.44,2.18-1.517,4.434-3.087,7.329-4.354h0c2.896-1.267,5.578-1.858,8.171-2.429,1.494-.33,2.954-.651,4.335-1.098-2.867,3.78-6.593,6.846-10.337,8.484ZM246.034,449.587c-1.931,1.993-4.68,2.599-8.157,3.365-2.615.577-5.578,1.23-8.757,2.621h0c-3.179,1.391-5.67,3.125-7.867,4.654-2.922,2.034-5.232,3.642-8.006,3.709-1.497-.572-2.336-1.172-2.506-1.528-.028-.058-.048-.107-.063-.147.453-.26,1.646-.533,2.466-.72,1.279-.292,2.728-.622,4.055-1.234,2.266-1.043,3.843-3.811,5.368-6.487,1.163-2.04,2.48-4.352,3.656-4.867h0c1.176-.515,3.769.086,6.056.616,3.001.696,6.104,1.416,8.407.459,1.347-.559,2.575-1.401,3.658-2.142.694-.474,1.704-1.165,2.202-1.322.02.039.042.086.066.147.146.366.019,1.389-.578,2.877Z"/>
            <path class="cls-2" d="M213.273,457.454c3.676-.486,6.181-4.474,5.594-8.907-.587-4.433-4.041-7.633-7.718-7.146-3.676.486-6.18,4.474-5.594,8.907.021.155.046.308.073.46-.055.025-.11.05-.165.073-.673.286-1.479.307-2.042-.245-.041-.045-.122,0-.106.058.267,1.259,1.647,1.858,2.845,1.976,1.27,3.17,4.118,5.219,7.112,4.823ZM215.949,449.503c.314-.03.527.118.624.323.247.529-.079,1.203-.728,1.507-.34.159-.766.287-1.086.201-.271-.072-.364-.301-.389-.53-.011-.103.005-.217.069-.324.078-.131.216-.236.336-.348.124-.116.241-.239.356-.36.225-.235.469-.435.817-.468ZM212.74,444.82c.944-.236,1.965.601,2.282,1.869.317,1.268-.192,2.486-1.136,2.722-.944.235-1.966-.601-2.282-1.868-.316-1.268.192-2.486,1.136-2.722Z"/>
            <path class="cls-2" d="M241.254,445.209c2.323-1.931,2.749-5.413,1.283-8.497.726-.96,1.224-2.38.479-3.431-.033-.051-.119-.022-.115.039.024.788-.538,1.366-1.205,1.666-.055.025-.11.048-.166.071-.093-.124-.189-.246-.289-.366-2.859-3.439-7.487-4.305-10.339-1.935-2.851,2.37-2.846,7.079.013,10.518,2.859,3.439,7.487,4.305,10.339,1.935ZM239.092,439.661c.034-.18.147-.342.237-.506.093-.172.174-.351.255-.526.157-.341.352-.643.737-.76.348-.105.656.032.854.268.51.605.424,1.516-.191,2.034-.322.272-.756.523-1.16.485-.342-.032-.547-.297-.673-.577-.057-.126-.087-.271-.06-.418ZM235.63,434.912c.744-.628,1.997-.366,2.799.585.802.951.849,2.23.105,2.858-.744.628-1.998.366-2.799-.585-.802-.951-.849-2.23-.104-2.858Z"/>
            <path class="cls-2" d="M240.53,419.69c-2.872-1.098-5.836-1.808-8.825-2.13-4.184-.451-8.42-.143-12.534.919-.839-.78-1.961-1.889-2.729-2.902-.466-.616-.46-1.47.019-2.077l2.469-3.117c.201-.252-.004-.539-.297-.414l-2.726,1.149c-1.155.488-2.373.344-3.2-.366l-2.983-2.56c-.169-.21-.505-.04-.488.246l-.399,4.042c-.105,1.053-.759,1.941-1.682,2.33l-1.974.833c-.197.084-.156.369.059.418l2.2.512c.71.165,1.233.766,1.302,1.493.092.976.406,2.464,1.352,4.131-4.196,2.426-7.805,5.648-10.651,9.483-1.792,2.415-3.282,5.073-4.423,7.928-3.468,8.664-3.332,18.112.383,26.6,3.567,8.152,10.024,14.48,18.252,17.919.341.142.682.279,1.028.411.591.226,1.186.436,1.784.629,8.206,2.648,17.025,2.202,25.035-1.303,8.009-3.505,14.321-9.681,17.944-17.506.264-.57.513-1.15.748-1.737.137-.344.269-.687.395-1.034,3.055-8.376,2.789-17.414-.779-25.566-3.715-8.489-10.563-14.998-19.28-18.33ZM210.713,413.425c1.111-2.382,2.159.569,3.399,3.258.44.955,1.473,1.831,2.426,2.584.22.175.437.342.641.503h.001c1.393,1.098,2.192,1.857-.292,2.093-1.134.108-2.2-.17-3.13-.699-.256-.145-.5-.308-.732-.489-2.226-1.721-3.398-4.922-2.313-7.25ZM240.149,480.773c-15.436,6.755-33.425-.282-40.18-15.717-6.755-15.435.281-33.425,15.717-40.18,15.435-6.755,33.425.282,40.18,15.717,6.755,15.435-.282,33.425-15.717,40.18Z"/>
            <path class="cls-2" d="M170.33,373.871l-5.559,9.751c-.004.008-.008.015-.012.023-.27.512.317,1.045.796.721l14.542-9.846c.454-.307.233-1.016-.315-1.011l-8.977.084c-.197.002-.378.108-.475.279Z"/>
            <path class="cls-2" d="M163.499,378.641c0,.044.006.088.017.13.077.297.144.592.201.884.097.5.768.604,1.02.161l14.664-25.722c.289-.506-.301-1.057-.787-.734l-15.369,10.226c-.16.106-.253.288-.246.48l.439,12.611c.045.674.064,1.327.062,1.964Z"/>
            <path class="cls-2" d="M141.657,389.121c-.016-.011-.031-.022-.047-.034l-9.317-6.2c-.164-.109-.373-.123-.55-.036l-8.06,3.954c-.492.241-.371.974.172,1.045l17.415,2.272c.574.075.86-.666.388-1.001Z"/>
            <path class="cls-2" d="M141.158,385.232c-.524-.906-1.011-1.893-1.46-2.96l-5.255-11.438c-.08-.174-.245-.295-.435-.318l-18.324-2.239c-.579-.071-.859.686-.373,1.009l25.061,16.678c.485.323,1.078-.227.786-.732Z"/>
            <path class="cls-2" d="M142.521,359.508l4.789,3.891c.282.229.704.129.853-.202l2.533-5.627c.067-.15.065-.322-.007-.47l-7.516-15.394c-.259-.53-1.056-.341-1.05.249l.194,17.13c.002.164.077.319.204.423Z"/>
            <path class="cls-2" d="M141.452,381.501c.031.074.064.145.095.218-.056-2.699.703-5.642,2.294-8.921l3.039-6.75c.103-.229.039-.498-.156-.656l-18.377-14.931c-.454-.369-1.095.128-.851.66l13.956,30.381Z"/>
            <path class="cls-2" d="M143.728,383.856c.806,3.506,3.081,5.986,5.936,6.474.582.099,1.17.215,1.745.343,2.828.63,5.872-.805,7.945-3.745,1.728-2.451,2.458-5.867,2.17-10.153l-1.166-33.445c-.02-.585-.817-.741-1.057-.208l-13.725,30.487c-1.923,3.965-2.524,7.309-1.848,10.247Z"/>
            <path class="cls-2" d="M317.147,391.198c.288.138.632.091.872-.12l.004-.004,6.278-3.03c3.634-1.754,6.194-5.155,6.849-9.098,1.85-11.138-5.51-16.965-10.454-19.567-.674-.381-1.391-.751-2.157-1.106-12.26-5.531-26.705-6.307-37.826,2.195-2.827,2.164-5.335,4.757-7.272,7.75-.047.083-.254.397-.288.47-.002.003-.004.005-.006.008-.298.419-.108,1.011.353,1.238,12.876,6.321,30.893,15.213,43.516,21.203l.131.063ZM329.131,372.581c.358,1.877.367,3.887.011,6.031-.546,3.291-2.687,6.132-5.726,7.599l-1.049.506c3.872-4.456,6.517-9.413,6.764-14.136ZM316.135,388.455c-4.735-2.27-10.127-4.826-15.662-7.434.881.037,1.758.086,2.622.137,2.741.163,5.574.331,8.467.031.546-.057.99-.525.958-1.074-.034-.585-.548-1.016-1.124-.955-2.743.291-5.508.126-8.181-.033-1.407-.084-2.847-.163-4.299-.185,2.606-.952,5.149-1.923,7.623-2.87,4.472-1.711,8.697-3.328,13.218-4.817.507-.167.85-.684.734-1.204-.133-.597-.746-.933-1.312-.748-4.589,1.509-8.853,3.141-13.367,4.868-3.097,1.185-6.298,2.41-9.592,3.581-.132.019-.28.022-.437.013.002-.02.004-.039.005-.058l7.849-7.655c.402-.393.41-1.037.018-1.439-.392-.4-1.036-.41-1.439-.018l-8.417,8.209,2.582-8.229c.168-.536-.13-1.107-.666-1.275-.547-.179-1.107.131-1.275.666l-2.663,8.487-2.786-7.645c-.182-.5-.708-.824-1.223-.692-.593.151-.913.775-.708,1.336l2.317,6.359c-4.845-2.268-9.528-4.451-13.7-6.39-.218-.102-.289-.379-.145-.572,2.298-3.083,5.215-5.706,8.497-7.714l1.51,4.146c.117.32.377.546.682.632.203.057.425.052.638-.03.528-.202.765-.825.571-1.356l-1.608-4.411c.275-.144.552-.284.832-.42,3.557-1.726,7.384-2.618,11.27-2.839l-2.052,6.54c-.168.536.13,1.107.666,1.276.01.003.021.006.031.009.527.148,1.08-.149,1.245-.675l2.258-7.198c4.108.024,8.237.758,12.141,2.036l-6.359,6.201c-.402.392-.41,1.037-.018,1.439.13.133.286.222.453.269.338.095.716.012.986-.251l7.099-6.923c4.274,1.54,8.412,3.623,10.833,7.511,0,.003-.001.003-.002.006-.597.212-1.194.425-1.789.641-.488.177-.807.683-.694,1.19.087.39.375.667.721.764.197.055.414.052.621-.024.655-.238,1.311-.472,1.967-.705,1.105,3.378.26,6.983-1.46,10.363l-8.534-.113c-.55-.007-1.048.397-1.085.946-.034.496.289.924.74,1.05.083.023.171.036.262.038l7.479.099c-1.552,2.503-3.485,4.819-5.314,6.746-.512.539-1.314.683-1.984.362Z"/>
            <path class="cls-2" d="M154.631,459.748c.127.364.469.595.838.595.078,0,.158-.01.237-.032.451-.125.728-.577.634-1.035-.154-.747-3.552-18.313,13.366-24.396.081-.028.134-.048.157-.056.457-.17.692-.677.526-1.135-.166-.459-.672-.697-1.131-.535-.025.009-.049.017-.074.026-.794.277-9.1,3.013-15.998-.403-3.932-1.947-6.729-5.552-8.313-10.715-.14-.457-.617-.722-1.082-.596-.463.126-.742.596-.631,1.062.176.741,4.095,18.212-14.431,24.398-.464.156-.716.658-.561,1.123.155.464.657.718,1.122.562.785-.26,19.291-6.171,25.341,11.137Z"/>
            <path class="cls-2" d="M296.073,462.006c.311.35.839.397,1.209.111.149-.115,14.845-11.286,27.79,1.233.061.06.103.099.12.116.172.163.391.244.611.244.233,0,.466-.091.639-.272.339-.351.33-.91-.019-1.251-.019-.019-.037-.037-.056-.055-.601-.595-6.719-6.84-6.696-14.535.012-4.388,2.014-8.488,5.949-12.187.349-.328.374-.874.057-1.234-.315-.359-.862-.404-1.232-.097-.587.484-14.539,11.705-28.26-2.185-.001,0-.001-.001-.001-.001h-.001c-.344-.349-.905-.353-1.256-.009-.349.345-.353.907-.009,1.256.001,0,.001,0,.001,0,.001.001,0,0,.001.002.607.616,14.054,14.58,1.183,27.651-.328.333-.342.864-.031,1.213Z"/>
            <path class="cls-2" d="M213.082,371.177c.702.059,17.132,1.644,18.142,18.651.004.082.008.136.01.16.035.504.454.89.952.89.02,0,.039,0,.06-.002.523-.032.923-.481.895-1.005-.001-.026-.002-.05-.004-.075-.038-.807-.317-9.239,4.626-14.599,2.726-2.955,6.588-4.487,11.482-4.554.516-.007.933-.422.942-.938.01-.516-.391-.946-.907-.972-.701-.035-17.173-1.08-17.86-19.623-.02-.527-.449-.909-.99-.92-.528.02-.939.462-.92.99v.004c.031.842.473,19.19-16.398,20.087-.502.026-.897.437-.905.939s.375.925.875.967ZM230.588,356.004c2.482,8.26,8.651,11.877,13.207,13.449-2.968.811-5.461,2.301-7.446,4.457-2.562,2.783-3.86,6.213-4.511,9.191-2.769-7.774-9.222-11.221-13.745-12.721,8.02-2.334,11.222-9.096,12.496-14.376Z"/>
          </g>
        </g>
        <g>
          <rect class="cls-4" x="-111.675" y="223.35" width="223.35" height="223.35"/>
          <g class="cls-3">
            <path class="cls-2" d="M24.183,331.824c-1.637-.497-3.182.56-4.971,1.785-1.002.686-2.039,1.395-3.086,1.831-1.369.569-4.087-.062-6.486-.619-3.033-.703-5.898-1.367-8.032-.433h0c-2.134.934-3.59,3.489-5.131,6.195-1.219,2.14-2.601,4.565-3.947,5.184-1.031.473-2.254.754-3.439,1.024-2.114.483-3.939.9-4.684,2.441-.409.846-.363,1.808.139,2.858,1.206,2.528,6,3.988,10.085,4.513,3.272.42,9.681.722,15.837-1.972,6.156-2.694,10.282-7.608,12.194-10.296,2.386-3.357,4.567-7.869,3.528-10.471-.432-1.08-1.107-1.767-2.006-2.041ZM9.203,351.743c-3.743,1.638-8.523,2.295-13.246,1.837,1.264-.712,2.492-1.566,3.747-2.44,2.18-1.517,4.434-3.087,7.329-4.354h0c2.896-1.267,5.578-1.858,8.171-2.429,1.494-.33,2.954-.651,4.335-1.098-2.867,3.78-6.593,6.846-10.337,8.484ZM22.684,337.912c-1.931,1.993-4.68,2.599-8.157,3.365-2.615.577-5.578,1.23-8.757,2.621h0c-3.179,1.391-5.67,3.125-7.867,4.654-2.922,2.034-5.232,3.642-8.006,3.709-1.497-.572-2.336-1.172-2.506-1.528-.028-.058-.048-.107-.063-.147.453-.26,1.646-.533,2.466-.72,1.279-.292,2.728-.622,4.055-1.234,2.266-1.043,3.843-3.811,5.368-6.487,1.163-2.04,2.48-4.352,3.656-4.867h0c1.176-.515,3.769.086,6.056.616,3.001.696,6.104,1.416,8.407.459,1.347-.559,2.575-1.401,3.658-2.142.694-.474,1.704-1.165,2.202-1.322.02.039.042.086.066.147.146.366.019,1.389-.578,2.877Z"/>
            <path class="cls-2" d="M17.904,333.534c2.323-1.931,2.749-5.413,1.283-8.497.726-.96,1.224-2.38.479-3.431-.033-.051-.119-.022-.115.039.024.788-.538,1.366-1.205,1.666-.055.025-.11.048-.166.071-.093-.124-.189-.246-.289-.366-2.859-3.439-7.487-4.305-10.339-1.935-2.851,2.37-2.846,7.079.013,10.518,2.859,3.439,7.487,4.305,10.339,1.935ZM15.742,327.986c.034-.18.147-.342.237-.506.093-.172.174-.351.255-.526.157-.341.352-.643.737-.76.348-.105.656.032.854.268.51.605.424,1.516-.191,2.034-.322.272-.756.523-1.16.485-.342-.032-.547-.297-.673-.577-.057-.126-.087-.271-.06-.418ZM12.28,323.237c.744-.628,1.997-.366,2.799.585.802.951.849,2.23.105,2.858-.744.628-1.998.366-2.799-.585-.802-.951-.849-2.23-.104-2.858Z"/>
            <path class="cls-2" d="M17.18,308.015c-2.872-1.098-5.836-1.808-8.825-2.13-4.184-.451-8.42-.143-12.534.919-.839-.78-1.961-1.889-2.729-2.902-.466-.616-.46-1.47.019-2.077l2.469-3.117c.201-.252-.004-.539-.297-.414l-2.726,1.149c-1.155.488-2.373.344-3.2-.366l-2.983-2.56c-.169-.21-.505-.04-.488.246l-.399,4.042c-.105,1.053-.759,1.941-1.682,2.33l-1.974.833c-.197.084-.156.369.059.418l2.2.512c.71.165,1.233.766,1.302,1.493.092.976.406,2.464,1.352,4.131-4.196,2.426-7.805,5.648-10.651,9.483-1.792,2.415-3.282,5.073-4.423,7.928-3.468,8.664-3.332,18.112.383,26.6,3.567,8.152,10.024,14.48,18.252,17.919.341.142.682.279,1.028.411.591.226,1.186.436,1.784.629,8.206,2.648,17.025,2.202,25.035-1.303,8.009-3.505,14.321-9.681,17.944-17.506.264-.57.513-1.15.748-1.737.137-.344.269-.687.395-1.034,3.055-8.376,2.789-17.414-.779-25.566-3.715-8.489-10.563-14.998-19.28-18.33ZM-12.637,301.75c1.111-2.382,2.159.569,3.399,3.258.44.955,1.473,1.831,2.426,2.584.22.175.437.342.641.503h.001c1.393,1.098,2.192,1.857-.292,2.093-1.134.108-2.2-.17-3.13-.699-.256-.145-.5-.308-.732-.489-2.226-1.721-3.398-4.922-2.313-7.25ZM16.799,369.098c-15.436,6.755-33.425-.282-40.18-15.717-6.755-15.435.281-33.425,15.717-40.18,15.435-6.755,33.425.282,40.18,15.717,6.755,15.435-.282,33.425-15.717,40.18Z"/>
            <path class="cls-2" d="M93.797,279.523c.288.138.632.091.872-.12l.004-.004,6.278-3.03c3.634-1.754,6.194-5.155,6.849-9.098,1.85-11.138-5.51-16.965-10.454-19.567-.674-.381-1.391-.751-2.157-1.106-12.26-5.531-26.705-6.307-37.826,2.195-2.827,2.164-5.335,4.757-7.272,7.75-.047.083-.254.397-.288.47-.002.003-.004.005-.006.008-.298.419-.108,1.011.353,1.238,12.876,6.321,30.893,15.213,43.516,21.203l.131.063ZM105.781,260.906c.358,1.877.367,3.887.011,6.031-.546,3.291-2.687,6.132-5.726,7.599l-1.049.506c3.872-4.456,6.517-9.413,6.764-14.136ZM92.785,276.78c-4.735-2.27-10.127-4.826-15.662-7.434.881.037,1.758.086,2.622.137,2.741.163,5.574.331,8.467.031.546-.057.99-.525.958-1.074-.034-.585-.548-1.016-1.124-.955-2.743.291-5.508.126-8.181-.033-1.407-.084-2.847-.163-4.299-.185,2.606-.952,5.149-1.923,7.623-2.87,4.472-1.711,8.697-3.328,13.218-4.817.507-.167.85-.684.734-1.204-.133-.597-.746-.933-1.312-.748-4.589,1.509-8.853,3.141-13.367,4.868-3.097,1.185-6.298,2.41-9.592,3.581-.132.019-.28.022-.437.013.002-.02.004-.039.005-.058l7.849-7.655c.402-.393.41-1.037.018-1.439-.392-.4-1.036-.41-1.439-.018l-8.417,8.209,2.582-8.229c.168-.536-.13-1.107-.666-1.275-.547-.179-1.107.131-1.275.666l-2.663,8.487-2.786-7.645c-.182-.5-.708-.824-1.223-.692-.593.151-.913.775-.708,1.336l2.317,6.359c-4.845-2.268-9.528-4.451-13.7-6.39-.218-.102-.289-.379-.145-.572,2.298-3.083,5.215-5.706,8.497-7.714l1.51,4.146c.117.32.377.546.682.632.203.057.425.052.638-.03.528-.202.765-.825.571-1.356l-1.608-4.411c.275-.144.552-.284.832-.42,3.557-1.726,7.384-2.618,11.27-2.839l-2.052,6.54c-.168.536.13,1.107.666,1.276.01.003.021.006.031.009.527.148,1.08-.149,1.245-.675l2.258-7.198c4.108.024,8.237.758,12.141,2.036l-6.359,6.201c-.402.392-.41,1.037-.018,1.439.13.133.286.222.453.269.338.095.716.012.986-.251l7.099-6.923c4.274,1.54,8.412,3.623,10.833,7.511,0,.003-.001.003-.002.006-.597.212-1.194.425-1.789.641-.488.177-.807.683-.694,1.19.087.39.375.667.721.764.197.055.414.052.621-.024.655-.238,1.311-.472,1.967-.705,1.105,3.378.26,6.983-1.46,10.363l-8.534-.113c-.55-.007-1.048.397-1.085.946-.034.496.289.924.74,1.05.083.023.171.036.262.038l7.479.099c-1.552,2.503-3.485,4.819-5.314,6.746-.512.539-1.314.683-1.984.362Z"/>
            <path class="cls-2" d="M108.15,399.631c-.153-.977-.468-1.904-.721-2.856-.268-1.011-.385-2.049-.519-3.083-.141-1.088-.284-2.185-.613-3.235-.141-.451-.267-.904-.384-1.362-.38-1.487-.737-2.982-1.21-4.443-.25-.771-.531-1.538-.886-2.267-.139-.286-.301-.58-.491-.851-.151-.419-.441-.772-.919-.885-.591-.14-1.296.016-1.906-.013-1.217-.058-2.36-.291-3.658-.658-2.89-.816-5.561-2.078-8.195-3.527-2.493-1.372-4.903-2.908-7.197-4.592-.455-.334-.898-.776-1.451-.935-.468-.135-.99-.086-1.442.085-1.086.41-1.978,1.225-2.819,2.002-.439.406-.868.822-1.306,1.229-.201.187-.403.372-.61.552-.091.08-.184.158-.277.235-.045.037-.091.073-.136.11-.012.01-.016.014-.024.021-.008.005-.013.008-.025.016-.175.117-.349.231-.529.341-.03.018-.074.03-.103.051-.229.072-.46.184-.669.299-.789.433-1.485,1.1-2.137,1.714-1.279,1.204-2.311,2.619-3.379,4.006-.833,1.083-1.729,2.079-2.696,3.041-.963.959-1.939,1.914-2.791,2.976-.791.986-1.596,2.103-1.816,3.378-.066.381-.08.768-.033,1.149-.386,2.317.314,4.574.874,6.805.265,1.055.456,1.984.472,3.031.021,1.349.187,2.697.447,4.021.504,2.56,1.39,5.027,2.317,7.459.237.621.477,1.24.715,1.86.23.597.43,1.234.806,1.759.796,1.113,2.225,1.519,3.428,2.044,2.556,1.114,5.116,2.217,7.667,3.342,1.11.489,2.225,1.011,3.168,1.785.983.808,1.915,1.579,3.154,1.96,1.215.373,2.522.392,3.782.373.67-.01,1.348-.046,1.971-.228,1.658-.078,3.07-1.13,4.238-2.228,1.252-1.177,2.316-2.531,3.451-3.816,1.33-1.505,2.764-2.914,4.078-4.435,1.407-1.627,2.746-3.343,3.8-5.224.49-.874.867-1.787,1.266-2.704.182-.419.386-.842.657-1.212.307-.419.695-.78,1.044-1.163.726-.8,1.309-1.693,1.566-2.754.255-1.051.209-2.113.043-3.172ZM61.309,391.505c.002.073.04-.228.06-.301.031-.117.074-.23.111-.346.004-.013.015-.04.023-.062.018-.041.037-.082.056-.122.125-.261.27-.511.425-.755.641-1.004,1.492-1.896,2.398-2.816.806-.819,1.654-1.602,2.411-2.467,1.082-1.237,2.01-2.597,3.059-3.86.527-.635,1.087-1.241,1.694-1.801.546-.504,1.109-1.063,1.793-1.373.97-.441,1.746-1.067,2.528-1.79.808-.747,1.582-1.54,2.447-2.223.037-.026.158-.118.187-.138.092-.064.184-.127.279-.186.089-.055.179-.109.272-.158.039-.021.082-.039.12-.061.075-.02.161-.045.233-.071,0,0,0,0,0,0,.003,0,.004,0,.007,0,.006.005.008.008.015.014.914.769,1.943,1.437,2.931,2.106,1.161.785,2.346,1.535,3.552,2.248,2.557,1.509,5.221,2.861,8.002,3.907,2.329.876,4.865,1.584,7.379,1.521-.005.033-.01.066-.015.099-.021.135-.044.27-.067.404-.052.306-.103.613-.137.922,0,0,0,.002-.001.002-.06.093-.127.182-.193.271-.027.036-.054.072-.081.108-.015.02-.036.047-.055.071-.304.387-.651.763-.92,1.176-.376.579-.65,1.24-1.004,1.836-.404.68-.838,1.343-1.295,1.989-.917,1.297-1.932,2.521-2.987,3.707-2.167,2.436-4.511,4.706-6.752,7.072-.385.406-.761.821-1.137,1.234-3.724-1.495-7.369-3.187-10.916-5.065-1.837-.972-3.614-2.04-5.424-3.059-1.294-.728-2.819-1.026-4.274-1.223-1.519-.206-3.095-.31-4.619-.071-.005-.016-.005-.032-.011-.048-.037-.103-.058-.211-.094-.314-.002-.005-.002-.006-.004-.01-.003-.037-.008-.074-.007-.111,0-.086.005-.171.009-.257ZM88.257,423.233c-.018.074-.038.147-.061.22,0-.002-.073.175-.081.204-.042.085-.088.168-.14.247-.123.185-.06.08-.031.046-.245.287-.504.409-.972.456-1.053.104-2.224.099-3.269-.063-1.143-.177-1.987-.69-2.86-1.419-.922-.77-1.884-1.406-2.97-1.922-2.327-1.105-4.725-2.076-7.086-3.105-1.15-.501-2.327-.966-3.456-1.512-.462-.223-.731-.434-.949-.9-.253-.54-.438-1.119-.653-1.675-.878-2.28-1.749-4.572-2.349-6.944-.326-1.288-.571-2.596-.659-3.922-.081-1.229-.099-2.412-.361-3.624-.341-1.577-.966-3.281-1.13-4.925.104.005.209.001.314-.02.041-.008.298-.05.314-.056.103-.012.205-.024.308-.032.357-.03.715-.042,1.072-.043.763-.001,1.526.049,2.284.138.568.067,1.367.212,2.035.383.317.082.631.174.94.283.046.016.271.106.299.114.122.055.243.111.36.175,1.799.979,3.541,2.06,5.352,3.022,1.831.973,3.689,1.897,5.569,2.77,2.013.935,4.054,1.81,6.116,2.633.021.084.047.167.083.248.873,1.967,1.423,4.15,1.484,6.304.032,1.133-.123,2.195-.393,3.293-.296,1.203-.628,2.451-.521,3.701.103,1.197.576,2.257,1.004,3.364.182.47.362.958.443,1.458,0,.028.022.235.022.228.004.078.006.156.006.234,0,.322-.012.407-.067.638ZM105.614,403.304c-.518.85-1.337,1.485-1.92,2.293-.577.799-.871,1.745-1.28,2.632-1.669,3.621-4.465,6.571-7.179,9.43-1.267,1.335-2.408,2.782-3.673,4.118-.35.37-.73.751-1.113,1.091.007-.131.009-.261.005-.391-.033-1.202-.517-2.277-.949-3.377-.225-.573-.455-1.174-.525-1.79-.074-.652.024-1.309.161-1.945.309-1.44.714-2.829.754-4.313.073-2.724-.619-5.446-1.699-7.932,4.43-4.849,9.586-9.205,12.822-15.004.186-.333.36-.671.534-1.011.042-.082.083-.146.126-.223.008-.015.011-.021.017-.032.008-.007.021-.021.051-.057.337-.42.678-.841.994-1.277.343,1.094.63,2.206.91,3.317.299,1.187.702,2.366.928,3.567.187.993.283,2.001.424,3,.147,1.034.402,2.013.686,3.016.449,1.586.834,3.399-.074,4.888Z"/>
            <path class="cls-2" d="M22.976,413.428c-.76-.066-18.565-1.802-19.59-19.749-.003-.087-.008-.144-.009-.168-.033-.486-.449-.846-.939-.827-.487.028-.859.445-.835.932.002.027.003.052.004.079.039.846.299,9.584-4.933,15.224-2.985,3.216-7.236,4.873-12.637,4.924-.48.004-.869.389-.879.869-.011.479.362.88.84.906.76.04,18.622,1.211,19.29,20.772.016.48.41.858.886.858.011,0,.021-.001.031-.001.491-.016.874-.427.858-.917v-.002c-.028-.86-.446-20.247,17.88-21.127.467-.022.836-.403.845-.87.009-.468-.346-.862-.812-.902ZM4.084,429.702c-2.579-9.216-9.605-13.098-14.598-14.719,3.417-.826,6.263-2.454,8.498-4.866,2.797-3.018,4.163-6.743,4.823-9.9,2.904,8.67,10.257,12.377,15.197,13.923-9.132,2.372-12.604,9.912-13.92,15.562Z"/>
            <path class="cls-2" d="M72.723,350.331c.311.35.839.397,1.209.111.149-.115,14.845-11.286,27.79,1.233.061.06.103.099.12.116.172.163.391.244.611.244.233,0,.466-.091.639-.272.339-.351.33-.91-.019-1.251-.019-.019-.037-.037-.056-.055-.601-.595-6.719-6.84-6.696-14.535.012-4.388,2.014-8.488,5.949-12.187.349-.328.374-.874.057-1.234-.315-.359-.862-.404-1.232-.097-.587.484-14.539,11.705-28.26-2.185-.001,0-.001-.001-.001-.001h-.001c-.344-.349-.905-.353-1.256-.009-.349.345-.353.907-.009,1.256.001,0,.001,0,.001,0,.001.001,0,0,.001.002.607.616,14.054,14.58,1.183,27.651-.328.333-.342.864-.031,1.213Z"/>
            <path class="cls-2" d="M-10.268,259.502c.702.059,17.132,1.644,18.142,18.651.004.082.008.136.01.16.035.504.454.89.952.89.02,0,.039,0,.06-.002.523-.032.923-.481.895-1.005-.001-.026-.002-.05-.004-.075-.038-.807-.317-9.239,4.626-14.599,2.726-2.955,6.588-4.487,11.482-4.554.516-.007.933-.422.942-.938.01-.516-.391-.946-.907-.972-.701-.035-17.173-1.08-17.86-19.623-.02-.527-.449-.909-.99-.92-.528.02-.939.462-.92.99v.004c.031.842.473,19.19-16.398,20.087-.502.026-.897.437-.905.939s.375.925.875.967ZM7.238,244.329c2.482,8.26,8.651,11.877,13.207,13.449-2.968.811-5.461,2.301-7.446,4.457-2.562,2.783-3.86,6.213-4.511,9.191-2.769-7.774-9.222-11.221-13.745-12.721,8.02-2.334,11.222-9.096,12.496-14.376Z"/>
          </g>
        </g>
        <g>
          <rect class="cls-4" x="335.025" y="0" width="223.35" height="223.35"/>
          <g class="cls-3">
            <path class="cls-2" d="M470.883,108.474c-1.637-.497-3.182.56-4.971,1.785-1.002.686-2.039,1.395-3.086,1.831-1.369.569-4.087-.062-6.486-.619-3.033-.703-5.898-1.367-8.032-.433h0c-2.134.934-3.59,3.489-5.131,6.195-1.219,2.14-2.601,4.565-3.947,5.184-1.031.473-2.254.754-3.439,1.024-2.114.483-3.939.9-4.684,2.441-.409.846-.363,1.808.139,2.858,1.206,2.528,6,3.988,10.085,4.513,3.272.42,9.681.722,15.837-1.972,6.156-2.694,10.282-7.608,12.194-10.296,2.386-3.357,4.567-7.869,3.528-10.471-.432-1.08-1.107-1.767-2.006-2.041ZM455.903,128.393c-3.743,1.638-8.523,2.295-13.246,1.837,1.264-.712,2.492-1.566,3.747-2.44,2.18-1.517,4.434-3.087,7.329-4.354h0c2.896-1.267,5.578-1.858,8.171-2.429,1.494-.33,2.954-.651,4.335-1.098-2.867,3.78-6.593,6.846-10.337,8.484ZM469.384,114.563c-1.931,1.993-4.68,2.599-8.157,3.365-2.615.577-5.578,1.23-8.757,2.621h0c-3.179,1.391-5.67,3.125-7.867,4.654-2.922,2.034-5.232,3.642-8.006,3.709-1.497-.572-2.336-1.172-2.506-1.528-.028-.058-.048-.107-.063-.147.453-.26,1.646-.533,2.466-.72,1.279-.292,2.728-.622,4.055-1.234,2.266-1.043,3.843-3.811,5.368-6.487,1.163-2.04,2.48-4.352,3.656-4.867h0c1.176-.515,3.769.086,6.056.616,3.001.696,6.104,1.416,8.407.459,1.347-.559,2.575-1.401,3.658-2.142.694-.474,1.704-1.165,2.202-1.322.02.039.042.086.066.147.146.366.019,1.389-.578,2.877Z"/>
            <path class="cls-2" d="M436.623,122.43c3.676-.486,6.181-4.474,5.594-8.907-.587-4.433-4.041-7.633-7.718-7.146-3.676.486-6.18,4.474-5.594,8.907.021.155.046.308.073.46-.055.025-.11.05-.165.073-.673.286-1.479.307-2.042-.245-.041-.045-.122,0-.106.058.267,1.259,1.647,1.858,2.845,1.976,1.27,3.17,4.118,5.219,7.112,4.823ZM439.299,114.478c.314-.03.527.118.624.323.247.529-.079,1.203-.728,1.507-.34.159-.766.287-1.086.201-.271-.072-.364-.301-.389-.53-.011-.103.005-.217.069-.324.078-.131.216-.236.336-.348.124-.116.241-.239.356-.36.225-.235.469-.435.817-.468ZM436.09,109.795c.944-.236,1.965.601,2.282,1.869.317,1.268-.192,2.486-1.136,2.722-.944.235-1.966-.601-2.282-1.868-.316-1.268.192-2.486,1.136-2.722Z"/>
            <path class="cls-2" d="M463.88,84.665c-2.872-1.098-5.836-1.808-8.825-2.13-4.184-.451-8.42-.143-12.534.919-.839-.78-1.961-1.889-2.729-2.902-.466-.616-.46-1.47.019-2.077l2.469-3.117c.201-.252-.004-.539-.297-.414l-2.726,1.149c-1.155.488-2.373.344-3.2-.366l-2.983-2.56c-.169-.21-.505-.04-.488.246l-.399,4.042c-.105,1.053-.759,1.941-1.682,2.33l-1.974.833c-.197.084-.156.369.059.418l2.2.512c.71.165,1.233.766,1.302,1.493.092.976.406,2.464,1.352,4.131-4.196,2.426-7.805,5.648-10.651,9.483-1.792,2.415-3.282,5.073-4.423,7.928-3.468,8.664-3.332,18.112.383,26.6,3.567,8.152,10.024,14.48,18.252,17.919.341.142.682.279,1.028.411.591.226,1.186.436,1.784.629,8.206,2.648,17.025,2.202,25.035-1.303,8.009-3.505,14.321-9.681,17.944-17.506.264-.57.513-1.15.748-1.737.137-.344.269-.687.395-1.034,3.055-8.376,2.789-17.414-.779-25.566-3.715-8.489-10.563-14.998-19.28-18.33ZM434.063,78.4c1.111-2.382,2.159.569,3.399,3.258.44.955,1.473,1.831,2.426,2.584.22.175.437.342.641.503h.001c1.393,1.098,2.192,1.857-.292,2.093-1.134.108-2.2-.17-3.13-.699-.256-.145-.5-.308-.732-.489-2.226-1.721-3.398-4.922-2.313-7.25ZM463.499,145.748c-15.436,6.755-33.425-.282-40.18-15.717-6.755-15.435.281-33.425,15.717-40.18,15.435-6.755,33.425.282,40.18,15.717,6.755,15.435-.282,33.425-15.717,40.18Z"/>
            <path class="cls-2" d="M393.68,38.846l-5.559,9.751c-.004.008-.008.015-.012.023-.27.512.317,1.045.796.721l14.542-9.846c.454-.307.233-1.016-.315-1.011l-8.977.084c-.197.002-.378.108-.475.279Z"/>
            <path class="cls-2" d="M386.849,43.616c0,.044.006.088.017.13.077.297.144.592.201.884.097.5.768.604,1.02.161l14.664-25.722c.289-.506-.301-1.057-.787-.734l-15.369,10.226c-.16.106-.253.288-.246.48l.439,12.611c.045.674.064,1.327.062,1.964Z"/>
            <path class="cls-2" d="M365.007,54.096c-.016-.011-.031-.022-.047-.034l-9.317-6.2c-.164-.109-.373-.123-.55-.036l-8.06,3.954c-.492.241-.371.974.172,1.045l17.415,2.272c.574.075.86-.666.388-1.001Z"/>
            <path class="cls-2" d="M364.508,50.207c-.524-.906-1.011-1.893-1.46-2.96l-5.255-11.438c-.08-.174-.245-.295-.435-.318l-18.324-2.239c-.579-.071-.859.686-.373,1.009l25.061,16.678c.485.323,1.078-.227.786-.732Z"/>
            <path class="cls-2" d="M365.871,24.484l4.789,3.891c.282.229.704.129.853-.202l2.533-5.627c.067-.15.065-.322-.007-.47l-7.516-15.394c-.259-.53-1.056-.341-1.05.249l.194,17.13c.002.164.077.319.204.423Z"/>
            <path class="cls-2" d="M364.802,46.476c.031.074.064.145.095.218-.056-2.699.703-5.642,2.294-8.921l3.039-6.75c.103-.229.039-.498-.156-.656l-18.377-14.931c-.454-.369-1.095.128-.851.66l13.956,30.381Z"/>
            <path class="cls-2" d="M367.078,48.832c.806,3.506,3.081,5.986,5.936,6.474.582.099,1.17.215,1.745.343,2.828.63,5.872-.805,7.945-3.745,1.728-2.451,2.458-5.867,2.17-10.153l-1.166-33.445c-.02-.585-.817-.741-1.057-.208l-13.725,30.487c-1.923,3.965-2.524,7.309-1.848,10.247Z"/>
            <path class="cls-2" d="M398.824,163.03c-4.591-4.448-10.03-8.137-16.131-10.162-3.077-1.01-6.283-1.684-9.549-1.453-4.308.36-8.276,2.654-11.254,5.841-2.483,2.027-4.468,4.627-6.111,7.371-.269.496-.657,1.155-.839,1.676-.897,2.303-1.639,4.656-1.712,7.14-.079,2.51.345,4.918.725,7.182.121.651.314,1.927.442,2.581.521,2.694,1.502,5.166,2.447,7.706.84,2.27,2.055,4.651,3.632,6.532,1.172,1.45,2.455,2.701,3.811,3.926,1.379,1.244,2.737,2.411,4.402,3.388,4.298,2.497,9.344,3.055,14.217,3.225,6.1.126,12.144-2.508,16.415-6.805,2.515-2.483,4.808-5.228,6.446-8.387,1.668-3.143,2.564-6.678,2.65-10.228.066-.895.062-1.824-.027-2.796-.588-6.677-4.902-12.255-9.562-16.737ZM400.553,197.546c-3.749,4.168-8.603,7.143-14.276,7.52-2.189.173-4.346-.126-6.524-.511-3.14-.547-6.468-1.397-9.087-3.057-1.763-1.115-3.41-2.73-4.96-4.174-1.584-1.534-3.003-3.109-3.996-4.896-1.054-1.867-1.853-4.057-2.678-6.074-.877-2.097-1.388-4.185-1.841-6.38-.532-2.252-1.036-4.401-1.103-6.519-.061-1.571.182-3.156.554-4.694-.109,1.335-.09,2.681.046,4.009.872,8.234,5.708,15.369,10.836,21.585,3.367,4.113,7.364,7.222,12.751,8.108,8.503,1.579,17.09-2.65,22.689-8.854.868-.917,1.646-1.848,2.331-2.805-1.197,2.476-2.84,4.74-4.74,6.741ZM403.494,187.979c-5.108,6.877-13.774,12.239-22.549,10.657-6.213-.982-9.914-5.54-13.658-10.177-3.726-4.742-7.044-9.996-8.005-16.014-.451-2.926-.276-5.958.783-8.701,2.13-5.426,7.248-10.249,13.195-10.91,9.246-.591,18.107,5.007,24.314,11.45,3.194,3.312,6.05,6.96,7.446,11.342,1.33,4.092,1.044,8.822-1.526,12.353Z"/>
            <path class="cls-2" d="M397.969,171.63c.226-1.045-.065-2.908-2.244-6.146-2.817-4.188-5.39-6.3-7.647-6.278-1.39.013-2.263.824-2.675,1.334-1.765-3.704-6.714-3.824-10.852-3.924l-.21-.005c-1.238-.03-1.749.624-1.944,1.017-.123.248-.216.554-.223.971-.092-.02-.185-.038-.281-.05-1.835-.23-3.856,1.113-4.762,1.942l-.137.125c-1.158,1.047-3.871,3.497-4.142,9.717-.048,1.097.353,2.05,1.19,2.831.8.745,1.974,1.277,3.341,1.653-.254.183-.486.395-.691.642-.986,1.187-1.18,2.902-.592,5.242,1.475,5.877,3.995,7.24,7.482,9.125,1.32.713,2.815,1.522,4.503,2.705.991.695,1.828.856,2.489.783.382-.042.706-.163.967-.304.469-.254.875-.659,1.227-1.177.136,1.667.755,3.12,2.614,3.685,1.614.5,3.083.611,4.413.464,4.067-.451,6.822-3.32,8.34-4.902,1.409-1.467,1.869-3.628,1.174-5.505-.196-.527-.493-1.111-.933-1.687.619.092.998.13,1.017.131.159.011.422.03.73-.004.475-.053,1.056-.231,1.528-.757.87-.968,1.039-2.723.533-5.524-.707-3.917-2.858-5.49-4.218-6.105ZM385.881,171.132c.248-3.94.6-8.624.798-9.438.196-.276.655-.765,1.415-.772.925-.009,2.961.696,6.206,5.519,2.215,3.293,2.049,4.58,1.944,4.899l-7.767,2.529c-.832.2-1.441.295-1.698.239,0,0,.059.013.135.068l-.089.123c-.219-.545-.591-1.036-1.049-1.414.014-.171.056-.724.105-1.755ZM373.941,158.38s.081-.06.358-.053l.21.005c5.982.145,9.899.618,9.842,5.671-.038,3.323-.117,5.592-.183,6.992-.022.355-.044.727-.067,1.107-.385-.106-.768-.189-1.194-.249-.394-.06-.744-.046-1.047.023-.761-.972-2.701-3.492-4.473-6.157-4.128-6.208-3.454-7.33-3.446-7.339ZM365.212,171.907c-.466-.434-.671-.911-.645-1.5.239-5.502,2.494-7.539,3.578-8.518l.146-.132c.717-.656,2.271-1.646,3.391-1.505.408.051.715.253.967.637l.048-.031c.544,1.381,1.583,3.308,3.432,6.064,1.91,2.847,3.963,5.481,4.557,6.235-.015.154-.009.319.017.493-1.501.141-3.653.267-5.901.251-.183-.01-.369-.022-.558-.033-.818-.05-1.698-.103-2.572-.096-2.761-.221-5.272-.758-6.458-1.864ZM383.114,183.471c-.323,3.81-1.073,7.316-2.389,8.029-.155.084-.63.342-1.653-.375-1.77-1.24-3.311-2.074-4.672-2.809-3.445-1.863-5.343-2.889-6.634-8.033-.439-1.747-.355-3.001.248-3.727.502-.605,1.39-.886,2.425-1.001.324-.036.662-.054,1.008-.062,1.237.106,2.494.145,3.687.144.471.023.92.036,1.33.024,2.407-.072,3.871-.211,4.629-.302.349.589,1.02,1.491,2.174,2.297-.077,2.844-.124,4.659-.152,5.816ZM382.29,173.776c-.109-.22-.17-.446-.169-.525,0-.007,0-.01-.001-.013.007-.003.012-.006.02-.009.526-.141,1.291.036,1.85.181.833.159,1.374.738,1.416,1.459l-.026.009.029.105c-.003.19-.038.388-.113.59-.15.542-.506.526-.975.34-.897-.4-1.615-1.242-2.031-2.137ZM396.898,189.891c-2.647,2.758-5.898,5.568-11.011,3.985-1.64-.498-1.561-2.433-1.254-5.33.118-1.116.23-2.171.156-3.109,0-.131.011-.678.03-1.463.208-2.343.219-4.569.198-5.909.12-.007.23-.017.331-.029.058.077.125.16.197.247.383.473.826.909,1.315,1.311,1.254,1.054,3.227,2.264,6.192,3.084.382.119.759.229,1.127.33,1.786.614,2.97,1.675,3.522,3.163.468,1.264.153,2.724-.803,3.72ZM400.376,182.111c-.158.176-.392.228-.859.195-.688-.049-2.635-.333-4.853-.944-.25-.084-.508-.164-.783-.235-.078-.02-.152-.041-.228-.062-1.935-.604-3.956-1.456-5.467-2.611-.712-.566-1.173-1.078-1.437-1.416.184-.287.36-.617.46-.952l1.814-.591c1.584-.361,4.001-1.097,7.717-2.5.689.195,3.052,1.14,3.756,5.043.534,2.959.094,3.833-.12,4.072Z"/>
            <path class="cls-2" d="M469.676,190.078c-.76-.066-18.565-1.802-19.59-19.749-.003-.087-.008-.144-.009-.168-.033-.486-.449-.846-.939-.827-.487.028-.859.445-.835.932.002.027.003.052.004.079.039.846.299,9.584-4.933,15.224-2.985,3.216-7.236,4.873-12.637,4.924-.48.004-.869.389-.879.869-.011.479.362.88.84.906.76.04,18.622,1.211,19.29,20.772.016.48.41.858.886.858.011,0,.021-.001.031-.001.491-.016.874-.427.858-.917v-.002c-.028-.86-.446-20.247,17.88-21.127.467-.022.836-.403.845-.87.009-.468-.346-.862-.812-.902ZM450.784,206.352c-2.579-9.216-9.605-13.098-14.598-14.719,3.417-.826,6.263-2.454,8.498-4.866,2.797-3.018,4.163-6.743,4.823-9.9,2.904,8.67,10.257,12.377,15.197,13.923-9.132,2.372-12.604,9.912-13.92,15.562Z"/>
            <path class="cls-2" d="M377.981,124.723c.127.364.469.595.838.595.078,0,.158-.01.237-.032.451-.125.728-.577.634-1.035-.154-.747-3.552-18.313,13.366-24.396.081-.028.134-.048.157-.056.457-.17.692-.677.526-1.135-.166-.459-.672-.697-1.131-.535-.025.009-.049.017-.074.026-.794.277-9.1,3.013-15.998-.403-3.932-1.947-6.729-5.552-8.313-10.715-.14-.457-.617-.722-1.082-.596-.463.126-.742.596-.631,1.062.176.741,4.095,18.212-14.431,24.398-.464.156-.716.658-.561,1.123.155.464.657.718,1.122.562.785-.26,19.291-6.171,25.341,11.137Z"/>
            <path class="cls-2" d="M436.432,36.152c.702.059,17.132,1.644,18.142,18.651.004.082.008.136.01.16.035.504.454.89.952.89.02,0,.039,0,.06-.002.523-.032.923-.481.895-1.005-.001-.026-.002-.05-.004-.075-.038-.807-.317-9.239,4.626-14.599,2.726-2.955,6.588-4.487,11.482-4.554.516-.007.933-.422.942-.938.01-.516-.391-.946-.907-.972-.701-.035-17.173-1.08-17.86-19.623-.02-.527-.449-.909-.99-.92-.528.02-.939.462-.92.99v.004c.031.842.473,19.19-16.398,20.087-.502.026-.897.437-.905.939s.375.925.875.967ZM453.938,20.979c2.482,8.26,8.651,11.877,13.207,13.449-2.968.811-5.461,2.301-7.446,4.457-2.562,2.783-3.86,6.213-4.511,9.191-2.769-7.774-9.222-11.221-13.745-12.721,8.02-2.334,11.222-9.096,12.496-14.376Z"/>
          </g>
        </g>
        <g>
          <rect class="cls-4" x="111.675" y="111.675" width="223.35" height="223.35"/>
          <g class="cls-3">
            <path class="cls-2" d="M247.533,220.149c-1.637-.497-3.182.56-4.971,1.785-1.002.686-2.039,1.395-3.086,1.831-1.369.569-4.087-.062-6.486-.619-3.033-.703-5.898-1.367-8.032-.433h0c-2.134.934-3.59,3.489-5.131,6.195-1.219,2.14-2.601,4.565-3.947,5.184-1.031.473-2.254.754-3.439,1.024-2.114.483-3.939.9-4.684,2.441-.409.846-.363,1.808.139,2.858,1.206,2.528,6,3.988,10.085,4.513,3.272.42,9.681.722,15.837-1.972,6.156-2.694,10.282-7.608,12.194-10.296,2.386-3.357,4.567-7.869,3.528-10.471-.432-1.08-1.107-1.767-2.006-2.041ZM232.553,240.068c-3.743,1.638-8.523,2.295-13.246,1.837,1.264-.712,2.492-1.566,3.747-2.44,2.18-1.517,4.434-3.087,7.329-4.354h0c2.896-1.267,5.578-1.858,8.171-2.429,1.494-.33,2.954-.651,4.335-1.098-2.867,3.78-6.593,6.846-10.337,8.484ZM246.034,226.237c-1.931,1.993-4.68,2.599-8.157,3.365-2.615.577-5.578,1.23-8.757,2.621h0c-3.179,1.391-5.67,3.125-7.867,4.654-2.922,2.034-5.232,3.642-8.006,3.709-1.497-.572-2.336-1.172-2.506-1.528-.028-.058-.048-.107-.063-.147.453-.26,1.646-.533,2.466-.72,1.279-.292,2.728-.622,4.055-1.234,2.266-1.043,3.843-3.811,5.368-6.487,1.163-2.04,2.48-4.352,3.656-4.867h0c1.176-.515,3.769.086,6.056.616,3.001.696,6.104,1.416,8.407.459,1.347-.559,2.575-1.401,3.658-2.142.694-.474,1.704-1.165,2.202-1.322.02.039.042.086.066.147.146.366.019,1.389-.578,2.877Z"/>
            <path class="cls-2" d="M213.273,234.105c3.676-.486,6.181-4.474,5.594-8.907-.587-4.433-4.041-7.633-7.718-7.146-3.676.486-6.18,4.474-5.594,8.907.021.155.046.308.073.46-.055.025-.11.05-.165.073-.673.286-1.479.307-2.042-.245-.041-.045-.122,0-.106.058.267,1.259,1.647,1.858,2.845,1.976,1.27,3.17,4.118,5.219,7.112,4.823ZM215.949,226.153c.314-.03.527.118.624.323.247.529-.079,1.203-.728,1.507-.34.159-.766.287-1.086.201-.271-.072-.364-.301-.389-.53-.011-.103.005-.217.069-.324.078-.131.216-.236.336-.348.124-.116.241-.239.356-.36.225-.235.469-.435.817-.468ZM212.74,221.47c.944-.236,1.965.601,2.282,1.869.317,1.268-.192,2.486-1.136,2.722-.944.235-1.966-.601-2.282-1.868-.316-1.268.192-2.486,1.136-2.722Z"/>
            <path class="cls-2" d="M241.254,221.859c2.323-1.931,2.749-5.413,1.283-8.497.726-.96,1.224-2.38.479-3.431-.033-.051-.119-.022-.115.039.024.788-.538,1.366-1.205,1.666-.055.025-.11.048-.166.071-.093-.124-.189-.246-.289-.366-2.859-3.439-7.487-4.305-10.339-1.935-2.851,2.37-2.846,7.079.013,10.518,2.859,3.439,7.487,4.305,10.339,1.935ZM239.092,216.311c.034-.18.147-.342.237-.506.093-.172.174-.351.255-.526.157-.341.352-.643.737-.76.348-.105.656.032.854.268.51.605.424,1.516-.191,2.034-.322.272-.756.523-1.16.485-.342-.032-.547-.297-.673-.577-.057-.126-.087-.271-.06-.418ZM235.63,211.562c.744-.628,1.997-.366,2.799.585.802.951.849,2.23.105,2.858-.744.628-1.998.366-2.799-.585-.802-.951-.849-2.23-.104-2.858Z"/>
            <path class="cls-2" d="M240.53,196.34c-2.872-1.098-5.836-1.808-8.825-2.13-4.184-.451-8.42-.143-12.534.919-.839-.78-1.961-1.889-2.729-2.902-.466-.616-.46-1.47.019-2.077l2.469-3.117c.201-.252-.004-.539-.297-.414l-2.726,1.149c-1.155.488-2.373.344-3.2-.366l-2.983-2.56c-.169-.21-.505-.04-.488.246l-.399,4.042c-.105,1.053-.759,1.941-1.682,2.33l-1.974.833c-.197.084-.156.369.059.418l2.2.512c.71.165,1.233.766,1.302,1.493.092.976.406,2.464,1.352,4.131-4.196,2.426-7.805,5.648-10.651,9.483-1.792,2.415-3.282,5.073-4.423,7.928-3.468,8.664-3.332,18.112.383,26.6,3.567,8.152,10.024,14.48,18.252,17.919.341.142.682.279,1.028.411.591.226,1.186.436,1.784.629,8.206,2.648,17.025,2.202,25.035-1.303,8.009-3.505,14.321-9.681,17.944-17.506.264-.57.513-1.15.748-1.737.137-.344.269-.687.395-1.034,3.055-8.376,2.789-17.414-.779-25.566-3.715-8.489-10.563-14.998-19.28-18.33ZM210.713,190.075c1.111-2.382,2.159.569,3.399,3.258.44.955,1.473,1.831,2.426,2.584.22.175.437.342.641.503h.001c1.393,1.098,2.192,1.857-.292,2.093-1.134.108-2.2-.17-3.13-.699-.256-.145-.5-.308-.732-.489-2.226-1.721-3.398-4.922-2.313-7.25ZM240.149,257.423c-15.436,6.755-33.425-.282-40.18-15.717-6.755-15.435.281-33.425,15.717-40.18,15.435-6.755,33.425.282,40.18,15.717,6.755,15.435-.282,33.425-15.717,40.18Z"/>
            <path class="cls-2" d="M170.33,150.521l-5.559,9.751c-.004.008-.008.015-.012.023-.27.512.317,1.045.796.721l14.542-9.846c.454-.307.233-1.016-.315-1.011l-8.977.084c-.197.002-.378.108-.475.279Z"/>
            <path class="cls-2" d="M163.499,155.291c0,.044.006.088.017.13.077.297.144.592.201.884.097.5.768.604,1.02.161l14.664-25.722c.289-.506-.301-1.057-.787-.734l-15.369,10.226c-.16.106-.253.288-.246.48l.439,12.611c.045.674.064,1.327.062,1.964Z"/>
            <path class="cls-2" d="M141.657,165.771c-.016-.011-.031-.022-.047-.034l-9.317-6.2c-.164-.109-.373-.123-.55-.036l-8.06,3.954c-.492.241-.371.974.172,1.045l17.415,2.272c.574.075.86-.666.388-1.001Z"/>
            <path class="cls-2" d="M141.158,161.882c-.524-.906-1.011-1.893-1.46-2.96l-5.255-11.438c-.08-.174-.245-.295-.435-.318l-18.324-2.239c-.579-.071-.859.686-.373,1.009l25.061,16.678c.485.323,1.078-.227.786-.732Z"/>
            <path class="cls-2" d="M142.521,136.159l4.789,3.891c.282.229.704.129.853-.202l2.533-5.627c.067-.15.065-.322-.007-.47l-7.516-15.394c-.259-.53-1.056-.341-1.05.249l.194,17.13c.002.164.077.319.204.423Z"/>
            <path class="cls-2" d="M141.452,158.151c.031.074.064.145.095.218-.056-2.699.703-5.642,2.294-8.921l3.039-6.75c.103-.229.039-.498-.156-.656l-18.377-14.931c-.454-.369-1.095.128-.851.66l13.956,30.381Z"/>
            <path class="cls-2" d="M143.728,160.507c.806,3.506,3.081,5.986,5.936,6.474.582.099,1.17.215,1.745.343,2.828.63,5.872-.805,7.945-3.745,1.728-2.451,2.458-5.867,2.17-10.153l-1.166-33.445c-.02-.585-.817-.741-1.057-.208l-13.725,30.487c-1.923,3.965-2.524,7.309-1.848,10.247Z"/>
            <path class="cls-2" d="M317.147,167.848c.288.138.632.091.872-.12l.004-.004,6.278-3.03c3.634-1.754,6.194-5.155,6.849-9.098,1.85-11.138-5.51-16.965-10.454-19.567-.674-.381-1.391-.751-2.157-1.106-12.26-5.531-26.705-6.307-37.826,2.195-2.827,2.164-5.335,4.757-7.272,7.75-.047.083-.254.397-.288.47-.002.003-.004.005-.006.008-.298.419-.108,1.011.353,1.238,12.876,6.321,30.893,15.213,43.516,21.203l.131.063ZM329.131,149.231c.358,1.877.367,3.887.011,6.031-.546,3.291-2.687,6.132-5.726,7.599l-1.049.506c3.872-4.456,6.517-9.413,6.764-14.136ZM316.135,165.105c-4.735-2.27-10.127-4.826-15.662-7.434.881.037,1.758.086,2.622.137,2.741.163,5.574.331,8.467.031.546-.057.99-.525.958-1.074-.034-.585-.548-1.016-1.124-.955-2.743.291-5.508.126-8.181-.033-1.407-.084-2.847-.163-4.299-.185,2.606-.952,5.149-1.923,7.623-2.87,4.472-1.711,8.697-3.328,13.218-4.817.507-.167.85-.684.734-1.204-.133-.597-.746-.933-1.312-.748-4.589,1.509-8.853,3.141-13.367,4.868-3.097,1.185-6.298,2.41-9.592,3.581-.132.019-.28.022-.437.013.002-.02.004-.039.005-.058l7.849-7.655c.402-.393.41-1.037.018-1.439-.392-.4-1.036-.41-1.439-.018l-8.417,8.209,2.582-8.229c.168-.536-.13-1.107-.666-1.275-.547-.179-1.107.131-1.275.666l-2.663,8.487-2.786-7.645c-.182-.5-.708-.824-1.223-.692-.593.151-.913.775-.708,1.336l2.317,6.359c-4.845-2.268-9.528-4.451-13.7-6.39-.218-.102-.289-.379-.145-.572,2.298-3.083,5.215-5.706,8.497-7.714l1.51,4.146c.117.32.377.546.682.632.203.057.425.052.638-.03.528-.202.765-.825.571-1.356l-1.608-4.411c.275-.144.552-.284.832-.42,3.557-1.726,7.384-2.618,11.27-2.839l-2.052,6.54c-.168.536.13,1.107.666,1.276.01.003.021.006.031.009.527.148,1.08-.149,1.245-.675l2.258-7.198c4.108.024,8.237.758,12.141,2.036l-6.359,6.201c-.402.392-.41,1.037-.018,1.439.13.133.286.222.453.269.338.095.716.012.986-.251l7.099-6.923c4.274,1.54,8.412,3.623,10.833,7.511,0,.003-.001.003-.002.006-.597.212-1.194.425-1.789.641-.488.177-.807.683-.694,1.19.087.39.375.667.721.764.197.055.414.052.621-.024.655-.238,1.311-.472,1.967-.705,1.105,3.378.26,6.983-1.46,10.363l-8.534-.113c-.55-.007-1.048.397-1.085.946-.034.496.289.924.74,1.05.083.023.171.036.262.038l7.479.099c-1.552,2.503-3.485,4.819-5.314,6.746-.512.539-1.314.683-1.984.362Z"/>
            <path class="cls-2" d="M175.474,274.705c-4.591-4.448-10.03-8.137-16.131-10.162-3.077-1.01-6.283-1.684-9.549-1.453-4.308.36-8.276,2.654-11.254,5.841-2.483,2.027-4.468,4.627-6.111,7.371-.269.496-.657,1.155-.839,1.676-.897,2.303-1.639,4.656-1.712,7.14-.079,2.51.345,4.918.725,7.182.121.651.314,1.927.442,2.581.521,2.694,1.502,5.166,2.447,7.706.84,2.27,2.055,4.651,3.632,6.532,1.172,1.45,2.455,2.701,3.811,3.926,1.379,1.244,2.737,2.411,4.402,3.388,4.298,2.497,9.344,3.055,14.217,3.225,6.1.126,12.144-2.508,16.415-6.805,2.515-2.483,4.808-5.228,6.446-8.387,1.668-3.143,2.564-6.678,2.65-10.228.066-.895.062-1.824-.027-2.796-.588-6.677-4.902-12.255-9.562-16.737ZM177.203,309.221c-3.749,4.168-8.603,7.143-14.276,7.52-2.189.173-4.346-.126-6.524-.511-3.14-.547-6.468-1.397-9.087-3.057-1.763-1.115-3.41-2.73-4.96-4.174-1.584-1.534-3.003-3.109-3.996-4.896-1.054-1.867-1.853-4.057-2.678-6.074-.877-2.097-1.388-4.185-1.841-6.38-.532-2.252-1.036-4.401-1.103-6.519-.061-1.571.182-3.156.554-4.694-.109,1.335-.09,2.681.046,4.009.872,8.234,5.708,15.369,10.836,21.585,3.367,4.113,7.364,7.222,12.751,8.108,8.503,1.579,17.09-2.65,22.689-8.854.868-.917,1.646-1.848,2.331-2.805-1.197,2.476-2.84,4.74-4.74,6.741ZM180.144,299.654c-5.108,6.877-13.774,12.239-22.549,10.657-6.213-.982-9.914-5.54-13.658-10.177-3.726-4.742-7.044-9.996-8.005-16.014-.451-2.926-.276-5.958.783-8.701,2.13-5.426,7.248-10.249,13.195-10.91,9.246-.591,18.107,5.007,24.314,11.45,3.194,3.312,6.05,6.96,7.446,11.342,1.33,4.092,1.044,8.822-1.526,12.353Z"/>
            <path class="cls-2" d="M174.619,283.304c.226-1.045-.065-2.908-2.244-6.146-2.817-4.188-5.39-6.3-7.647-6.278-1.39.013-2.263.824-2.675,1.334-1.765-3.704-6.714-3.824-10.852-3.924l-.21-.005c-1.238-.03-1.749.624-1.944,1.017-.123.248-.216.554-.223.971-.092-.02-.185-.038-.281-.05-1.835-.23-3.856,1.113-4.762,1.942l-.137.125c-1.158,1.047-3.871,3.497-4.142,9.717-.048,1.097.353,2.05,1.19,2.831.8.745,1.974,1.277,3.341,1.653-.254.183-.486.395-.691.642-.986,1.187-1.18,2.902-.592,5.242,1.475,5.877,3.995,7.24,7.482,9.125,1.32.713,2.815,1.522,4.503,2.705.991.695,1.828.856,2.489.783.382-.042.706-.163.967-.304.469-.254.875-.659,1.227-1.177.136,1.667.755,3.12,2.614,3.685,1.614.5,3.083.611,4.413.464,4.067-.451,6.822-3.32,8.34-4.902,1.409-1.467,1.869-3.628,1.174-5.505-.196-.527-.493-1.111-.933-1.687.619.092.998.13,1.017.131.159.011.422.03.73-.004.475-.053,1.056-.231,1.528-.757.87-.968,1.039-2.723.533-5.524-.707-3.917-2.858-5.49-4.218-6.105ZM162.532,282.807c.248-3.94.6-8.624.798-9.438.196-.276.655-.765,1.415-.772.925-.009,2.961.696,6.206,5.519,2.215,3.293,2.049,4.58,1.944,4.899l-7.767,2.529c-.832.2-1.441.295-1.698.239,0,0,.059.013.135.068l-.089.123c-.219-.545-.591-1.036-1.049-1.414.014-.171.056-.724.105-1.755ZM150.591,270.055s.081-.06.358-.053l.21.005c5.982.145,9.899.618,9.842,5.671-.038,3.323-.117,5.592-.183,6.992-.022.355-.044.727-.067,1.107-.385-.106-.768-.189-1.194-.249-.394-.06-.744-.046-1.047.023-.761-.972-2.701-3.492-4.473-6.157-4.128-6.208-3.454-7.33-3.446-7.339ZM141.862,283.582c-.466-.434-.671-.911-.645-1.5.239-5.502,2.494-7.539,3.578-8.518l.146-.132c.717-.656,2.271-1.646,3.391-1.505.408.051.715.253.967.637l.048-.031c.544,1.381,1.583,3.308,3.432,6.064,1.91,2.847,3.963,5.481,4.557,6.235-.015.154-.009.319.017.493-1.501.141-3.653.267-5.901.251-.183-.01-.369-.022-.558-.033-.818-.05-1.698-.103-2.572-.096-2.761-.221-5.272-.758-6.458-1.864ZM159.764,295.146c-.323,3.81-1.073,7.316-2.389,8.029-.155.084-.63.342-1.653-.375-1.77-1.24-3.311-2.074-4.672-2.809-3.445-1.863-5.343-2.889-6.634-8.033-.439-1.747-.355-3.001.248-3.727.502-.605,1.39-.886,2.425-1.001.324-.036.662-.054,1.008-.062,1.237.106,2.494.145,3.687.144.471.023.92.036,1.33.024,2.407-.072,3.871-.211,4.629-.302.349.589,1.02,1.491,2.174,2.297-.077,2.844-.124,4.659-.152,5.816ZM158.94,285.451c-.109-.22-.17-.446-.169-.525,0-.007,0-.01-.001-.013.007-.003.012-.006.02-.009.526-.141,1.291.036,1.85.181.833.159,1.374.738,1.416,1.459l-.026.009.029.105c-.003.19-.038.388-.113.59-.15.542-.506.526-.975.34-.897-.4-1.615-1.242-2.031-2.137ZM173.548,301.565c-2.647,2.758-5.898,5.568-11.011,3.985-1.64-.498-1.561-2.433-1.254-5.33.118-1.116.23-2.171.156-3.109,0-.131.011-.678.03-1.463.208-2.343.219-4.569.198-5.909.12-.007.23-.017.331-.029.058.077.125.16.197.247.383.473.826.909,1.315,1.311,1.254,1.054,3.227,2.264,6.192,3.084.382.119.759.229,1.127.33,1.786.614,2.97,1.675,3.522,3.163.468,1.264.153,2.724-.803,3.72ZM177.026,293.786c-.158.176-.392.228-.859.195-.688-.049-2.635-.333-4.853-.944-.25-.084-.508-.164-.783-.235-.078-.02-.152-.041-.228-.062-1.935-.604-3.956-1.456-5.467-2.611-.712-.566-1.173-1.078-1.437-1.416.184-.287.36-.617.46-.952l1.814-.591c1.584-.361,4.001-1.097,7.717-2.5.689.195,3.052,1.14,3.756,5.043.534,2.959.094,3.833-.12,4.072Z"/>
            <path class="cls-2" d="M331.5,287.956c-.153-.977-.468-1.904-.721-2.856-.268-1.011-.385-2.049-.519-3.083-.141-1.088-.284-2.185-.613-3.235-.141-.451-.267-.904-.384-1.362-.38-1.487-.737-2.982-1.21-4.443-.25-.771-.531-1.538-.886-2.267-.139-.286-.301-.58-.491-.851-.151-.419-.441-.772-.919-.885-.591-.14-1.296.016-1.906-.013-1.217-.058-2.36-.291-3.658-.658-2.89-.816-5.561-2.078-8.195-3.527-2.493-1.372-4.903-2.908-7.197-4.592-.455-.334-.898-.776-1.451-.935-.468-.135-.99-.086-1.442.085-1.086.41-1.978,1.225-2.819,2.002-.439.406-.868.822-1.306,1.229-.201.187-.403.372-.61.552-.091.08-.184.158-.277.235-.045.037-.091.073-.136.11-.012.01-.016.014-.024.021-.008.005-.013.008-.025.016-.175.117-.349.231-.529.341-.03.018-.074.03-.103.051-.229.072-.46.184-.669.299-.789.433-1.485,1.1-2.137,1.714-1.279,1.204-2.311,2.619-3.379,4.006-.833,1.083-1.729,2.079-2.696,3.041-.963.959-1.939,1.914-2.791,2.976-.791.986-1.596,2.103-1.816,3.378-.066.381-.08.768-.033,1.149-.386,2.317.314,4.574.874,6.805.265,1.055.456,1.984.472,3.031.021,1.349.187,2.697.447,4.021.504,2.56,1.39,5.027,2.317,7.459.237.621.477,1.24.715,1.86.23.597.43,1.234.806,1.759.796,1.113,2.225,1.519,3.428,2.044,2.556,1.114,5.116,2.217,7.667,3.342,1.11.489,2.225,1.011,3.168,1.785.983.808,1.915,1.579,3.154,1.96,1.215.373,2.522.392,3.782.373.67-.01,1.348-.046,1.971-.228,1.658-.078,3.07-1.13,4.238-2.228,1.252-1.177,2.316-2.531,3.451-3.816,1.33-1.505,2.764-2.914,4.078-4.435,1.407-1.627,2.746-3.343,3.8-5.224.49-.874.867-1.787,1.266-2.704.182-.419.386-.842.657-1.212.307-.419.695-.78,1.044-1.163.726-.8,1.309-1.693,1.566-2.754.255-1.051.209-2.113.043-3.172ZM284.658,279.83c.002.073.04-.228.06-.301.031-.117.074-.23.111-.346.004-.013.015-.04.023-.062.018-.041.037-.082.056-.122.125-.261.27-.511.425-.755.641-1.004,1.492-1.896,2.398-2.816.806-.819,1.654-1.602,2.411-2.467,1.082-1.237,2.01-2.597,3.059-3.86.527-.635,1.087-1.241,1.694-1.801.546-.504,1.109-1.063,1.793-1.373.97-.441,1.746-1.067,2.528-1.79.808-.747,1.582-1.54,2.447-2.223.037-.026.158-.118.187-.138.092-.064.184-.127.279-.186.089-.055.179-.109.272-.158.039-.021.082-.039.12-.061.075-.02.161-.045.233-.071,0,0,0,0,0,0,.003,0,.004,0,.007,0,.006.005.008.008.015.014.914.769,1.943,1.437,2.931,2.106,1.161.785,2.346,1.535,3.552,2.248,2.557,1.509,5.221,2.861,8.002,3.907,2.329.876,4.865,1.584,7.379,1.521-.005.033-.01.066-.015.099-.021.135-.044.27-.067.404-.052.306-.103.613-.137.922,0,0,0,.002-.001.002-.06.093-.127.182-.193.271-.027.036-.054.072-.081.108-.015.02-.036.047-.055.071-.304.387-.651.763-.92,1.176-.376.579-.65,1.24-1.004,1.836-.404.68-.838,1.343-1.295,1.989-.917,1.297-1.932,2.521-2.987,3.707-2.167,2.436-4.511,4.706-6.752,7.072-.385.406-.761.821-1.137,1.234-3.724-1.495-7.369-3.187-10.916-5.065-1.837-.972-3.614-2.04-5.424-3.059-1.294-.728-2.819-1.026-4.274-1.223-1.519-.206-3.095-.31-4.619-.071-.005-.016-.005-.032-.011-.048-.037-.103-.058-.211-.094-.314-.002-.005-.002-.006-.004-.01-.003-.037-.008-.074-.007-.111,0-.086.005-.171.009-.257ZM311.607,311.558c-.018.074-.038.147-.061.22,0-.002-.073.175-.081.204-.042.085-.088.168-.14.247-.123.185-.06.08-.031.046-.245.287-.504.409-.972.456-1.053.104-2.224.099-3.269-.063-1.143-.177-1.987-.69-2.86-1.419-.922-.77-1.884-1.406-2.97-1.922-2.327-1.105-4.725-2.076-7.086-3.105-1.15-.501-2.327-.966-3.456-1.512-.462-.223-.731-.434-.949-.9-.253-.54-.438-1.119-.653-1.675-.878-2.28-1.749-4.572-2.349-6.944-.326-1.288-.571-2.596-.659-3.922-.081-1.229-.099-2.412-.361-3.624-.341-1.577-.966-3.281-1.13-4.925.104.005.209.001.314-.02.041-.008.298-.05.314-.056.103-.012.205-.024.308-.032.357-.03.715-.042,1.072-.043.763-.001,1.526.049,2.284.138.568.067,1.367.212,2.035.383.317.082.631.174.94.283.046.016.271.106.299.114.122.055.243.111.36.175,1.799.979,3.541,2.06,5.352,3.022,1.831.973,3.689,1.897,5.569,2.77,2.013.935,4.054,1.81,6.116,2.633.021.084.047.167.083.248.873,1.967,1.423,4.15,1.484,6.304.032,1.133-.123,2.195-.393,3.293-.296,1.203-.628,2.451-.521,3.701.103,1.197.576,2.257,1.004,3.364.182.47.362.958.443,1.458,0,.028.022.235.022.228.004.078.006.156.006.234,0,.322-.012.407-.067.638ZM328.964,291.629c-.518.85-1.337,1.485-1.92,2.293-.577.799-.871,1.745-1.28,2.632-1.669,3.621-4.465,6.571-7.179,9.43-1.267,1.335-2.408,2.782-3.673,4.118-.35.37-.73.751-1.113,1.091.007-.131.009-.261.005-.391-.033-1.202-.517-2.277-.949-3.377-.225-.573-.455-1.174-.525-1.79-.074-.652.024-1.309.161-1.945.309-1.44.714-2.829.754-4.313.073-2.724-.619-5.446-1.699-7.932,4.43-4.849,9.586-9.205,12.822-15.004.186-.333.36-.671.534-1.011.042-.082.083-.146.126-.223.008-.015.011-.021.017-.032.008-.007.021-.021.051-.057.337-.42.678-.841.994-1.277.343,1.094.63,2.206.91,3.317.299,1.187.702,2.366.928,3.567.187.993.283,2.001.424,3,.147,1.034.402,2.013.686,3.016.449,1.586.834,3.399-.074,4.888Z"/>
            <path class="cls-2" d="M246.326,301.753c-.76-.066-18.565-1.802-19.59-19.749-.003-.087-.008-.144-.009-.168-.033-.486-.449-.846-.939-.827-.487.028-.859.445-.835.932.002.027.003.052.004.079.039.846.299,9.584-4.933,15.224-2.985,3.216-7.236,4.873-12.637,4.924-.48.004-.869.389-.879.869-.011.479.362.88.84.906.76.04,18.622,1.211,19.29,20.772.016.48.41.858.886.858.011,0,.021-.001.031-.001.491-.016.874-.427.858-.917v-.002c-.028-.86-.446-20.247,17.88-21.127.467-.022.836-.403.845-.87.009-.468-.346-.862-.812-.902ZM227.434,318.027c-2.579-9.216-9.605-13.098-14.598-14.719,3.417-.826,6.263-2.454,8.498-4.866,2.797-3.018,4.163-6.743,4.823-9.9,2.904,8.67,10.257,12.377,15.197,13.923-9.132,2.372-12.604,9.912-13.92,15.562Z"/>
            <path class="cls-2" d="M154.631,236.398c.127.364.469.595.838.595.078,0,.158-.01.237-.032.451-.125.728-.577.634-1.035-.154-.747-3.552-18.313,13.366-24.396.081-.028.134-.048.157-.056.457-.17.692-.677.526-1.135-.166-.459-.672-.697-1.131-.535-.025.009-.049.017-.074.026-.794.277-9.1,3.013-15.998-.403-3.932-1.947-6.729-5.552-8.313-10.715-.14-.457-.617-.722-1.082-.596-.463.126-.742.596-.631,1.062.176.741,4.095,18.212-14.431,24.398-.464.156-.716.658-.561,1.123.155.464.657.718,1.122.562.785-.26,19.291-6.171,25.341,11.137Z"/>
            <path class="cls-2" d="M296.073,238.656c.311.35.839.397,1.209.111.149-.115,14.845-11.286,27.79,1.233.061.06.103.099.12.116.172.163.391.244.611.244.233,0,.466-.091.639-.272.339-.351.33-.91-.019-1.251-.019-.019-.037-.037-.056-.055-.601-.595-6.719-6.84-6.696-14.535.012-4.388,2.014-8.488,5.949-12.187.349-.328.374-.874.057-1.234-.315-.359-.862-.404-1.232-.097-.587.484-14.539,11.705-28.26-2.185-.001,0-.001-.001-.001-.001h-.001c-.344-.349-.905-.353-1.256-.009-.349.345-.353.907-.009,1.256.001,0,.001,0,.001,0,.001.001,0,0,.001.002.607.616,14.054,14.58,1.183,27.651-.328.333-.342.864-.031,1.213Z"/>
            <path class="cls-2" d="M213.082,147.827c.702.059,17.132,1.644,18.142,18.651.004.082.008.136.01.16.035.504.454.89.952.89.02,0,.039,0,.06-.002.523-.032.923-.481.895-1.005-.001-.026-.002-.05-.004-.075-.038-.807-.317-9.239,4.626-14.599,2.726-2.955,6.588-4.487,11.482-4.554.516-.007.933-.422.942-.938.01-.516-.391-.946-.907-.972-.701-.035-17.173-1.08-17.86-19.623-.02-.527-.449-.909-.99-.92-.528.02-.939.462-.92.99v.004c.031.842.473,19.19-16.398,20.087-.502.026-.897.437-.905.939s.375.925.875.967ZM230.588,132.654c2.482,8.26,8.651,11.877,13.207,13.449-2.968.811-5.461,2.301-7.446,4.457-2.562,2.783-3.86,6.213-4.511,9.191-2.769-7.774-9.222-11.221-13.745-12.721,8.02-2.334,11.222-9.096,12.496-14.376Z"/>
          </g>
        </g>
        <g>
          <rect class="cls-4" x="-111.675" y="0" width="223.35" height="223.35"/>
          <g class="cls-3">
            <path class="cls-2" d="M24.183,108.474c-1.637-.497-3.182.56-4.971,1.785-1.002.686-2.039,1.395-3.086,1.831-1.369.569-4.087-.062-6.486-.619-3.033-.703-5.898-1.367-8.032-.433h0c-2.134.934-3.59,3.489-5.131,6.195-1.219,2.14-2.601,4.565-3.947,5.184-1.031.473-2.254.754-3.439,1.024-2.114.483-3.939.9-4.684,2.441-.409.846-.363,1.808.139,2.858,1.206,2.528,6,3.988,10.085,4.513,3.272.42,9.681.722,15.837-1.972,6.156-2.694,10.282-7.608,12.194-10.296,2.386-3.357,4.567-7.869,3.528-10.471-.432-1.08-1.107-1.767-2.006-2.041ZM9.203,128.393c-3.743,1.638-8.523,2.295-13.246,1.837,1.264-.712,2.492-1.566,3.747-2.44,2.18-1.517,4.434-3.087,7.329-4.354h0c2.896-1.267,5.578-1.858,8.171-2.429,1.494-.33,2.954-.651,4.335-1.098-2.867,3.78-6.593,6.846-10.337,8.484ZM22.684,114.563c-1.931,1.993-4.68,2.599-8.157,3.365-2.615.577-5.578,1.23-8.757,2.621h0c-3.179,1.391-5.67,3.125-7.867,4.654-2.922,2.034-5.232,3.642-8.006,3.709-1.497-.572-2.336-1.172-2.506-1.528-.028-.058-.048-.107-.063-.147.453-.26,1.646-.533,2.466-.72,1.279-.292,2.728-.622,4.055-1.234,2.266-1.043,3.843-3.811,5.368-6.487,1.163-2.04,2.48-4.352,3.656-4.867h0c1.176-.515,3.769.086,6.056.616,3.001.696,6.104,1.416,8.407.459,1.347-.559,2.575-1.401,3.658-2.142.694-.474,1.704-1.165,2.202-1.322.02.039.042.086.066.147.146.366.019,1.389-.578,2.877Z"/>
            <path class="cls-2" d="M17.904,110.184c2.323-1.931,2.749-5.413,1.283-8.497.726-.96,1.224-2.38.479-3.431-.033-.051-.119-.022-.115.039.024.788-.538,1.366-1.205,1.666-.055.025-.11.048-.166.071-.093-.124-.189-.246-.289-.366-2.859-3.439-7.487-4.305-10.339-1.935-2.851,2.37-2.846,7.079.013,10.518,2.859,3.439,7.487,4.305,10.339,1.935ZM15.742,104.636c.034-.18.147-.342.237-.506.093-.172.174-.351.255-.526.157-.341.352-.643.737-.76.348-.105.656.032.854.268.51.605.424,1.516-.191,2.034-.322.272-.756.523-1.16.485-.342-.032-.547-.297-.673-.577-.057-.126-.087-.271-.06-.418ZM12.28,99.887c.744-.628,1.997-.366,2.799.585.802.951.849,2.23.105,2.858-.744.628-1.998.366-2.799-.585-.802-.951-.849-2.23-.104-2.858Z"/>
            <path class="cls-2" d="M17.18,84.665c-2.872-1.098-5.836-1.808-8.825-2.13-4.184-.451-8.42-.143-12.534.919-.839-.78-1.961-1.889-2.729-2.902-.466-.616-.46-1.47.019-2.077l2.469-3.117c.201-.252-.004-.539-.297-.414l-2.726,1.149c-1.155.488-2.373.344-3.2-.366l-2.983-2.56c-.169-.21-.505-.04-.488.246l-.399,4.042c-.105,1.053-.759,1.941-1.682,2.33l-1.974.833c-.197.084-.156.369.059.418l2.2.512c.71.165,1.233.766,1.302,1.493.092.976.406,2.464,1.352,4.131-4.196,2.426-7.805,5.648-10.651,9.483-1.792,2.415-3.282,5.073-4.423,7.928-3.468,8.664-3.332,18.112.383,26.6,3.567,8.152,10.024,14.48,18.252,17.919.341.142.682.279,1.028.411.591.226,1.186.436,1.784.629,8.206,2.648,17.025,2.202,25.035-1.303,8.009-3.505,14.321-9.681,17.944-17.506.264-.57.513-1.15.748-1.737.137-.344.269-.687.395-1.034,3.055-8.376,2.789-17.414-.779-25.566-3.715-8.489-10.563-14.998-19.28-18.33ZM-12.637,78.4c1.111-2.382,2.159.569,3.399,3.258.44.955,1.473,1.831,2.426,2.584.22.175.437.342.641.503h.001c1.393,1.098,2.192,1.857-.292,2.093-1.134.108-2.2-.17-3.13-.699-.256-.145-.5-.308-.732-.489-2.226-1.721-3.398-4.922-2.313-7.25ZM16.799,145.748c-15.436,6.755-33.425-.282-40.18-15.717-6.755-15.435.281-33.425,15.717-40.18,15.435-6.755,33.425.282,40.18,15.717,6.755,15.435-.282,33.425-15.717,40.18Z"/>
            <path class="cls-2" d="M93.797,56.173c.288.138.632.091.872-.12l.004-.004,6.278-3.03c3.634-1.754,6.194-5.155,6.849-9.098,1.85-11.138-5.51-16.965-10.454-19.567-.674-.381-1.391-.751-2.157-1.106-12.26-5.531-26.705-6.307-37.826,2.195-2.827,2.164-5.335,4.757-7.272,7.75-.047.083-.254.397-.288.47-.002.003-.004.005-.006.008-.298.419-.108,1.011.353,1.238,12.876,6.321,30.893,15.213,43.516,21.203l.131.063ZM105.781,37.556c.358,1.877.367,3.887.011,6.031-.546,3.291-2.687,6.132-5.726,7.599l-1.049.506c3.872-4.456,6.517-9.413,6.764-14.136ZM92.785,53.43c-4.735-2.27-10.127-4.826-15.662-7.434.881.037,1.758.086,2.622.137,2.741.163,5.574.331,8.467.031.546-.057.99-.525.958-1.074-.034-.585-.548-1.016-1.124-.955-2.743.291-5.508.126-8.181-.033-1.407-.084-2.847-.163-4.299-.185,2.606-.952,5.149-1.923,7.623-2.87,4.472-1.711,8.697-3.328,13.218-4.817.507-.167.85-.684.734-1.204-.133-.597-.746-.933-1.312-.748-4.589,1.509-8.853,3.141-13.367,4.868-3.097,1.185-6.298,2.41-9.592,3.581-.132.019-.28.022-.437.013.002-.02.004-.039.005-.058l7.849-7.655c.402-.393.41-1.037.018-1.439-.392-.4-1.036-.41-1.439-.018l-8.417,8.209,2.582-8.229c.168-.536-.13-1.107-.666-1.275-.547-.179-1.107.131-1.275.666l-2.663,8.487-2.786-7.645c-.182-.5-.708-.824-1.223-.692-.593.151-.913.775-.708,1.336l2.317,6.359c-4.845-2.268-9.528-4.451-13.7-6.39-.218-.102-.289-.379-.145-.572,2.298-3.083,5.215-5.706,8.497-7.714l1.51,4.146c.117.32.377.546.682.632.203.057.425.052.638-.03.528-.202.765-.825.571-1.356l-1.608-4.411c.275-.144.552-.284.832-.42,3.557-1.726,7.384-2.618,11.27-2.839l-2.052,6.54c-.168.536.13,1.107.666,1.276.01.003.021.006.031.009.527.148,1.08-.149,1.245-.675l2.258-7.198c4.108.024,8.237.758,12.141,2.036l-6.359,6.201c-.402.392-.41,1.037-.018,1.439.13.133.286.222.453.269.338.095.716.012.986-.251l7.099-6.923c4.274,1.54,8.412,3.623,10.833,7.511,0,.003-.001.003-.002.006-.597.212-1.194.425-1.789.641-.488.177-.807.683-.694,1.19.087.39.375.667.721.764.197.055.414.052.621-.024.655-.238,1.311-.472,1.967-.705,1.105,3.378.26,6.983-1.46,10.363l-8.534-.113c-.55-.007-1.048.397-1.085.946-.034.496.289.924.74,1.05.083.023.171.036.262.038l7.479.099c-1.552,2.503-3.485,4.819-5.314,6.746-.512.539-1.314.683-1.984.362Z"/>
            <path class="cls-2" d="M108.15,176.281c-.153-.977-.468-1.904-.721-2.856-.268-1.011-.385-2.049-.519-3.083-.141-1.088-.284-2.185-.613-3.235-.141-.451-.267-.904-.384-1.362-.38-1.487-.737-2.982-1.21-4.443-.25-.771-.531-1.538-.886-2.267-.139-.286-.301-.58-.491-.851-.151-.419-.441-.772-.919-.885-.591-.14-1.296.016-1.906-.013-1.217-.058-2.36-.291-3.658-.658-2.89-.816-5.561-2.078-8.195-3.527-2.493-1.372-4.903-2.908-7.197-4.592-.455-.334-.898-.776-1.451-.935-.468-.135-.99-.086-1.442.085-1.086.41-1.978,1.225-2.819,2.002-.439.406-.868.822-1.306,1.229-.201.187-.403.372-.61.552-.091.08-.184.158-.277.235-.045.037-.091.073-.136.11-.012.01-.016.014-.024.021-.008.005-.013.008-.025.016-.175.117-.349.231-.529.341-.03.018-.074.03-.103.051-.229.072-.46.184-.669.299-.789.433-1.485,1.1-2.137,1.714-1.279,1.204-2.311,2.619-3.379,4.006-.833,1.083-1.729,2.079-2.696,3.041-.963.959-1.939,1.914-2.791,2.976-.791.986-1.596,2.103-1.816,3.378-.066.381-.08.768-.033,1.149-.386,2.317.314,4.574.874,6.805.265,1.055.456,1.984.472,3.031.021,1.349.187,2.697.447,4.021.504,2.56,1.39,5.027,2.317,7.459.237.621.477,1.24.715,1.86.23.597.43,1.234.806,1.759.796,1.113,2.225,1.519,3.428,2.044,2.556,1.114,5.116,2.217,7.667,3.342,1.11.489,2.225,1.011,3.168,1.785.983.808,1.915,1.579,3.154,1.96,1.215.373,2.522.392,3.782.373.67-.01,1.348-.046,1.971-.228,1.658-.078,3.07-1.13,4.238-2.228,1.252-1.177,2.316-2.531,3.451-3.816,1.33-1.505,2.764-2.914,4.078-4.435,1.407-1.627,2.746-3.343,3.8-5.224.49-.874.867-1.787,1.266-2.704.182-.419.386-.842.657-1.212.307-.419.695-.78,1.044-1.163.726-.8,1.309-1.693,1.566-2.754.255-1.051.209-2.113.043-3.172ZM61.309,168.155c.002.073.04-.228.06-.301.031-.117.074-.23.111-.346.004-.013.015-.04.023-.062.018-.041.037-.082.056-.122.125-.261.27-.511.425-.755.641-1.004,1.492-1.896,2.398-2.816.806-.819,1.654-1.602,2.411-2.467,1.082-1.237,2.01-2.597,3.059-3.86.527-.635,1.087-1.241,1.694-1.801.546-.504,1.109-1.063,1.793-1.373.97-.441,1.746-1.067,2.528-1.79.808-.747,1.582-1.54,2.447-2.223.037-.026.158-.118.187-.138.092-.064.184-.127.279-.186.089-.055.179-.109.272-.158.039-.021.082-.039.12-.061.075-.02.161-.045.233-.071,0,0,0,0,0,0,.003,0,.004,0,.007,0,.006.005.008.008.015.014.914.769,1.943,1.437,2.931,2.106,1.161.785,2.346,1.535,3.552,2.248,2.557,1.509,5.221,2.861,8.002,3.907,2.329.876,4.865,1.584,7.379,1.521-.005.033-.01.066-.015.099-.021.135-.044.27-.067.404-.052.306-.103.613-.137.922,0,0,0,.002-.001.002-.06.093-.127.182-.193.271-.027.036-.054.072-.081.108-.015.02-.036.047-.055.071-.304.387-.651.763-.92,1.176-.376.579-.65,1.24-1.004,1.836-.404.68-.838,1.343-1.295,1.989-.917,1.297-1.932,2.521-2.987,3.707-2.167,2.436-4.511,4.706-6.752,7.072-.385.406-.761.821-1.137,1.234-3.724-1.495-7.369-3.187-10.916-5.065-1.837-.972-3.614-2.04-5.424-3.059-1.294-.728-2.819-1.026-4.274-1.223-1.519-.206-3.095-.31-4.619-.071-.005-.016-.005-.032-.011-.048-.037-.103-.058-.211-.094-.314-.002-.005-.002-.006-.004-.01-.003-.037-.008-.074-.007-.111,0-.086.005-.171.009-.257ZM88.257,199.883c-.018.074-.038.147-.061.22,0-.002-.073.175-.081.204-.042.085-.088.168-.14.247-.123.185-.06.08-.031.046-.245.287-.504.409-.972.456-1.053.104-2.224.099-3.269-.063-1.143-.177-1.987-.69-2.86-1.419-.922-.77-1.884-1.406-2.97-1.922-2.327-1.105-4.725-2.076-7.086-3.105-1.15-.501-2.327-.966-3.456-1.512-.462-.223-.731-.434-.949-.9-.253-.54-.438-1.119-.653-1.675-.878-2.28-1.749-4.572-2.349-6.944-.326-1.288-.571-2.596-.659-3.922-.081-1.229-.099-2.412-.361-3.624-.341-1.577-.966-3.281-1.13-4.925.104.005.209.001.314-.02.041-.008.298-.05.314-.056.103-.012.205-.024.308-.032.357-.03.715-.042,1.072-.043.763-.001,1.526.049,2.284.138.568.067,1.367.212,2.035.383.317.082.631.174.94.283.046.016.271.106.299.114.122.055.243.111.36.175,1.799.979,3.541,2.06,5.352,3.022,1.831.973,3.689,1.897,5.569,2.77,2.013.935,4.054,1.81,6.116,2.633.021.084.047.167.083.248.873,1.967,1.423,4.15,1.484,6.304.032,1.133-.123,2.195-.393,3.293-.296,1.203-.628,2.451-.521,3.701.103,1.197.576,2.257,1.004,3.364.182.47.362.958.443,1.458,0,.028.022.235.022.228.004.078.006.156.006.234,0,.322-.012.407-.067.638ZM105.614,179.954c-.518.85-1.337,1.485-1.92,2.293-.577.799-.871,1.745-1.28,2.632-1.669,3.621-4.465,6.571-7.179,9.43-1.267,1.335-2.408,2.782-3.673,4.118-.35.37-.73.751-1.113,1.091.007-.131.009-.261.005-.391-.033-1.202-.517-2.277-.949-3.377-.225-.573-.455-1.174-.525-1.79-.074-.652.024-1.309.161-1.945.309-1.44.714-2.829.754-4.313.073-2.724-.619-5.446-1.699-7.932,4.43-4.849,9.586-9.205,12.822-15.004.186-.333.36-.671.534-1.011.042-.082.083-.146.126-.223.008-.015.011-.021.017-.032.008-.007.021-.021.051-.057.337-.42.678-.841.994-1.277.343,1.094.63,2.206.91,3.317.299,1.187.702,2.366.928,3.567.187.993.283,2.001.424,3,.147,1.034.402,2.013.686,3.016.449,1.586.834,3.399-.074,4.888Z"/>
            <path class="cls-2" d="M22.976,190.078c-.76-.066-18.565-1.802-19.59-19.749-.003-.087-.008-.144-.009-.168-.033-.486-.449-.846-.939-.827-.487.028-.859.445-.835.932.002.027.003.052.004.079.039.846.299,9.584-4.933,15.224-2.985,3.216-7.236,4.873-12.637,4.924-.48.004-.869.389-.879.869-.011.479.362.88.84.906.76.04,18.622,1.211,19.29,20.772.016.48.41.858.886.858.011,0,.021-.001.031-.001.491-.016.874-.427.858-.917v-.002c-.028-.86-.446-20.247,17.88-21.127.467-.022.836-.403.845-.87.009-.468-.346-.862-.812-.902ZM4.084,206.352c-2.579-9.216-9.605-13.098-14.598-14.719,3.417-.826,6.263-2.454,8.498-4.866,2.797-3.018,4.163-6.743,4.823-9.9,2.904,8.67,10.257,12.377,15.197,13.923-9.132,2.372-12.604,9.912-13.92,15.562Z"/>
            <path class="cls-2" d="M72.723,126.981c.311.35.839.397,1.209.111.149-.115,14.845-11.286,27.79,1.233.061.06.103.099.12.116.172.163.391.244.611.244.233,0,.466-.091.639-.272.339-.351.33-.91-.019-1.251-.019-.019-.037-.037-.056-.055-.601-.595-6.719-6.84-6.696-14.535.012-4.388,2.014-8.488,5.949-12.187.349-.328.374-.874.057-1.234-.315-.359-.862-.404-1.232-.097-.587.484-14.539,11.705-28.26-2.185-.001,0-.001-.001-.001-.001h-.001c-.344-.349-.905-.353-1.256-.009-.349.345-.353.907-.009,1.256.001,0,.001,0,.001,0,.001.001,0,0,.001.002.607.616,14.054,14.58,1.183,27.651-.328.333-.342.864-.031,1.213Z"/>
            <path class="cls-2" d="M-10.268,36.152c.702.059,17.132,1.644,18.142,18.651.004.082.008.136.01.16.035.504.454.89.952.89.02,0,.039,0,.06-.002.523-.032.923-.481.895-1.005-.001-.026-.002-.05-.004-.075-.038-.807-.317-9.239,4.626-14.599,2.726-2.955,6.588-4.487,11.482-4.554.516-.007.933-.422.942-.938.01-.516-.391-.946-.907-.972-.701-.035-17.173-1.08-17.86-19.623-.02-.527-.449-.909-.99-.92-.528.02-.939.462-.92.99v.004c.031.842.473,19.19-16.398,20.087-.502.026-.897.437-.905.939s.375.925.875.967ZM7.238,20.979c2.482,8.26,8.651,11.877,13.207,13.449-2.968.811-5.461,2.301-7.446,4.457-2.562,2.783-3.86,6.213-4.511,9.191-2.769-7.774-9.222-11.221-13.745-12.721,8.02-2.334,11.222-9.096,12.496-14.376Z"/>
          </g>
        </g>
        <g>
          <rect class="cls-4" x="111.675" y="-111.675" width="223.35" height="223.35"/>
          <g class="cls-3">
            <path class="cls-2" d="M247.533-3.201c-1.637-.497-3.182.56-4.971,1.785-1.002.686-2.039,1.395-3.086,1.831-1.369.569-4.087-.062-6.486-.619-3.033-.703-5.898-1.367-8.032-.433h0c-2.134.934-3.59,3.489-5.131,6.195-1.219,2.14-2.601,4.565-3.947,5.184-1.031.473-2.254.754-3.439,1.024-2.114.483-3.939.9-4.684,2.441-.409.846-.363,1.808.139,2.858,1.206,2.528,6,3.988,10.085,4.513,3.272.42,9.681.722,15.837-1.972,6.156-2.694,10.282-7.608,12.194-10.296,2.386-3.357,4.567-7.869,3.528-10.471-.432-1.08-1.107-1.767-2.006-2.041ZM232.553,16.718c-3.743,1.638-8.523,2.295-13.246,1.837,1.264-.712,2.492-1.566,3.747-2.44,2.18-1.517,4.434-3.087,7.329-4.354h0c2.896-1.267,5.578-1.858,8.171-2.429,1.494-.33,2.954-.651,4.335-1.098-2.867,3.78-6.593,6.846-10.337,8.484ZM246.034,2.888c-1.931,1.993-4.68,2.599-8.157,3.365-2.615.577-5.578,1.23-8.757,2.621h0c-3.179,1.391-5.67,3.125-7.867,4.654-2.922,2.034-5.232,3.642-8.006,3.709-1.497-.572-2.336-1.172-2.506-1.528-.028-.058-.048-.107-.063-.147.453-.26,1.646-.533,2.466-.72,1.279-.292,2.728-.622,4.055-1.234,2.266-1.043,3.843-3.811,5.368-6.487,1.163-2.04,2.48-4.352,3.656-4.867h0c1.176-.515,3.769.086,6.056.616,3.001.696,6.104,1.416,8.407.459,1.347-.559,2.575-1.401,3.658-2.142.694-.474,1.704-1.165,2.202-1.322.02.039.042.086.066.147.146.366.019,1.389-.578,2.877Z"/>
            <path class="cls-2" d="M213.273,10.755c3.676-.486,6.181-4.474,5.594-8.907-.587-4.433-4.041-7.633-7.718-7.146-3.676.486-6.18,4.474-5.594,8.907.021.155.046.308.073.46-.055.025-.11.05-.165.073-.673.286-1.479.307-2.042-.245-.041-.045-.122,0-.106.058.267,1.259,1.647,1.858,2.845,1.976,1.27,3.17,4.118,5.219,7.112,4.823ZM215.949,2.803c.314-.03.527.118.624.323.247.529-.079,1.203-.728,1.507-.34.159-.766.287-1.086.201-.271-.072-.364-.301-.389-.53-.011-.103.005-.217.069-.324.078-.131.216-.236.336-.348.124-.116.241-.239.356-.36.225-.235.469-.435.817-.468ZM212.74-1.88c.944-.236,1.965.601,2.282,1.869.317,1.268-.192,2.486-1.136,2.722-.944.235-1.966-.601-2.282-1.868-.316-1.268.192-2.486,1.136-2.722Z"/>
            <path class="cls-2" d="M240.53-27.01c-2.872-1.098-5.836-1.808-8.825-2.13-4.184-.451-8.42-.143-12.534.919-.839-.78-1.961-1.889-2.729-2.902-.466-.616-.46-1.47.019-2.077l2.469-3.117c.201-.252-.004-.539-.297-.414l-2.726,1.149c-1.155.488-2.373.344-3.2-.366l-2.983-2.56c-.169-.21-.505-.04-.488.246l-.399,4.042c-.105,1.053-.759,1.941-1.682,2.33l-1.974.833c-.197.084-.156.369.059.418l2.2.512c.71.165,1.233.766,1.302,1.493.092.976.406,2.464,1.352,4.131-4.196,2.426-7.805,5.648-10.651,9.483-1.792,2.415-3.282,5.073-4.423,7.928-3.468,8.664-3.332,18.112.383,26.6,3.567,8.152,10.024,14.48,18.252,17.919.341.142.682.279,1.028.411.591.226,1.186.436,1.784.629,8.206,2.648,17.025,2.202,25.035-1.303,8.009-3.505,14.321-9.681,17.944-17.506.264-.57.513-1.15.748-1.737.137-.344.269-.687.395-1.034,3.055-8.376,2.789-17.414-.779-25.566-3.715-8.489-10.563-14.998-19.28-18.33ZM210.713-33.275c1.111-2.382,2.159.569,3.399,3.258.44.955,1.473,1.831,2.426,2.584.22.175.437.342.641.503h.001c1.393,1.098,2.192,1.857-.292,2.093-1.134.108-2.2-.17-3.13-.699-.256-.145-.5-.308-.732-.489-2.226-1.721-3.398-4.922-2.313-7.25ZM240.149,34.073c-15.436,6.755-33.425-.282-40.18-15.717-6.755-15.435.281-33.425,15.717-40.18,15.435-6.755,33.425.282,40.18,15.717,6.755,15.435-.282,33.425-15.717,40.18Z"/>
            <path class="cls-2" d="M175.474,51.355c-4.591-4.448-10.03-8.137-16.131-10.162-3.077-1.01-6.283-1.684-9.549-1.453-4.308.36-8.276,2.654-11.254,5.841-2.483,2.027-4.468,4.627-6.111,7.371-.269.496-.657,1.155-.839,1.676-.897,2.303-1.639,4.656-1.712,7.14-.079,2.51.345,4.918.725,7.182.121.651.314,1.927.442,2.581.521,2.694,1.502,5.166,2.447,7.706.84,2.27,2.055,4.651,3.632,6.532,1.172,1.45,2.455,2.701,3.811,3.926,1.379,1.244,2.737,2.411,4.402,3.388,4.298,2.497,9.344,3.055,14.217,3.225,6.1.126,12.144-2.508,16.415-6.805,2.515-2.483,4.808-5.228,6.446-8.387,1.668-3.143,2.564-6.678,2.65-10.228.066-.895.062-1.824-.027-2.796-.588-6.677-4.902-12.255-9.562-16.737ZM177.203,85.871c-3.749,4.168-8.603,7.143-14.276,7.52-2.189.173-4.346-.126-6.524-.511-3.14-.547-6.468-1.397-9.087-3.057-1.763-1.115-3.41-2.73-4.96-4.174-1.584-1.534-3.003-3.109-3.996-4.896-1.054-1.867-1.853-4.057-2.678-6.074-.877-2.097-1.388-4.185-1.841-6.38-.532-2.252-1.036-4.401-1.103-6.519-.061-1.571.182-3.156.554-4.694-.109,1.335-.09,2.681.046,4.009.872,8.234,5.708,15.369,10.836,21.585,3.367,4.113,7.364,7.222,12.751,8.108,8.503,1.579,17.09-2.65,22.689-8.854.868-.917,1.646-1.848,2.331-2.805-1.197,2.476-2.84,4.74-4.74,6.741ZM180.144,76.304c-5.108,6.877-13.774,12.239-22.549,10.657-6.213-.982-9.914-5.54-13.658-10.177-3.726-4.742-7.044-9.996-8.005-16.014-.451-2.926-.276-5.958.783-8.701,2.13-5.426,7.248-10.249,13.195-10.91,9.246-.591,18.107,5.007,24.314,11.45,3.194,3.312,6.05,6.96,7.446,11.342,1.33,4.092,1.044,8.822-1.526,12.353Z"/>
            <path class="cls-2" d="M174.619,59.955c.226-1.045-.065-2.908-2.244-6.146-2.817-4.188-5.39-6.3-7.647-6.278-1.39.013-2.263.824-2.675,1.334-1.765-3.704-6.714-3.824-10.852-3.924l-.21-.005c-1.238-.03-1.749.624-1.944,1.017-.123.248-.216.554-.223.971-.092-.02-.185-.038-.281-.05-1.835-.23-3.856,1.113-4.762,1.942l-.137.125c-1.158,1.047-3.871,3.497-4.142,9.717-.048,1.097.353,2.05,1.19,2.831.8.745,1.974,1.277,3.341,1.653-.254.183-.486.395-.691.642-.986,1.187-1.18,2.902-.592,5.242,1.475,5.877,3.995,7.24,7.482,9.125,1.32.713,2.815,1.522,4.503,2.705.991.695,1.828.856,2.489.783.382-.042.706-.163.967-.304.469-.254.875-.659,1.227-1.177.136,1.667.755,3.12,2.614,3.685,1.614.5,3.083.611,4.413.464,4.067-.451,6.822-3.32,8.34-4.902,1.409-1.467,1.869-3.628,1.174-5.505-.196-.527-.493-1.111-.933-1.687.619.092.998.13,1.017.131.159.011.422.03.73-.004.475-.053,1.056-.231,1.528-.757.87-.968,1.039-2.723.533-5.524-.707-3.917-2.858-5.49-4.218-6.105ZM162.532,59.457c.248-3.94.6-8.624.798-9.438.196-.276.655-.765,1.415-.772.925-.009,2.961.696,6.206,5.519,2.215,3.293,2.049,4.58,1.944,4.899l-7.767,2.529c-.832.2-1.441.295-1.698.239,0,0,.059.013.135.068l-.089.123c-.219-.545-.591-1.036-1.049-1.414.014-.171.056-.724.105-1.755ZM150.591,46.705s.081-.06.358-.053l.21.005c5.982.145,9.899.618,9.842,5.671-.038,3.323-.117,5.592-.183,6.992-.022.355-.044.727-.067,1.107-.385-.106-.768-.189-1.194-.249-.394-.06-.744-.046-1.047.023-.761-.972-2.701-3.492-4.473-6.157-4.128-6.208-3.454-7.33-3.446-7.339ZM141.862,60.232c-.466-.434-.671-.911-.645-1.5.239-5.502,2.494-7.539,3.578-8.518l.146-.132c.717-.656,2.271-1.646,3.391-1.505.408.051.715.253.967.637l.048-.031c.544,1.381,1.583,3.308,3.432,6.064,1.91,2.847,3.963,5.481,4.557,6.235-.015.154-.009.319.017.493-1.501.141-3.653.267-5.901.251-.183-.01-.369-.022-.558-.033-.818-.05-1.698-.103-2.572-.096-2.761-.221-5.272-.758-6.458-1.864ZM159.764,71.796c-.323,3.81-1.073,7.316-2.389,8.029-.155.084-.63.342-1.653-.375-1.77-1.24-3.311-2.074-4.672-2.809-3.445-1.863-5.343-2.889-6.634-8.033-.439-1.747-.355-3.001.248-3.727.502-.605,1.39-.886,2.425-1.001.324-.036.662-.054,1.008-.062,1.237.106,2.494.145,3.687.144.471.023.92.036,1.33.024,2.407-.072,3.871-.211,4.629-.302.349.589,1.02,1.491,2.174,2.297-.077,2.844-.124,4.659-.152,5.816ZM158.94,62.101c-.109-.22-.17-.446-.169-.525,0-.007,0-.01-.001-.013.007-.003.012-.006.02-.009.526-.141,1.291.036,1.85.181.833.159,1.374.738,1.416,1.459l-.026.009.029.105c-.003.19-.038.388-.113.59-.15.542-.506.526-.975.34-.897-.4-1.615-1.242-2.031-2.137ZM173.548,78.216c-2.647,2.758-5.898,5.568-11.011,3.985-1.64-.498-1.561-2.433-1.254-5.33.118-1.116.23-2.171.156-3.109,0-.131.011-.678.03-1.463.208-2.343.219-4.569.198-5.909.12-.007.23-.017.331-.029.058.077.125.16.197.247.383.473.826.909,1.315,1.311,1.254,1.054,3.227,2.264,6.192,3.084.382.119.759.229,1.127.33,1.786.614,2.97,1.675,3.522,3.163.468,1.264.153,2.724-.803,3.72ZM177.026,70.436c-.158.176-.392.228-.859.195-.688-.049-2.635-.333-4.853-.944-.25-.084-.508-.164-.783-.235-.078-.02-.152-.041-.228-.062-1.935-.604-3.956-1.456-5.467-2.611-.712-.566-1.173-1.078-1.437-1.416.184-.287.36-.617.46-.952l1.814-.591c1.584-.361,4.001-1.097,7.717-2.5.689.195,3.052,1.14,3.756,5.043.534,2.959.094,3.833-.12,4.072Z"/>
            <path class="cls-2" d="M331.5,64.606c-.153-.977-.468-1.904-.721-2.856-.268-1.011-.385-2.049-.519-3.083-.141-1.088-.284-2.185-.613-3.235-.141-.451-.267-.904-.384-1.362-.38-1.487-.737-2.982-1.21-4.443-.25-.771-.531-1.538-.886-2.267-.139-.286-.301-.58-.491-.851-.151-.419-.441-.772-.919-.885-.591-.14-1.296.016-1.906-.013-1.217-.058-2.36-.291-3.658-.658-2.89-.816-5.561-2.078-8.195-3.527-2.493-1.372-4.903-2.908-7.197-4.592-.455-.334-.898-.776-1.451-.935-.468-.135-.99-.086-1.442.085-1.086.41-1.978,1.225-2.819,2.002-.439.406-.868.822-1.306,1.229-.201.187-.403.372-.61.552-.091.08-.184.158-.277.235-.045.037-.091.073-.136.11-.012.01-.016.014-.024.021-.008.005-.013.008-.025.016-.175.117-.349.231-.529.341-.03.018-.074.03-.103.051-.229.072-.46.184-.669.299-.789.433-1.485,1.1-2.137,1.714-1.279,1.204-2.311,2.619-3.379,4.006-.833,1.083-1.729,2.079-2.696,3.041-.963.959-1.939,1.914-2.791,2.976-.791.986-1.596,2.103-1.816,3.378-.066.381-.08.768-.033,1.149-.386,2.317.314,4.574.874,6.805.265,1.055.456,1.984.472,3.031.021,1.349.187,2.697.447,4.021.504,2.56,1.39,5.027,2.317,7.459.237.621.477,1.24.715,1.86.23.597.43,1.234.806,1.759.796,1.113,2.225,1.519,3.428,2.044,2.556,1.114,5.116,2.217,7.667,3.342,1.11.489,2.225,1.011,3.168,1.785.983.808,1.915,1.579,3.154,1.96,1.215.373,2.522.392,3.782.373.67-.01,1.348-.046,1.971-.228,1.658-.078,3.07-1.13,4.238-2.228,1.252-1.177,2.316-2.531,3.451-3.816,1.33-1.505,2.764-2.914,4.078-4.435,1.407-1.627,2.746-3.343,3.8-5.224.49-.874.867-1.787,1.266-2.704.182-.419.386-.842.657-1.212.307-.419.695-.78,1.044-1.163.726-.8,1.309-1.693,1.566-2.754.255-1.051.209-2.113.043-3.172ZM284.658,56.48c.002.073.04-.228.06-.301.031-.117.074-.23.111-.346.004-.013.015-.04.023-.062.018-.041.037-.082.056-.122.125-.261.27-.511.425-.755.641-1.004,1.492-1.896,2.398-2.816.806-.819,1.654-1.602,2.411-2.467,1.082-1.237,2.01-2.597,3.059-3.86.527-.635,1.087-1.241,1.694-1.801.546-.504,1.109-1.063,1.793-1.373.97-.441,1.746-1.067,2.528-1.79.808-.747,1.582-1.54,2.447-2.223.037-.026.158-.118.187-.138.092-.064.184-.127.279-.186.089-.055.179-.109.272-.158.039-.021.082-.039.12-.061.075-.02.161-.045.233-.071,0,0,0,0,0,0,.003,0,.004,0,.007,0,.006.005.008.008.015.014.914.769,1.943,1.437,2.931,2.106,1.161.785,2.346,1.535,3.552,2.248,2.557,1.509,5.221,2.861,8.002,3.907,2.329.876,4.865,1.584,7.379,1.521-.005.033-.01.066-.015.099-.021.135-.044.27-.067.404-.052.306-.103.613-.137.922,0,0,0,.002-.001.002-.06.093-.127.182-.193.271-.027.036-.054.072-.081.108-.015.02-.036.047-.055.071-.304.387-.651.763-.92,1.176-.376.579-.65,1.24-1.004,1.836-.404.68-.838,1.343-1.295,1.989-.917,1.297-1.932,2.521-2.987,3.707-2.167,2.436-4.511,4.706-6.752,7.072-.385.406-.761.821-1.137,1.234-3.724-1.495-7.369-3.187-10.916-5.065-1.837-.972-3.614-2.04-5.424-3.059-1.294-.728-2.819-1.026-4.274-1.223-1.519-.206-3.095-.31-4.619-.071-.005-.016-.005-.032-.011-.048-.037-.103-.058-.211-.094-.314-.002-.005-.002-.006-.004-.01-.003-.037-.008-.074-.007-.111,0-.086.005-.171.009-.257ZM311.607,88.208c-.018.074-.038.147-.061.22,0-.002-.073.175-.081.204-.042.085-.088.168-.14.247-.123.185-.06.08-.031.046-.245.287-.504.409-.972.456-1.053.104-2.224.099-3.269-.063-1.143-.177-1.987-.69-2.86-1.419-.922-.77-1.884-1.406-2.97-1.922-2.327-1.105-4.725-2.076-7.086-3.105-1.15-.501-2.327-.966-3.456-1.512-.462-.223-.731-.434-.949-.9-.253-.54-.438-1.119-.653-1.675-.878-2.28-1.749-4.572-2.349-6.944-.326-1.288-.571-2.596-.659-3.922-.081-1.229-.099-2.412-.361-3.624-.341-1.577-.966-3.281-1.13-4.925.104.005.209.001.314-.02.041-.008.298-.05.314-.056.103-.012.205-.024.308-.032.357-.03.715-.042,1.072-.043.763-.001,1.526.049,2.284.138.568.067,1.367.212,2.035.383.317.082.631.174.94.283.046.016.271.106.299.114.122.055.243.111.36.175,1.799.979,3.541,2.06,5.352,3.022,1.831.973,3.689,1.897,5.569,2.77,2.013.935,4.054,1.81,6.116,2.633.021.084.047.167.083.248.873,1.967,1.423,4.15,1.484,6.304.032,1.133-.123,2.195-.393,3.293-.296,1.203-.628,2.451-.521,3.701.103,1.197.576,2.257,1.004,3.364.182.47.362.958.443,1.458,0,.028.022.235.022.228.004.078.006.156.006.234,0,.322-.012.407-.067.638ZM328.964,68.279c-.518.85-1.337,1.485-1.92,2.293-.577.799-.871,1.745-1.28,2.632-1.669,3.621-4.465,6.571-7.179,9.43-1.267,1.335-2.408,2.782-3.673,4.118-.35.37-.73.751-1.113,1.091.007-.131.009-.261.005-.391-.033-1.202-.517-2.277-.949-3.377-.225-.573-.455-1.174-.525-1.79-.074-.652.024-1.309.161-1.945.309-1.44.714-2.829.754-4.313.073-2.724-.619-5.446-1.699-7.932,4.43-4.849,9.586-9.205,12.822-15.004.186-.333.36-.671.534-1.011.042-.082.083-.146.126-.223.008-.015.011-.021.017-.032.008-.007.021-.021.051-.057.337-.42.678-.841.994-1.277.343,1.094.63,2.206.91,3.317.299,1.187.702,2.366.928,3.567.187.993.283,2.001.424,3,.147,1.034.402,2.013.686,3.016.449,1.586.834,3.399-.074,4.888Z"/>
            <path class="cls-2" d="M246.326,78.403c-.76-.066-18.565-1.802-19.59-19.749-.003-.087-.008-.144-.009-.168-.033-.486-.449-.846-.939-.827-.487.028-.859.445-.835.932.002.027.003.052.004.079.039.846.299,9.584-4.933,15.224-2.985,3.216-7.236,4.873-12.637,4.924-.48.004-.869.389-.879.869-.011.479.362.88.84.906.76.04,18.622,1.211,19.29,20.772.016.48.41.858.886.858.011,0,.021-.001.031-.001.491-.016.874-.427.858-.917v-.002c-.028-.86-.446-20.247,17.88-21.127.467-.022.836-.403.845-.87.009-.468-.346-.862-.812-.902ZM227.434,94.677c-2.579-9.216-9.605-13.098-14.598-14.719,3.417-.826,6.263-2.454,8.498-4.866,2.797-3.018,4.163-6.743,4.823-9.9,2.904,8.67,10.257,12.377,15.197,13.923-9.132,2.372-12.604,9.912-13.92,15.562Z"/>
            <path class="cls-2" d="M154.631,13.048c.127.364.469.595.838.595.078,0,.158-.01.237-.032.451-.125.728-.577.634-1.035-.154-.747-3.552-18.313,13.366-24.396.081-.028.134-.048.157-.056.457-.17.692-.677.526-1.135-.166-.459-.672-.697-1.131-.535-.025.009-.049.017-.074.026-.794.277-9.1,3.013-15.998-.403-3.932-1.947-6.729-5.552-8.313-10.715-.14-.457-.617-.722-1.082-.596-.463.126-.742.596-.631,1.062.176.741,4.095,18.212-14.431,24.398-.464.156-.716.658-.561,1.123.155.464.657.718,1.122.562.785-.26,19.291-6.171,25.341,11.137Z"/>
            <path class="cls-2" d="M296.073,15.306c.311.35.839.397,1.209.111.149-.115,14.845-11.286,27.79,1.233.061.06.103.099.12.116.172.163.391.244.611.244.233,0,.466-.091.639-.272.339-.351.33-.91-.019-1.251-.019-.019-.037-.037-.056-.055-.601-.595-6.719-6.84-6.696-14.535.012-4.388,2.014-8.488,5.949-12.187.349-.328.374-.874.057-1.234-.315-.359-.862-.404-1.232-.097-.587.484-14.539,11.705-28.26-2.185-.001,0-.001-.001-.001-.001h-.001c-.344-.349-.905-.353-1.256-.009-.349.345-.353.907-.009,1.256.001,0,.001,0,.001,0,.001.001,0,0,.001.002.607.616,14.054,14.58,1.183,27.651-.328.333-.342.864-.031,1.213Z"/>
          </g>
        </g>
      </g>
    </pattern>
  </defs>
  <rect class="cls-5" width="1365.596" height="5765.36"/>
</svg>